<mxfile host="Electron" agent="Mozilla/5.0 (Windows NT 10.0; Win64; x64) AppleWebKit/537.36 (KHTML, like Gecko) draw.io/26.1.1 Chrome/132.0.6834.210 Electron/34.3.3 Safari/537.36" version="26.1.1">
  <diagram name="第 1 页" id="2ZK38OD6Ew3JxSrP9lMm">
    <mxGraphModel dx="1418" dy="1989" grid="1" gridSize="10" guides="1" tooltips="1" connect="1" arrows="1" fold="1" page="1" pageScale="1" pageWidth="827" pageHeight="1169" math="0" shadow="0">
      <root>
        <mxCell id="0" />
        <mxCell id="1" parent="0" />
        <mxCell id="vkii5gzoSM7YCzm13zN4-27" value="&lt;font style=&quot;font-size: 16px;&quot; face=&quot;宋体&quot;&gt;匹配圆柱&lt;/font&gt;" style="rounded=0;whiteSpace=wrap;html=1;" parent="1" vertex="1">
          <mxGeometry x="195" y="350" width="90" height="170" as="geometry" />
        </mxCell>
        <mxCell id="vkii5gzoSM7YCzm13zN4-28" value="&lt;font style=&quot;font-size: 15px;&quot; face=&quot;宋体&quot;&gt;蓝&lt;/font&gt;&lt;div&gt;&lt;font style=&quot;font-size: 15px;&quot; face=&quot;宋体&quot;&gt;宝&lt;/font&gt;&lt;/div&gt;&lt;div&gt;&lt;font style=&quot;font-size: 15px;&quot; face=&quot;宋体&quot;&gt;石&lt;/font&gt;&lt;/div&gt;&lt;div&gt;&lt;font style=&quot;font-size: 15px;&quot; face=&quot;宋体&quot;&gt;窗&lt;/font&gt;&lt;/div&gt;&lt;div&gt;&lt;font style=&quot;font-size: 15px;&quot; face=&quot;宋体&quot;&gt;片&lt;/font&gt;&lt;/div&gt;" style="rounded=0;whiteSpace=wrap;html=1;fillColor=#33FF33;" parent="1" vertex="1">
          <mxGeometry x="285" y="350" width="35" height="170" as="geometry" />
        </mxCell>
        <mxCell id="vkii5gzoSM7YCzm13zN4-29" value="&lt;font style=&quot;font-size: 14px;&quot; face=&quot;宋体&quot;&gt;矩形波导&lt;/font&gt;" style="rounded=0;whiteSpace=wrap;html=1;" parent="1" vertex="1">
          <mxGeometry x="670" y="405" width="35" height="60" as="geometry" />
        </mxCell>
        <mxCell id="vkii5gzoSM7YCzm13zN4-30" value="" style="endArrow=none;html=1;rounded=0;exitX=1;exitY=0;exitDx=0;exitDy=0;entryX=0;entryY=0;entryDx=0;entryDy=0;" parent="1" source="vkii5gzoSM7YCzm13zN4-28" target="vkii5gzoSM7YCzm13zN4-29" edge="1">
          <mxGeometry width="50" height="50" relative="1" as="geometry">
            <mxPoint x="390" y="400" as="sourcePoint" />
            <mxPoint x="440" y="350" as="targetPoint" />
          </mxGeometry>
        </mxCell>
        <mxCell id="vkii5gzoSM7YCzm13zN4-31" value="" style="endArrow=none;html=1;rounded=0;exitX=1;exitY=1;exitDx=0;exitDy=0;entryX=0;entryY=1;entryDx=0;entryDy=0;" parent="1" source="vkii5gzoSM7YCzm13zN4-28" target="vkii5gzoSM7YCzm13zN4-29" edge="1">
          <mxGeometry width="50" height="50" relative="1" as="geometry">
            <mxPoint x="330" y="360" as="sourcePoint" />
            <mxPoint x="680" y="415" as="targetPoint" />
          </mxGeometry>
        </mxCell>
        <mxCell id="vkii5gzoSM7YCzm13zN4-32" value="" style="endArrow=none;html=1;rounded=0;entryX=0;entryY=1;entryDx=0;entryDy=0;" parent="1" target="vkii5gzoSM7YCzm13zN4-27" edge="1">
          <mxGeometry width="50" height="50" relative="1" as="geometry">
            <mxPoint x="195" y="560" as="sourcePoint" />
            <mxPoint x="195" y="500" as="targetPoint" />
          </mxGeometry>
        </mxCell>
        <mxCell id="vkii5gzoSM7YCzm13zN4-33" value="" style="endArrow=none;html=1;rounded=0;" parent="1" edge="1">
          <mxGeometry width="50" height="50" relative="1" as="geometry">
            <mxPoint x="140" y="520" as="sourcePoint" />
            <mxPoint x="195" y="520" as="targetPoint" />
          </mxGeometry>
        </mxCell>
        <mxCell id="vkii5gzoSM7YCzm13zN4-34" value="" style="endArrow=none;html=1;rounded=0;" parent="1" edge="1">
          <mxGeometry width="50" height="50" relative="1" as="geometry">
            <mxPoint x="140" y="350" as="sourcePoint" />
            <mxPoint x="195" y="350" as="targetPoint" />
          </mxGeometry>
        </mxCell>
        <mxCell id="vkii5gzoSM7YCzm13zN4-35" value="" style="endArrow=classic;startArrow=classic;html=1;rounded=0;" parent="1" edge="1">
          <mxGeometry width="50" height="50" relative="1" as="geometry">
            <mxPoint x="160" y="350" as="sourcePoint" />
            <mxPoint x="160" y="520" as="targetPoint" />
          </mxGeometry>
        </mxCell>
        <mxCell id="vkii5gzoSM7YCzm13zN4-36" value="16mm" style="text;html=1;align=center;verticalAlign=middle;resizable=0;points=[];autosize=1;strokeColor=none;fillColor=none;" parent="1" vertex="1">
          <mxGeometry x="100" y="420" width="60" height="30" as="geometry" />
        </mxCell>
        <mxCell id="vkii5gzoSM7YCzm13zN4-38" value="" style="endArrow=none;html=1;rounded=0;entryX=0;entryY=1;entryDx=0;entryDy=0;" parent="1" edge="1">
          <mxGeometry width="50" height="50" relative="1" as="geometry">
            <mxPoint x="285" y="610" as="sourcePoint" />
            <mxPoint x="284.72" y="520" as="targetPoint" />
          </mxGeometry>
        </mxCell>
        <mxCell id="vkii5gzoSM7YCzm13zN4-39" value="" style="endArrow=none;html=1;rounded=0;entryX=0;entryY=1;entryDx=0;entryDy=0;" parent="1" edge="1">
          <mxGeometry width="50" height="50" relative="1" as="geometry">
            <mxPoint x="320" y="610" as="sourcePoint" />
            <mxPoint x="320" y="520" as="targetPoint" />
          </mxGeometry>
        </mxCell>
        <mxCell id="vkii5gzoSM7YCzm13zN4-40" value="" style="endArrow=none;html=1;rounded=0;entryX=0;entryY=1;entryDx=0;entryDy=0;" parent="1" target="vkii5gzoSM7YCzm13zN4-29" edge="1">
          <mxGeometry width="50" height="50" relative="1" as="geometry">
            <mxPoint x="670" y="560" as="sourcePoint" />
            <mxPoint x="670" y="520" as="targetPoint" />
          </mxGeometry>
        </mxCell>
        <mxCell id="vkii5gzoSM7YCzm13zN4-41" value="" style="html=1;shadow=0;dashed=0;align=center;verticalAlign=middle;shape=mxgraph.arrows2.arrow;dy=0.58;dx=20.58;flipH=1;notch=0;" parent="1" vertex="1">
          <mxGeometry x="80" y="475" width="60" height="40" as="geometry" />
        </mxCell>
        <mxCell id="vkii5gzoSM7YCzm13zN4-42" value="&lt;font style=&quot;font-size: 14px;&quot; face=&quot;宋体&quot;&gt;&lt;b style=&quot;&quot;&gt;通往大气&lt;/b&gt;&lt;/font&gt;" style="text;html=1;align=center;verticalAlign=middle;resizable=0;points=[];autosize=1;strokeColor=none;fillColor=none;" parent="1" vertex="1">
          <mxGeometry x="70" y="515" width="80" height="30" as="geometry" />
        </mxCell>
        <mxCell id="vkii5gzoSM7YCzm13zN4-43" value="" style="html=1;shadow=0;dashed=0;align=center;verticalAlign=middle;shape=mxgraph.arrows2.arrow;dy=0.58;dx=20.58;flipH=0;notch=0;" parent="1" vertex="1">
          <mxGeometry x="705" y="465" width="60" height="40" as="geometry" />
        </mxCell>
        <mxCell id="vkii5gzoSM7YCzm13zN4-44" value="&lt;font style=&quot;font-size: 14px;&quot; face=&quot;宋体&quot;&gt;&lt;b style=&quot;&quot;&gt;通往&lt;/b&gt;&lt;/font&gt;&lt;div&gt;&lt;font style=&quot;font-size: 14px;&quot; face=&quot;宋体&quot;&gt;&lt;b style=&quot;&quot;&gt;矢量网络分析仪&lt;/b&gt;&lt;/font&gt;&lt;/div&gt;" style="text;html=1;align=center;verticalAlign=middle;resizable=0;points=[];autosize=1;strokeColor=none;fillColor=none;" parent="1" vertex="1">
          <mxGeometry x="670" y="495" width="130" height="50" as="geometry" />
        </mxCell>
        <mxCell id="vkii5gzoSM7YCzm13zN4-46" value="" style="endArrow=classic;startArrow=classic;html=1;rounded=0;" parent="1" edge="1">
          <mxGeometry width="50" height="50" relative="1" as="geometry">
            <mxPoint x="195" y="540" as="sourcePoint" />
            <mxPoint x="285" y="540" as="targetPoint" />
          </mxGeometry>
        </mxCell>
        <mxCell id="vkii5gzoSM7YCzm13zN4-47" value="" style="endArrow=classic;startArrow=none;html=1;rounded=0;startFill=0;" parent="1" edge="1">
          <mxGeometry width="50" height="50" relative="1" as="geometry">
            <mxPoint x="250" y="600" as="sourcePoint" />
            <mxPoint x="285" y="600" as="targetPoint" />
          </mxGeometry>
        </mxCell>
        <mxCell id="vkii5gzoSM7YCzm13zN4-48" value="" style="endArrow=classic;startArrow=classic;html=1;rounded=0;" parent="1" edge="1">
          <mxGeometry width="50" height="50" relative="1" as="geometry">
            <mxPoint x="320" y="540" as="sourcePoint" />
            <mxPoint x="670" y="540" as="targetPoint" />
          </mxGeometry>
        </mxCell>
        <mxCell id="vkii5gzoSM7YCzm13zN4-49" value="8.447mm" style="text;html=1;align=center;verticalAlign=middle;resizable=0;points=[];autosize=1;strokeColor=none;fillColor=none;" parent="1" vertex="1">
          <mxGeometry x="205" y="540" width="70" height="30" as="geometry" />
        </mxCell>
        <mxCell id="vkii5gzoSM7YCzm13zN4-50" value="117.518mm" style="text;html=1;align=center;verticalAlign=middle;resizable=0;points=[];autosize=1;strokeColor=none;fillColor=none;" parent="1" vertex="1">
          <mxGeometry x="440" y="540" width="90" height="30" as="geometry" />
        </mxCell>
        <mxCell id="vkii5gzoSM7YCzm13zN4-51" value="&lt;font style=&quot;font-size: 18px;&quot; face=&quot;宋体&quot;&gt;渐变过渡段&lt;/font&gt;" style="text;html=1;align=center;verticalAlign=middle;resizable=0;points=[];autosize=1;strokeColor=none;fillColor=none;" parent="1" vertex="1">
          <mxGeometry x="415" y="413" width="110" height="40" as="geometry" />
        </mxCell>
        <mxCell id="vkii5gzoSM7YCzm13zN4-52" value="" style="endArrow=classic;startArrow=none;html=1;rounded=0;startFill=0;" parent="1" edge="1">
          <mxGeometry width="50" height="50" relative="1" as="geometry">
            <mxPoint x="355" y="600" as="sourcePoint" />
            <mxPoint x="320" y="600" as="targetPoint" />
          </mxGeometry>
        </mxCell>
        <mxCell id="vkii5gzoSM7YCzm13zN4-53" value="1.035mm" style="text;html=1;align=center;verticalAlign=middle;resizable=0;points=[];autosize=1;strokeColor=none;fillColor=none;" parent="1" vertex="1">
          <mxGeometry x="267.5" y="600" width="70" height="30" as="geometry" />
        </mxCell>
        <mxCell id="vkii5gzoSM7YCzm13zN4-54" value="" style="group" parent="1" vertex="1" connectable="0">
          <mxGeometry x="590" y="-10" width="150" height="195" as="geometry" />
        </mxCell>
        <mxCell id="vkii5gzoSM7YCzm13zN4-8" value="" style="ellipse;whiteSpace=wrap;html=1;aspect=fixed;" parent="vkii5gzoSM7YCzm13zN4-54" vertex="1">
          <mxGeometry y="45" width="150" height="150" as="geometry" />
        </mxCell>
        <mxCell id="vkii5gzoSM7YCzm13zN4-23" value="" style="endArrow=none;html=1;rounded=0;exitX=0;exitY=0.5;exitDx=0;exitDy=0;" parent="vkii5gzoSM7YCzm13zN4-54" source="vkii5gzoSM7YCzm13zN4-8" edge="1">
          <mxGeometry width="50" height="50" relative="1" as="geometry">
            <mxPoint y="120" as="sourcePoint" />
            <mxPoint y="20" as="targetPoint" />
          </mxGeometry>
        </mxCell>
        <mxCell id="vkii5gzoSM7YCzm13zN4-24" value="" style="endArrow=none;html=1;rounded=0;exitX=0;exitY=0.5;exitDx=0;exitDy=0;" parent="vkii5gzoSM7YCzm13zN4-54" edge="1">
          <mxGeometry width="50" height="50" relative="1" as="geometry">
            <mxPoint x="150" y="118" as="sourcePoint" />
            <mxPoint x="150" y="20" as="targetPoint" />
          </mxGeometry>
        </mxCell>
        <mxCell id="vkii5gzoSM7YCzm13zN4-25" value="" style="endArrow=classic;startArrow=classic;html=1;rounded=0;" parent="vkii5gzoSM7YCzm13zN4-54" edge="1">
          <mxGeometry width="50" height="50" relative="1" as="geometry">
            <mxPoint y="30" as="sourcePoint" />
            <mxPoint x="150" y="30" as="targetPoint" />
          </mxGeometry>
        </mxCell>
        <mxCell id="vkii5gzoSM7YCzm13zN4-26" value="16mm" style="text;html=1;align=center;verticalAlign=middle;resizable=0;points=[];autosize=1;strokeColor=none;fillColor=none;" parent="vkii5gzoSM7YCzm13zN4-54" vertex="1">
          <mxGeometry x="45" width="60" height="30" as="geometry" />
        </mxCell>
        <mxCell id="vkii5gzoSM7YCzm13zN4-55" value="" style="group" parent="1" vertex="1" connectable="0">
          <mxGeometry x="190" y="10" width="210" height="112" as="geometry" />
        </mxCell>
        <mxCell id="vkii5gzoSM7YCzm13zN4-14" value="2.54mm" style="text;html=1;align=center;verticalAlign=middle;resizable=0;points=[];autosize=1;strokeColor=none;fillColor=none;" parent="vkii5gzoSM7YCzm13zN4-55" vertex="1">
          <mxGeometry x="25" width="70" height="30" as="geometry" />
        </mxCell>
        <mxCell id="2" value="" style="group" parent="vkii5gzoSM7YCzm13zN4-55" vertex="1" connectable="0">
          <mxGeometry y="22" width="210" height="90" as="geometry" />
        </mxCell>
        <mxCell id="vkii5gzoSM7YCzm13zN4-7" value="" style="rounded=0;whiteSpace=wrap;html=1;" parent="2" vertex="1">
          <mxGeometry y="30" width="120" height="60" as="geometry" />
        </mxCell>
        <mxCell id="vkii5gzoSM7YCzm13zN4-9" value="" style="endArrow=classic;startArrow=classic;html=1;rounded=0;" parent="2" edge="1">
          <mxGeometry width="50" height="50" relative="1" as="geometry">
            <mxPoint y="10" as="sourcePoint" />
            <mxPoint x="120" y="10" as="targetPoint" />
          </mxGeometry>
        </mxCell>
        <mxCell id="vkii5gzoSM7YCzm13zN4-11" value="" style="endArrow=none;html=1;rounded=0;exitX=0;exitY=0;exitDx=0;exitDy=0;" parent="2" source="vkii5gzoSM7YCzm13zN4-7" edge="1">
          <mxGeometry width="50" height="50" relative="1" as="geometry">
            <mxPoint y="30" as="sourcePoint" />
            <mxPoint as="targetPoint" />
          </mxGeometry>
        </mxCell>
        <mxCell id="vkii5gzoSM7YCzm13zN4-13" value="" style="endArrow=none;html=1;rounded=0;exitX=1;exitY=0;exitDx=0;exitDy=0;" parent="2" source="vkii5gzoSM7YCzm13zN4-7" edge="1">
          <mxGeometry width="50" height="50" relative="1" as="geometry">
            <mxPoint x="10" y="40" as="sourcePoint" />
            <mxPoint x="120" as="targetPoint" />
          </mxGeometry>
        </mxCell>
        <mxCell id="vkii5gzoSM7YCzm13zN4-16" value="" style="endArrow=none;html=1;rounded=0;flowAnimation=0;entryX=1;entryY=0;entryDx=0;entryDy=0;" parent="2" target="vkii5gzoSM7YCzm13zN4-7" edge="1">
          <mxGeometry width="50" height="50" relative="1" as="geometry">
            <mxPoint x="140" y="30" as="sourcePoint" />
            <mxPoint x="131" y="40" as="targetPoint" />
          </mxGeometry>
        </mxCell>
        <mxCell id="vkii5gzoSM7YCzm13zN4-17" value="" style="endArrow=none;html=1;rounded=0;flowAnimation=0;entryX=1;entryY=0;entryDx=0;entryDy=0;" parent="2" edge="1">
          <mxGeometry width="50" height="50" relative="1" as="geometry">
            <mxPoint x="140" y="90" as="sourcePoint" />
            <mxPoint x="120" y="90" as="targetPoint" />
          </mxGeometry>
        </mxCell>
        <mxCell id="vkii5gzoSM7YCzm13zN4-18" value="" style="endArrow=none;html=1;rounded=0;flowAnimation=0;entryX=1;entryY=0;entryDx=0;entryDy=0;" parent="2" target="vkii5gzoSM7YCzm13zN4-7" edge="1">
          <mxGeometry width="50" height="50" relative="1" as="geometry">
            <mxPoint x="150" y="30" as="sourcePoint" />
            <mxPoint x="120" y="30" as="targetPoint" />
          </mxGeometry>
        </mxCell>
        <mxCell id="vkii5gzoSM7YCzm13zN4-19" value="" style="endArrow=none;html=1;rounded=0;flowAnimation=0;entryX=1;entryY=0;entryDx=0;entryDy=0;" parent="2" edge="1">
          <mxGeometry width="50" height="50" relative="1" as="geometry">
            <mxPoint x="150" y="90" as="sourcePoint" />
            <mxPoint x="120" y="90" as="targetPoint" />
          </mxGeometry>
        </mxCell>
        <mxCell id="vkii5gzoSM7YCzm13zN4-20" value="" style="endArrow=classic;startArrow=classic;html=1;rounded=0;" parent="2" edge="1">
          <mxGeometry width="50" height="50" relative="1" as="geometry">
            <mxPoint x="140" y="30" as="sourcePoint" />
            <mxPoint x="140" y="90" as="targetPoint" />
          </mxGeometry>
        </mxCell>
        <mxCell id="vkii5gzoSM7YCzm13zN4-21" value="1.27mm" style="text;html=1;align=center;verticalAlign=middle;resizable=0;points=[];autosize=1;strokeColor=none;fillColor=none;" parent="2" vertex="1">
          <mxGeometry x="140" y="45" width="70" height="30" as="geometry" />
        </mxCell>
        <mxCell id="TfIIYZaHmcwd4GZ69ydj-17" value="&lt;font face=&quot;宋体&quot;&gt;蓝宝石窗&lt;/font&gt;" style="shape=cylinder3;whiteSpace=wrap;html=1;boundedLbl=1;backgroundOutline=1;size=15;direction=north;fillColor=#00FF80;strokeColor=#000000;align=left;" parent="1" vertex="1">
          <mxGeometry x="390" y="840" width="50" height="110" as="geometry" />
        </mxCell>
        <mxCell id="TfIIYZaHmcwd4GZ69ydj-16" value="&lt;span style=&quot;font-family: 宋体; font-size: 16px;&quot;&gt;匹配圆柱&lt;/span&gt;" style="shape=cylinder3;whiteSpace=wrap;html=1;boundedLbl=1;backgroundOutline=1;size=15;direction=north;" parent="1" vertex="1">
          <mxGeometry x="340" y="840" width="80" height="110" as="geometry" />
        </mxCell>
        <mxCell id="TfIIYZaHmcwd4GZ69ydj-19" value="" style="endArrow=none;html=1;rounded=0;exitX=1;exitY=1;exitDx=0;exitDy=-15;exitPerimeter=0;entryX=0;entryY=0;entryDx=0;entryDy=0;" parent="1" source="TfIIYZaHmcwd4GZ69ydj-17" target="TfIIYZaHmcwd4GZ69ydj-21" edge="1">
          <mxGeometry width="50" height="50" relative="1" as="geometry">
            <mxPoint x="560" y="880" as="sourcePoint" />
            <mxPoint x="620" y="880" as="targetPoint" />
          </mxGeometry>
        </mxCell>
        <mxCell id="TfIIYZaHmcwd4GZ69ydj-20" value="" style="endArrow=none;html=1;rounded=0;exitX=0;exitY=1;exitDx=0;exitDy=0;entryX=0;entryY=1;entryDx=0;entryDy=-15;entryPerimeter=0;" parent="1" source="TfIIYZaHmcwd4GZ69ydj-21" target="TfIIYZaHmcwd4GZ69ydj-17" edge="1">
          <mxGeometry width="50" height="50" relative="1" as="geometry">
            <mxPoint x="620" y="910" as="sourcePoint" />
            <mxPoint x="415" y="950" as="targetPoint" />
          </mxGeometry>
        </mxCell>
        <mxCell id="TfIIYZaHmcwd4GZ69ydj-21" value="&lt;font face=&quot;宋体&quot;&gt;矩形波导&lt;/font&gt;" style="rounded=0;whiteSpace=wrap;html=1;" parent="1" vertex="1">
          <mxGeometry x="600" y="870" width="30" height="50" as="geometry" />
        </mxCell>
        <mxCell id="TfIIYZaHmcwd4GZ69ydj-23" value="&lt;font style=&quot;font-size: 18px;&quot; face=&quot;宋体&quot;&gt;渐变过渡段&lt;/font&gt;" style="text;html=1;align=center;verticalAlign=middle;resizable=0;points=[];autosize=1;strokeColor=none;fillColor=none;" parent="1" vertex="1">
          <mxGeometry x="465" y="880" width="110" height="40" as="geometry" />
        </mxCell>
        <mxCell id="TfIIYZaHmcwd4GZ69ydj-26" value="" style="endArrow=none;html=1;rounded=0;entryX=1;entryY=0;entryDx=0;entryDy=15;entryPerimeter=0;" parent="1" target="TfIIYZaHmcwd4GZ69ydj-16" edge="1">
          <mxGeometry width="50" height="50" relative="1" as="geometry">
            <mxPoint x="320" y="840" as="sourcePoint" />
            <mxPoint x="210" y="900" as="targetPoint" />
          </mxGeometry>
        </mxCell>
        <mxCell id="TfIIYZaHmcwd4GZ69ydj-27" value="" style="endArrow=none;html=1;rounded=0;entryX=1;entryY=0;entryDx=0;entryDy=15;entryPerimeter=0;" parent="1" target="TfIIYZaHmcwd4GZ69ydj-16" edge="1">
          <mxGeometry width="50" height="50" relative="1" as="geometry">
            <mxPoint x="310" y="840" as="sourcePoint" />
            <mxPoint x="355" y="840" as="targetPoint" />
          </mxGeometry>
        </mxCell>
        <mxCell id="TfIIYZaHmcwd4GZ69ydj-28" value="" style="group" parent="1" vertex="1" connectable="0">
          <mxGeometry x="240" y="910" width="80" height="70" as="geometry" />
        </mxCell>
        <mxCell id="TfIIYZaHmcwd4GZ69ydj-24" value="" style="html=1;shadow=0;dashed=0;align=center;verticalAlign=middle;shape=mxgraph.arrows2.arrow;dy=0.58;dx=20.58;flipH=1;notch=0;" parent="TfIIYZaHmcwd4GZ69ydj-28" vertex="1">
          <mxGeometry x="10" width="60" height="40" as="geometry" />
        </mxCell>
        <mxCell id="TfIIYZaHmcwd4GZ69ydj-25" value="&lt;font style=&quot;font-size: 14px;&quot; face=&quot;宋体&quot;&gt;&lt;b style=&quot;&quot;&gt;通往大气&lt;/b&gt;&lt;/font&gt;" style="text;html=1;align=center;verticalAlign=middle;resizable=0;points=[];autosize=1;strokeColor=none;fillColor=none;" parent="TfIIYZaHmcwd4GZ69ydj-28" vertex="1">
          <mxGeometry y="40" width="80" height="30" as="geometry" />
        </mxCell>
        <mxCell id="TfIIYZaHmcwd4GZ69ydj-29" value="" style="endArrow=none;html=1;rounded=0;entryX=1;entryY=0;entryDx=0;entryDy=15;entryPerimeter=0;" parent="1" edge="1">
          <mxGeometry width="50" height="50" relative="1" as="geometry">
            <mxPoint x="310" y="950" as="sourcePoint" />
            <mxPoint x="355" y="950" as="targetPoint" />
          </mxGeometry>
        </mxCell>
        <mxCell id="TfIIYZaHmcwd4GZ69ydj-30" value="" style="endArrow=classic;startArrow=classic;html=1;rounded=0;" parent="1" edge="1">
          <mxGeometry width="50" height="50" relative="1" as="geometry">
            <mxPoint x="330" y="950" as="sourcePoint" />
            <mxPoint x="330" y="840" as="targetPoint" />
          </mxGeometry>
        </mxCell>
        <mxCell id="TfIIYZaHmcwd4GZ69ydj-31" value="&lt;b&gt;16mm&lt;/b&gt;" style="text;html=1;align=center;verticalAlign=middle;resizable=0;points=[];autosize=1;strokeColor=none;fillColor=none;fontFamily=宋体;" parent="1" vertex="1">
          <mxGeometry x="285" y="880" width="50" height="30" as="geometry" />
        </mxCell>
        <mxCell id="TfIIYZaHmcwd4GZ69ydj-33" value="" style="endArrow=none;html=1;rounded=0;entryX=0;entryY=0;entryDx=0;entryDy=15;entryPerimeter=0;" parent="1" target="TfIIYZaHmcwd4GZ69ydj-16" edge="1">
          <mxGeometry width="50" height="50" relative="1" as="geometry">
            <mxPoint x="355" y="990" as="sourcePoint" />
            <mxPoint x="355" y="950" as="targetPoint" />
          </mxGeometry>
        </mxCell>
        <mxCell id="TfIIYZaHmcwd4GZ69ydj-36" value="" style="endArrow=none;html=1;rounded=0;entryX=0;entryY=1;entryDx=0;entryDy=0;" parent="1" target="TfIIYZaHmcwd4GZ69ydj-21" edge="1">
          <mxGeometry width="50" height="50" relative="1" as="geometry">
            <mxPoint x="600" y="990" as="sourcePoint" />
            <mxPoint x="600" y="950" as="targetPoint" />
          </mxGeometry>
        </mxCell>
        <mxCell id="TfIIYZaHmcwd4GZ69ydj-37" value="" style="endArrow=classic;startArrow=classic;html=1;rounded=0;" parent="1" edge="1">
          <mxGeometry width="50" height="50" relative="1" as="geometry">
            <mxPoint x="355" y="980" as="sourcePoint" />
            <mxPoint x="405" y="980" as="targetPoint" />
          </mxGeometry>
        </mxCell>
        <mxCell id="TfIIYZaHmcwd4GZ69ydj-38" value="" style="endArrow=none;html=1;rounded=0;entryX=0;entryY=1;entryDx=0;entryDy=-15;entryPerimeter=0;" parent="1" target="TfIIYZaHmcwd4GZ69ydj-16" edge="1">
          <mxGeometry width="50" height="50" relative="1" as="geometry">
            <mxPoint x="405" y="990" as="sourcePoint" />
            <mxPoint x="405" y="950" as="targetPoint" />
          </mxGeometry>
        </mxCell>
        <mxCell id="TfIIYZaHmcwd4GZ69ydj-39" value="" style="endArrow=none;html=1;rounded=0;entryX=0;entryY=1;entryDx=0;entryDy=-15;entryPerimeter=0;" parent="1" target="TfIIYZaHmcwd4GZ69ydj-17" edge="1">
          <mxGeometry width="50" height="50" relative="1" as="geometry">
            <mxPoint x="425" y="990" as="sourcePoint" />
            <mxPoint x="425" y="950" as="targetPoint" />
          </mxGeometry>
        </mxCell>
        <mxCell id="TfIIYZaHmcwd4GZ69ydj-41" value="" style="endArrow=none;html=1;rounded=0;entryX=0;entryY=1;entryDx=0;entryDy=-15;entryPerimeter=0;" parent="1" target="TfIIYZaHmcwd4GZ69ydj-17" edge="1">
          <mxGeometry width="50" height="50" relative="1" as="geometry">
            <mxPoint x="425" y="1040" as="sourcePoint" />
            <mxPoint x="425" y="950" as="targetPoint" />
          </mxGeometry>
        </mxCell>
        <mxCell id="TfIIYZaHmcwd4GZ69ydj-42" value="" style="endArrow=none;html=1;rounded=0;entryX=0;entryY=1;entryDx=0;entryDy=-15;entryPerimeter=0;" parent="1" target="TfIIYZaHmcwd4GZ69ydj-16" edge="1">
          <mxGeometry width="50" height="50" relative="1" as="geometry">
            <mxPoint x="405" y="1040" as="sourcePoint" />
            <mxPoint x="405" y="950" as="targetPoint" />
          </mxGeometry>
        </mxCell>
        <mxCell id="TfIIYZaHmcwd4GZ69ydj-43" value="" style="endArrow=classic;startArrow=none;html=1;rounded=0;startFill=0;" parent="1" edge="1">
          <mxGeometry width="50" height="50" relative="1" as="geometry">
            <mxPoint x="380" y="1032" as="sourcePoint" />
            <mxPoint x="405" y="1032" as="targetPoint" />
          </mxGeometry>
        </mxCell>
        <mxCell id="TfIIYZaHmcwd4GZ69ydj-44" value="" style="endArrow=classic;startArrow=none;html=1;rounded=0;startFill=0;" parent="1" edge="1">
          <mxGeometry width="50" height="50" relative="1" as="geometry">
            <mxPoint x="450" y="1032" as="sourcePoint" />
            <mxPoint x="425" y="1032" as="targetPoint" />
          </mxGeometry>
        </mxCell>
        <mxCell id="TfIIYZaHmcwd4GZ69ydj-45" value="&lt;b&gt;1.035mm&lt;/b&gt;" style="text;html=1;align=center;verticalAlign=middle;resizable=0;points=[];autosize=1;strokeColor=none;fillColor=none;fontFamily=宋体;" parent="1" vertex="1">
          <mxGeometry x="379" y="1038" width="70" height="30" as="geometry" />
        </mxCell>
        <mxCell id="TfIIYZaHmcwd4GZ69ydj-46" value="" style="endArrow=classic;startArrow=classic;html=1;rounded=0;" parent="1" edge="1">
          <mxGeometry width="50" height="50" relative="1" as="geometry">
            <mxPoint x="425" y="980" as="sourcePoint" />
            <mxPoint x="600" y="980" as="targetPoint" />
          </mxGeometry>
        </mxCell>
        <mxCell id="TfIIYZaHmcwd4GZ69ydj-47" value="&lt;font style=&quot;font-size: 10px;&quot;&gt;&lt;b&gt;8.447mm&lt;/b&gt;&lt;/font&gt;" style="text;html=1;align=center;verticalAlign=middle;resizable=0;points=[];autosize=1;strokeColor=none;fillColor=none;fontFamily=宋体;" parent="1" vertex="1">
          <mxGeometry x="349" y="980" width="60" height="30" as="geometry" />
        </mxCell>
        <mxCell id="TfIIYZaHmcwd4GZ69ydj-48" value="&lt;b&gt;117.518mm&lt;/b&gt;" style="text;html=1;align=center;verticalAlign=middle;resizable=0;points=[];autosize=1;strokeColor=none;fillColor=none;fontFamily=宋体;" parent="1" vertex="1">
          <mxGeometry x="475" y="978" width="90" height="30" as="geometry" />
        </mxCell>
        <mxCell id="TfIIYZaHmcwd4GZ69ydj-51" value="" style="group" parent="1" vertex="1" connectable="0">
          <mxGeometry x="600" y="900" width="130" height="80" as="geometry" />
        </mxCell>
        <mxCell id="TfIIYZaHmcwd4GZ69ydj-49" value="" style="html=1;shadow=0;dashed=0;align=center;verticalAlign=middle;shape=mxgraph.arrows2.arrow;dy=0.58;dx=20.58;flipH=0;notch=0;" parent="TfIIYZaHmcwd4GZ69ydj-51" vertex="1">
          <mxGeometry x="35" width="60" height="40" as="geometry" />
        </mxCell>
        <mxCell id="TfIIYZaHmcwd4GZ69ydj-50" value="&lt;font style=&quot;font-size: 14px;&quot; face=&quot;宋体&quot;&gt;&lt;b style=&quot;&quot;&gt;通往&lt;/b&gt;&lt;/font&gt;&lt;div&gt;&lt;font style=&quot;font-size: 14px;&quot; face=&quot;宋体&quot;&gt;&lt;b style=&quot;&quot;&gt;矢量网络分析仪&lt;/b&gt;&lt;/font&gt;&lt;/div&gt;" style="text;html=1;align=center;verticalAlign=middle;resizable=0;points=[];autosize=1;strokeColor=none;fillColor=none;" parent="TfIIYZaHmcwd4GZ69ydj-51" vertex="1">
          <mxGeometry y="30" width="130" height="50" as="geometry" />
        </mxCell>
        <mxCell id="yeZVMQ3_bRKqoa8UuC-Q-18" value="" style="shape=cylinder3;whiteSpace=wrap;html=1;boundedLbl=1;backgroundOutline=1;size=15;" parent="1" vertex="1">
          <mxGeometry x="154.5" y="1233" width="110" height="40" as="geometry" />
        </mxCell>
        <mxCell id="yeZVMQ3_bRKqoa8UuC-Q-9" value="" style="group;movable=0;resizable=0;rotatable=0;deletable=0;editable=0;locked=1;connectable=0;" parent="1" vertex="1" connectable="0">
          <mxGeometry x="170" y="1130" width="180" height="210" as="geometry" />
        </mxCell>
        <mxCell id="yeZVMQ3_bRKqoa8UuC-Q-2" value="" style="endArrow=classic;html=1;rounded=0;" parent="yeZVMQ3_bRKqoa8UuC-Q-9" edge="1">
          <mxGeometry width="50" height="50" relative="1" as="geometry">
            <mxPoint x="40" y="120" as="sourcePoint" />
            <mxPoint x="40" as="targetPoint" />
          </mxGeometry>
        </mxCell>
        <mxCell id="yeZVMQ3_bRKqoa8UuC-Q-4" value="" style="endArrow=classic;html=1;rounded=0;" parent="yeZVMQ3_bRKqoa8UuC-Q-9" edge="1">
          <mxGeometry width="50" height="50" relative="1" as="geometry">
            <mxPoint x="40" y="120" as="sourcePoint" />
            <mxPoint x="180" y="120" as="targetPoint" />
          </mxGeometry>
        </mxCell>
        <mxCell id="yeZVMQ3_bRKqoa8UuC-Q-5" value="" style="endArrow=classic;html=1;rounded=0;" parent="yeZVMQ3_bRKqoa8UuC-Q-9" edge="1">
          <mxGeometry width="50" height="50" relative="1" as="geometry">
            <mxPoint x="40" y="120" as="sourcePoint" />
            <mxPoint y="160" as="targetPoint" />
          </mxGeometry>
        </mxCell>
        <mxCell id="CGtfsgf2O7WHrSVqxoXR-2" value="" style="shape=image;verticalLabelPosition=bottom;labelBackgroundColor=default;verticalAlign=top;aspect=fixed;imageAspect=0;image=data:image/png,iVBORw0KGgoAAAANSUhEUgAAA8sAAAFFCAIAAABUtuh5AAAAAXNSR0IArs4c6QAAIABJREFUeAHsnQlcjNsbx2faV5WWabb2vUSFVnuiJBHSvpcS2cO1ZKuESoTs91ovIktkv3ayJSKkhCRt2reZ9/3/u+POnds61UzNTM98+vDOec/6Pc95z2/OexYMCh8gAASAABAAAkAACAABIAAEWEcAw7qoICYgAASAABAAAkAACAABIAAEUFDYYARAAAgAASAABIAAEAACQICVBEBhs5ImxAUEgAAQAAJAAAgAASAABEBhgw0AASAABIAAEAACQAAIAAFWEgCFzUqaEBcQAAJAAAgAASAABIAAEACFDTYABIAAEAACQAAIAAEgAARYSQAUNitpQlxAAAgAASAABIAAEAACQAAUNtgAEAACQAAIAAEgAASAABBgJQFQ2KykCXEBASAABIAAEAACQAAIAAFQ2GADQAAIAAEgAASAABAAAkCAlQRAYbOSJsQFBIAAEAACQAAIAAEgAARAYYMNAAEgAASAABAAAkAACAABVhIAhc1KmhAXEAACQAAIAAEgAASAABAAhQ02AASAABAAAkAACAABIAAEWEkAFDYraUJcQAAIAAEgAASAABAAAkAAFDbYABAAAkAACAABIAAEgAAQYCUBUNispAlxAQEgAASAABAAAkAACAABUNhgA0AACAABIAAEgAAQAAJAgJUEQGGzkibEBQSAABAAAkAACAABIAAEQGGDDQABIAAEgAAQAAJAAAgAAVYSAIXNSpoQFxAAAkAACAABIAAEgAAQAIUNNgAEgAAQAAJAAAgAASAABFhJABQ2K2lCXEAACAABIAAEgAAQAAJAABQ22AAQAAJAAAgAASAABIAAEGAlAVDYrKQJcQEBIAAEgAAQAAJAAAgAAVDYYANAAAgAASAABIAAEAACQICVBEBhs5ImxAUEgAAQAAJAAAgAASAABEBhgw0AASAABIAAEAACQAAIAAFWEgCFzUqaEBcQAAJAAAgAASAABIAAEACFDTYABIAAEAACQAAIAAEgAARYSQAUNitpQlxAAAgAASAABIAAEAACQAAUNtgAEAACQAAIAAEgAASAABBgJQFQ2KykCXEBASAABIAAEAACQAAIAAFQ2GADQAAIAAEgAASAABAAAkCAlQRAYbOSJsQFBIAAEAACQAAIAAEgAARAYYMNAAEgAASAABAAAkAACAABVhIAhc1KmhAXEAACQAAIAAEgAASAABAAhQ02AASAABAAAkAACAABIAAEWEkAFDYraUJcQAAIAAEgAASAABAAAkAAFDbYABAAAkAACAABIAAEgAAQYCUBUNispAlxAQEgAASAABAAAkAACAABUNhgA0AACAABIAAEgAAQAAJAgJUEQGGzkibEBQSAABAAAkAACAABIAAEQGGDDQABIAAEgAAQAAJAAAgAAVYSAIXNSpoQFxAAAkAACAABIAAEgAAQAIUNNgAEgAAQAAJAAAgAASAABFhJABQ2K2lCXEAACAABIAAEgAAQAAJAABQ22AAQAAJAAAgAASAABIAAEGAlAVDYrKQJcQEBIAAEgAAQAAJAAAgAAVDYYANAAAgAASAABIAAEAACQICVBEBhs5ImxAUEgAAQAAJAAAgAASAABEBhgw0AASAABIAAEAACQAAIAAFWEgCFzUqaEBcQAAJAAAgAASAABPqQwJs3b7Zu3bpz5876+vo+zAYkDQobbAAIAAEgAASAABAAArxAIDMzU19fH4vFSkpKFhQU8EKRuLYMoLC5tuog40AACAABIAAEgAAQYCAQFxfHx8eHwWDMzc2rqqoY7sBlbxMAhd3bxCE9IAAEgAAQAAJAAAiwg0BgYCDm78/evXsRBGFHEhAnkwRAYTMJCrwBASAABIAAEAACQICjCUyZMgWDwcjKyn769ImjM9oPMgcKux9UMhQRCAABIAAEgAAQ6AcEzM3NMRjM9OnTYZljn9c2KOw+rwLIABAAAkAACAABIAAEekqAQqGoqqqKiYndunWrp3FB+B4TAIXdY4QQARAAAkAACHAhgaampry8vOLiYpiuyoW1B1lug0BJSQmRSIyKiqqpqWnjNjj1LgFQ2L3LG1IDAkAACAABDiBQWVnp5OSkqKg4ZMiQ4uJiDsgRZAEI9JTA27dvp06d+v37955GBOFZQQAUNisoQhxAAAgAASDAVQRu3rwpJiaGwWAkJCRg22Cuqrp+l9m6urpHjx4dPXq0rq6OsfAIgpw+ffrSpUsUCoXmXlpa+uLFC3gnw0ipD69BYfchfO5OmkqlPnv2bN++feXl5dxdEsg9EAAC/Y9AXFwcFouFbYP7X81zU4lTUlJCQ0ONjIwIBIKiouLbt28Zc5+VlaWqqqqkpJSWltbU1ISiKIIgVCqV0Q9c9yEBUNh9CJ+Lk66qqgoNDZ0zZ87du3dpC5arqqrOnj27YMGCESNGJCYmcnHZIOtAAAj0AwKwbXA/qGSuL2J6evrNmzfd3NwEBQUxGEx0dDRjkTIzM+Xk5DAYjI+Pz8+fPxlvwTUnEACFzQm1wH152LJly8iRI8vKylAULS8v3717t7GxsbCwMAaDMTExef36NfcVCXIMBIBAfyIwYcIEDAbj4ODw48eP/lRuKCv3EcjJydHU1MRgMJ6envQJISiKUiiUa9euKSsrr1u3DpY2cmC9gsLmwErpUZYyMjKOtf958eJFm7GXl5d36dWSs7OznZ3ds2fPtmzZYmJiIiAgIC0t7eTkdPz48e/fv8MksDYhgyMQYCRQU1OTnJzcXmM9ffp0bW0to3/adUVFRYu5mK39gAszBAwMDFRVVV++fAnPK2Zw9Wc/NTU1qamp7TXVY8eOtdexlpaWssS6KBTK2LFjsVjshAkTWjT/qqqqCRMmZGZmsiSh/lzL7Cg7KGx2UO3LOF1dXbHtfAQFBc+fP99m5tatW1dRUdHmrTYdjxw5MmDAADU1NQEBAUFBwUmTJl2+fBneUrXJChyBQJsEnjx5IiUl1U5jxY4bN666urp1wISEhAcPHnTp93DrSMClsbGRTCYHBgY2NDQADSDQMYEnT56QyeT2mqqYmFibHSuVSo2IiCgpKek4cibv+vr6CgkJmZmZVVZWMgZJS0sLDg5uIbsZPcB1HxIAhd2H8FmfdFVVlYaGhrCwsKysrDzDR1xcnI+PLywsrM0++/z582Qy+ebNm8xn6NGjR9ra2qtXr7548eLLly+LiooYX10xHw/4BAL9lsDOnTv5+fmlpKTk5OTojVVOTo6fn9/CwuLhw4etB6UqKyuNjIwmTZpUVFTUb7mxpOC0bYOvXLnCktggEt4msHPnTkFBwTY7ViUlpaNHj7bZsT569IhEIp04cYIlv+JWr14tJiamr69Pm5xJA97Y2Ojl5XXnzp3WzwrerhFuKR0obG6pKabyefXq1WnTpj1//jw/P//zP5/09HRra+t9+/a1+O1LizE7O1tfX5+Pj8/BwaHNt9KtE7506dK4cePS0tJAVbeGAy5AgBkCVCrVyclp7969ubm5/7TU5v/XrFkTGhpaWFjYZpd54MABISEhPj6++Pj4Nj0wkzSv+vn69eu1a9fu3bvHKHeoVOq3b9/u3r176dKlN2/e0Mf+adsGV1VV8SoNKBerCCAI4uTktGTJkjY71tu3b9ONijFFBEFcXFywWCwej3/+/Dnjre5dHzp0SEpKCo/HM/66Pnbs2PLlyxsbG7sXJ4RiNwFQ2Owm3Kvx//nnn3l5eYxJ/vjxw93d/caNG+2p4Xnz5vHz82OxWGFh4U6Hsb99+xYaGmpvb//27Vvo4Bk5wzUQ6BKB9+/fHzx4sEWr/OOPP8LCwtqbbUUbwKa9qtbS0mLsaLuUNO95zsvLmzdvnq6urqioqKSkpIODQ2lpKYqiGRkZ06dPJ5FIEhISwsLC8vLye/fupTGvqakpKCiAhxjvGQPLS1RSUnLw4MEW49BZWVm0jrVNeY2i6KNHj6SlpWmt1dvbu0XwbmTy3r17cnJywsLCX79+pQXPz8+fNWsWHC7TDZi9FgQUdq+h7o2EmpqaGPuM0tJSb2/vy5cvt/cUyM7OxuFw9OllHQ9jl5eXOzo6zpo1KycnhzGV3igYpAEEeIsA5e8PY5lOnjw5Z84cmjRkdKdf0waw6a0VhrFpZMrKysLDw2/cuPHq1SsCgYDBYKSlpXNzc7dv3z5+/Ph58+atWbPGwcFBQEAAg8GYmZl9+/aNjhQugECnBKhUaotfwidPnpwwYUIHHSt9AJvWWv//q6/nw9iFhYV4PB6DwWRlZaEoWlVVNXv2bJgf0mn19a0HUNh9y5+9qUdERERFRdE2om8zpa1bt9IGsGkPAgkJiezs7DZ9oii6ZcuWKVOmfPv2DeR1e4jAHQh0j8CNGzdsbW0/fPjQXnAEQcaPH0+X11gs1srKCiY5oCh68uTJa9euIQhCoVBUVFQwGIylpWVkZKS7uzt9Wkhpaam6ujoGgzE2Nv7/VJz2IIM7EOiUQG5urq2t7V9//dVBx/rp0ydFRUXG1rpy5coe9psUCkVZWRmDwdy7d49CoaxevTo0NLTnQ+Odlhc89IQAKOye0OPcsBUVFZGRkf7+/h1s9VpbW2tubs74FMBisZGRkS1+r9MK+ezZM1NT06dPn/bwMcG5yCBnQKCPCFy8eNHGxiY5Obm9d00oir58+VJWVpaxtYqKij548KCPssxBySYnJ9OOlc3JyRk4cCAGgyGTyYsWLfry5Qv9YYUgiJmZGQaDsbOz+9mVTZM4qJyQFQ4gUFFRERgYmJyc3IG8RlF0x44dgoKCjK3V0NCwg9dTTJbM0NDw/ydOXLhw4dSpUw4ODrBDH5Pc+tAbKOw+hM+upKuqqubMmbN8+fLCwsIO0vjrr7+MjIz09PRIJBI/P7+qqqqenp6dnV1eXh69Z6IFr66utra2PnjwYAcKoIOE4BYQAALtEbh27ZqXl9fr16/b/GVLDxUVFaWvr6+np0fruTU1NfX09H777beOe3p68P5wsWfPHn5+fjKZfPHixRanb1RUVJDJZAwGs2HDhhYPt/5ABsrIEgK0jvXYsWMdN9WfP39OnTpVT0+PtsEfrWPV19dPTU3tYTbGjx+PwWDmz5/v7++fm5sL3XEPefZCcFDYvQC5V5OoqakJCws7dOhQp++Pamtri//+3L59W15e/t69e7SvrRcmx8TEuLu7t+i0erVUkBgQ4EUCd+7ccXd3py9d6qCIP3/+pDXPIUOGTJ8+PScnp7i4uLy8HPQiDRqVSqWd0RgQEND60Xf9+nVRUVEBAYGeT4ftoI7gFg8TKCkpoXWsHctrFEUbGxtLSkqKi4vv3buHw+GuXr1Ka7mMW9x0D5SbmxsGg9HV1X337l33YoBQvUwAFHYvA2d7cgcPHgwNDa2vr2dM6eXLl5mZme09GrKysnA43Js3bxiD0K/z8vJ0dXXhfTQdCFwAAZYQKCsrs7OzS09PZ4wNQZBr16611oh0P8OHD/f19W1vvxG6t/528ebNG9o6sMOHD7cue1RUFBaLVVNTY9XxH62TABceJlBWVubt7d1mx1pQUNBewbOzswkEQosG3p5nZtxDQ0MxGExSUhKMXjODixP8gMLmhFpgWR6ePHni4uKSm5vLOLJFpVLDw8OfP3/O6MiYZAcKu7Gxce7cuVZWVtCjMxKDaw4n0NTUlJeXV1xc3J7N93n+Kysrw8PDd+3a1eKV0fPnz2NjYzvoQUFht647BEGWLl0qKioqLi7eeniPPrw9Y8aMDn66tI4WXIAAiqL19fXh4eFBQUFtdqwdbE3DcoW9YsUKe3v7ns/nhmrtNQKgsHsNNXsTamxsTE5ONjEx2bp167l/PikpKadOnQoNDXV2du7gUPQOFPb169fl5eX37NnDsUqFvVghdi4kUFlZ6eTkpKioOGTIkOLiYg4swcuXL8eOHWtvb3/69Ol/Guu5s2fP7t27d/Dgwffv3+8gz6CwW8PJzs7W1NTEYDDjx49vfWzWpUuXZGVlMRjM8ePHW4cFFyDQAYHGxsbw8HB7e/vjx48zNtUTJ07QOtYWr4sZo2KhwkYQ5PHjx97e3vn5+YxJwDWHEwCFzeEVxGz2IiIiJCUlsVis4H8/fHx8GAxm9+7dHUTUgcL28PAwMjLq4EVYB9HCLSDAWgJUKjUvL+/06dO0vSPaizw5OVlISOj/r1NbnH/Wnv9edv/w4YO+vj4Wi+Xn52dsrLQNm/X09BhPRW6dN+5V2AiC1NfXV1VV1dTUtDdjrXV5mXFJSEig0duxY0eLsYDKyspx48bx8fEpKirCc4wZmOCHkcD/d7wVFhZu3VSxWGynHSsLFfaRI0ecnZ1fvnzZwrwZs8raawqFUltbW1VVVVdX18ErNdYmynuxgcLmkToNCwtzbefT6VKq9hQ2bQF+REQErHHkESvh5mJUVVWFhoY6OjoePXqUNm5UVVV1586dyMjIESNGJCYm0gu3bNkyzN+fwMBADtxq4/bt2+201GbnxMTEjvszTlbYFRUVb968uXPnTnJycnx8/MqVK4ODg93c3Ozt7c3NzXV0dNTV1VVVVdXU1DQ1NYcOHWptbT19+vTg4ODVq1dv3779zz//fPz4cVeXb1Kp1JEjR2IwmAEDBnz8+JFuBrSLy5cvy8jIYDAYNze3FhNyWviEr31FgEqlfv36lTMnIvakY+2Jwv758+ebN29qamoQBDl27NjixYtZexIFlUr98ePHixcvrl69euTIkZiYmKVLl/r5+c2YMWPChAkmJiZaWlpqamq01qqjo2NhYeHo6Ojt7R0WFrZhw4a9e/fevn07Ly+vgyH8vjInjkoXFDZHVUffZKY9hZ2VlSUtLR0dHd36xWvfZBRS7ccETp48qa2tnZ6eThOgeXl5rq6ueDyej49PRETk6tWrdDaenp40hZ2WlkZ35JkLTlPYFArl/fv3KSkp8+bNGzNmjJ6eHh6PFxUVbX6fJiY0gCQjp0/Am6mpThqk62k+ZIH10DX2Jits9QNHqk0zJo/TxQ1VllKWFRQXxmKxwsLCysrKY8aMiYqKar1naHs1+PXrVwUFBQwGY25u3voIntWrV9OGG3ft2tVeDODetwRiYmKGDx/u5ubWuvr6NmM9TL3bCptKpQYGBurq6h49evTu3bs2NjZ5eXk9zAwteE1NzfPnz/fv3+/h4WFhYaGuri4rKysgIIDl4xOREpVWlVcYokQaoak21Ujfz8po6YThEQ5GSybo+lio2RvizdQG6uIl8FL8QgJYLBaPxxsZGTk6Ov7+++8dzEFlSba5NxJQ2NxbdyzLeXsK+86dO+Li4hYWFu/fv2dZYhAREOgWAW9vbw8Pj4aGhurq6v379xsYGAgKCmIwGDU1taSkJMYfgbRd2xwcHDo4bqlbWeCIQJygsOvq6t6+fXvixIn58+ebmZkpKSkpEvAKOkTiKC0dL3PjFXYjd7o63Fzo8n69W16k++doj4JNXkVbfEpjfSvi/aoT/KoSfMrjvH5s9Szc7PF1k9unSNcPGyZfm2+VMMsgZDTBSlNeCaempmZnZ7dx48bMzMyOB/XPnz8vLCyMwWAWLFjQwid9eFtYWDgzM5Mj6g8y8V8Cr169om0CIyUl1cGqwf8G4o5v3VbYr169kpOTw2AwOjo6Y8aMuXLlSgvDZr78VCr106dPN2/e3L17t5eXl4GBAYlEwpEVFQaRlSfq64eMMt3oOPZ3H6f05a45G9w/RXl82eT5Lcbrxxafsji/ym3+1Ql+ldt8SmO9irZ4Fmxy/xztlrdx1pu1NqeChiyxUZsyBGekrEDAGRoaent779u3r6CgoNfmsTAPoQ99gsLuQ/icknR7Cvvu3bvi4uIYDEZFRWXWrFlz586dN29ecHCwl5eXk5PTzJkzExMTf/78CS2KUyqSp/MRERGhpKQ0d+5cCwsLERERTU3NOXPmnD179uvXry26HwMDA1VV1d6cs9ib4PtKYdfW1qanp2/fvn3q1Kna2trNknqwkobLMIst0+2vhDlnRXgWxvhVJQQiu4PQpG7/BSK7fSu3ueVF2pwMHLxoPHGEpgIB5+zs/Ndff7X3PtrHxweDwQgKCt69e7dFRbx69Yo2RQROmG9BhnO+xsfH014ymJubV1ZWck7Gep6Tbivs0tJSBwcHY2NjX1/f169ft3i+dZqxxsbG/Pz8a9euRUREjBo1ikgiyqsq4s3V9YNGjt7n4Xh3iWvOBq8fWwLqdgT1rLUGNO70KY11zooYkeii5WEmp09SUVUNDw9///59V/PcaaG41AMobC6tOFZmuz2FXVxcrKGhQXvh3ua/AgICXl5eHS87Y2VGIa5+TODRo0fa2tr+/v7Hjh17+fJlUVFRm6vlampqiETiunXr2rzLA/x6U2HX1dWlp6fHxsa6uLjo6+srkHAESw3DBdbjDvvOeLHSu3hrEGVXt8U0MwH9Krc53lms5WoqS5AfPnx4QkJCi/fRjY2NCxYscHV1Xb9+fWt9tnnzZpp6i46OhoEAzjT+wMBAWufCeztWdVthoyhaXV1dVlbWpZUDZWVlV69eXb58+bBhwwgEgryaorKtgekGx6n3l7p/jvb9Gd/DX7+dNFjKLq8fW6yP+hNHaRHJxFkuLqmpqRy4DKaXWwEo7F4GzonJtaewURS9cuWKvb39/yULbU8SPj4+cXFxBQUFZWVlERERDAYjLy8PK/Q5sVJ5K0+XLl0aN25cWlpap/sZ5+fnGxgYfPr0ibcA/FsaditsBEE+fPiwf/9+f3//IUOGyJNwxBGaBsGjxhzwcnm33rdiG3v76bbGv/0bEp3Slw9ZZCOnjbeysrp//z4zI2QUCsXc3ByDwQwcOLC947T+xQpXfUSANqdr8uTJRUVFfZQFdiXbE4XNZJ4aGhrS09OjoqLs7e3V1dXlVBVVHQZbxs38W1VHNY9St9Wg2OroW7HN5nSQmuOQgQQ5Hx+fL1++MFkWnvQGCpsnq7VrhepAYaMoWlpa+uTJk3Pnzh07duzChQs3b9588ODB8+fPt2zZIiwsbGZmxpOzXbtGEHyzk0BGRsbQoUOZnIyYmZkZFBTUpbEfduad9XGzVWF///591apVhoaGQkJCQpIiGtNN7FJDPb/FBFJ7NPeDJT16IHX31PtLB+ooampqMjOpOi8vjzaZ1cvLizP3qWC9cXBhjMbGxpKSkjdv3uS9l07sVtgvXrzw8vJSUVHh5+eX0cQZLbaZen+pb0U8S5pbDyPxLY8fvc9DZIDo1KlT+3PrA4XNhc8kVme5Y4VNSw1BEAqFwvimtaSkRFFRcdWqVdXV1azOEcQHBH4RePPmjZ2d3Y4dOzodvaYFqKmp4e3VNuxQ2EVFRUePHg0ICDAwMJBTxqk5Dhm9z3Pm6zXexVs5QVvTO/tA6i7H24ul1eTNzc3Pnz/f3sxsmiWcOXNGSEhIRETk4sWL8LaaMx8oFApFVVXV3t6+4z3gOTPzneaKHQobQZC3b99u3brVzs5OWVlZXo+o529ldzHULS+yT94v0dtm6wu/uh3jDvvKKMv7+Ph8/vyZmfdOnSLlOg+gsLmuylifYWYUdutUs7Ozra2tWxwk29obuACBbhNITU01MDCIjIxkUl53OyEuCshChV1fX//48eP58+erqavJ6xE1Zg0btdvdLXejf31i6/6yD10Cqbtd3q2bcCbYaOkEOUOS2pTBalOGDJCWCgkJ6WCr/uDgYAwGY2lpWVhYyEX126+yWlxcTCAQeHJXTRRFWaiwEQQpKio6d+7c9OnT8SQCwULdcP442/NzPAs3s3stRE8afiCye+rDcDkDopKS0tGjR3nvNUWnrRUUdqeIeN9DNxR2bW1tQEDA0aNHGUe1eZ8UlLAXCTx79szU1PTkyZOMO/H1YvocmlTPFTaVSn3+/PnSpUsHDx4sT1RQtTe0+TPQszAmoIm9yxa72lX71++Y8XKV1TZn8jhdMdwAfsHmXXixWOzY3719f8ZbbXOWIsv6+vq2KbIbGxt1dHQwGMz8+fP75+AZh5rvf7P19u1bR0dHHtsGm15Elijs2tray5cvu7i4qKioSCnIKJqpTbmzmO3LFlk6e9v5TYTGzKHSsjKHDh3qbyIbFDa9OfTfC2YU9rNnzxYuXBgbG3v27NmUlJTp06dv2LCh47e0/RcolLzHBKqrq62trQ8ePNjfnsidkuu2wqYNg6WkpDg4OCgQccoT9c03O01/vtK/tg+WQzGjtr1LtmrMNMHy89GENe1fMYUBHl82BaFJgcjuSWlhEgpSYWFhrR9E+fn5tEnYjId9dsoWPLCKAIIgtbW1Ne1/aEMz1dXVX7584dVhmp4o7MbGxqysrMTExOHDh8sp43S8LYavc5AfTFKbauTfwFmvmJhpy/4124etdZAaKH3mzBlere422w4o7Dax9C9HZhQ2bcU3BoMRFRUVFxd3dXWFTfr6l5X0bmnPnTtnaWkJNtaaevcUdlNTU1JS0qhRo2RkZKRU5MYe9Grea4+lI1XsiG1GxipxRSlGha1ko0f/SRBI3T144XgJSYk7d+60AJWbmztt2rQJEya03iS7hU/4yg4CRUVF06ZNG9fOZ+LEicXFxexIl6Pi7LbCLikpWbhwoa6urrCwMHmszuTrC2a8XEUcqckvwI+3UPerSmBHW2N3nL4/43HDVHV1dftD1dPtEBQ2HUX/vWBGYa9YscL1n8/mzZu/f//er36J9l/j6IuS19XV2djY/PHHH/B+vzX+rirsurq6S5cuTZ06VYGIUzRVM1lhNysrgmuGwSi7hq62xzKMYg9b68C4XaDrx43SmgoTJkxoMRTa2NhYVFT0/fv31sPbrZGCC8sJpKWl0bZzbX2QAhaLXbRoUX+ol64qbAqFkpOTs2fPHlNTU1kVnKrD4FFJ7h5fN3mXbFVzHMIvyI/FYqXV5b1LuOC3cZt6fULybBFJ0X719hsUNsufLdwXITMKm/tKBTnmWgLnzp2zsrLqz3s8dVB1TCpsBEEyMjJHdMVKAAAgAElEQVQ2b95sZWUlq6SgFzBi2uNlzdM3OWDfvTZ73zYd3fOj8BbqMtqKAqJCWCxWQERwRubqFj6tTwQIiQmPGDHi/fv3HXCDW71JYM6cOZaWluHh4evXr4/857NhwwYjI6M5c+bw6sTrFoSZV9j19fWXL1+eMmUKHo+XNyANXz/FNWdD84JjZLdveZzGDBO+f+ZKCYgIuudHtWgC3PI1oGmX/uyRkpKSmzZtanP5RAuAPPAVFDYPVGJPiwAKu6cEITzrCDQ2Ntra2vLeAW+sItSpwqZSqY8ePfL09MQRFXEmKia/2bm8WxfQtJNbumFaPgOpu6bcWYK3UFey1nXL3WgRN1NEWpw4SsuvuuUr8oDGnRozh2Kx2BkzZsCiWFaZWU/iqays9PX1bfGe8/v37yEhIQsXLmxxKmdPEuLwsMwo7JKSktOnT48ZM0aWrKAfMML+SpjX9830tzS+FfFaLsPp8po2XWrK7cXc1ZYZc+v+JVpaXV5YWHjnzp394RUlKGwOb6S9kT1Q2L1BGdJgjsCNGzdUVVVzc3OZ897vfHWssOvq6uLj41VUVEQHilvFO7t+3BjEYTuEMHa3HVxPubVIRgsnSZKZkbEqCE3yq91utc3ZNHIqXXwwhrW/EiYmLykmJpaent7vDILzClxZWfn69esW+VqwYIGnp+fnz59buPPw104V9tmzZ8ePHy8tLS03iGiXGtr6CMbxJwIERAQZ1yFgsVjrI76Mxs9110bhE/n4+AYPHtwfltmAwubhBs5s0UBhM0sK/LGZAIVC8fb2HjZsGEwRaY90ewq7pKQkISHB3NxcnojTmjXM8e4S+opAruuDXd6vxw1VGaAsO+6wL327X/+a7e2tzvSrTtDztRQQFgwODubh4zzbMwlOc0cQpMXw5J9//hkSEpKXl9fCndNyztr8dKCws7Oz582bRyQT5Q3JRuETXd6vb/OXsE953MSzwTreFgKi/+ps08ipXNeiGTM848VKaXUFQUHBU6dOsRY4B8YGCpsDK6W3swQKu7eJQ3rtEMjNzdXW1ra2tobX/e0QQlsobARBvn79mpSUpK+vLz+IPGSxzbSH4Zx2ZAxj/9rp9ay3a+WNlFSnDHHOiqDL605D+ZbF4S3UJSUlX7x40R46cO8TAikpKYGBgf1qBwka59YKu6Gh4cmTJ0uWLCGSiUrj9ewuhv59bGon+9B7/9giTpAevNDaNHIqaZyu4byx3LWaokXjDaTutvkzQFRW3NTUlOenDIHC7pNnDmclCgqbs+qjH+fmzp07CgoKZDK556vWmpqaeHK7G0aF/f79+5CQEBUVFTltgsXWGZ6Fm7m66w1Ck2a+XtN8aqOTsVfRlhYdc6dfxx3x4xcSCA4O7g/7VHDLQ+Ly5cs+Pj7fv3/vOMM82VoZFTaFQrl586atra2svCxxpNbElGC/qm2dmjTNg+25EDlDUvM4N5LkV53QLMqR3UyG5VBvlF263hb8/Pxnzpzp2DC4/S4obG6vQRbkHxQ2CyBCFKwgcPfuXRwOh8FgVFRUZs2aNXfu3Pnz58+ZM8fLy8vJyWnmzJnLli17+fIlM9K5qKjI09Nz27Ztr1694qVja2gKOzs7e82aNSQlstJ4vTEHvdw/R3N7p+vfkDjxbLCsPkFj1rD2ZoN0LBd8K+JltHB4PP7Zs2fMWAgrDBbiaJdAdXV1QkKCh4dHQUFBu57+uZGQkODt7X38+PGvX7/yTN3RFfaLFy9cXV3liM1b+jjeXeL7Mz4ISerYmBnv6geMMAgeFdDIZYuVGYvQ+trhr0VCEsJTp07l7d/DoLD/aeJc+n9RIZr+EC0pRhGk2yUAhd1tdBCQtQTy8vK0tbVb76HL6GJnZ1ddXc1MupMmTRIQENDW1g4LC7t3715DQwMzoTjcz/Dhw8eOHTtixAhhEeHBC8d7fotp3Xtxo4vNqUAJRSlZfYJb7sZu51/P1xKLxUZGRvaTvcA42VaTkpJMTU2fPXvGTCYzMzNxOJyYmJipqWlcXFxBQQEPzNjOzs7G4/Fubm66urpicpJjDnj512zvsm037ZLVI1gf9etyQM4+T8q/eruUmjyJRPrx4wczFsKlfkBhc3zFIQi6IxadE4AG+/36WzQX/fkTvfsXGjYbGTYY0VJFTI3RP/ajNTXdKwwo7O5xg1AsJ9DU1LR9+3Y8Hs8oqVtcy8nJdfrSmZaxTZs28fE1n1YiKipKIBBGjhwZGxubmZnZ20PaVCr6+iW6ezu6cim6bCF6+ABaVto9dO/fv1dTUxMREZE3II054OVTHtelwTCO7aSdnq6Q0cbJGZImXZ7Xk4kuY3/34RfkHzx4cGFhYfcIQyiWEHj48KGLi8vjx4+bmpoYI7xw4UJOTg6jC+26qalpzJgxtE0zpKSk1NTUZsyYceTIEe4d0qZSqcePH5eQkBAbIK5sa+Bwa1H3Vkc4Z0VIkmRc3q3j2MbbzYwhSVqupvz8/A8fPmxtDzzjAgqbG6qy+AfqMRPhw/76I+DQLZGo6WDEbCiiKPfLUVIMXbYArfjZjfKAwu4GNAjCJgIUCuXVq1dr1651dXV1cnKaNWtWQEDA8uXLIyMjHRwchIWFZWVlmdRPL168kJL6z5nbAgICa9eu7dXtJoq+o+EL0On2aNIONO0iuisB1SCjMxzQL/ldeu9UVlYWHR2tpKIkICKoZKPnmrOB26eF0DvmaQ+XyWgq6PlZNc916dmBOO6fosTkJfn4+FJTU9lknxBtpwSePXvm7Oz88eNHxvkedXV1t27dcnJyKikpaTOGbdu28fM3H1tI/8jKyqalpTFG0mZADnTMzs729vYeqCArICI4/s+AnpxzbpUwizxOpzuD35w9hh2EJlkf9f//QZVr167lxipm0upAYTMJqq+9bdvyr8IWEkAdJqJvX6PlZeil84is1K9bYkLoXze6kVFQ2N2ABkHYTQBBEAqFwvjwLSkpGTx48KhRo5icJdLU1GRqakrvsLFY7Lx583rvPLnGRvTqJXT8SNTHFS0s+KWnEQRdvwoR5EO9XZrbLxOf/Pz8uLg4Y2NjhUHkcYd9FYaQ9f0sm6dycnwPykwOHe8tkVaX1589iiUlCqTuxo/QxGKxixcvZrQcJjCDF9YQyMzM1NHRIZFIQ4cOHfbPx8jISENDQ0JCYvbs2e29QXrz5o2MjAy9tQ4YMODIkSPteWZNXlkdC4Ig9+/fDwgIICuTVewGjfvdRxwv5ZS+gpmG0KafQGQ3eayOeYxTELcvbWzrYeWas0FUVmLChAllZUw9CVldXb0RHyjs3qDMgjT27PxXYUtLoC9f/OqwS0sQDWX6LXTvzm6kBQq7G9AgSO8TyM7O1tDQ+P3335kXT5GRkbSJIrSe++TJk700v5NCQeM3oyQFdJQ5WvTfjRQupCBiQoiIAJr+oGOGNTU1SUlJGhoaA7UUTVZO8vwWE4jsVhyuyhsK2686YeRuNylVuUGhY3wrmN1XoU0hwug4ZIkNFosdN24cTMXu2LrYdHf48OEtpnUxfr106VJ76VIolFGjRtEVtrq6+rt379rzzIHuBQUF8+fPVyDiSGN0rI/4+VUluGSvkyBK90Rhu7xbJ0mUbt62si2FyvWOlF1yg4hEIjErK4sDK5QlWQKFzRKM7I9k7y66jEZIiuiPol9JVlYiWmr0W2hcTDeyAgq7G9AgSO8TiNm82dLSkpmtCeh5u3HjhpiYmICAQGho6OjRo7W1tfPz8+l32Xjx9DGqRkT4sOjJYy1ng1xLQ6Qkmm8dPdRBBurr65csWSIhIaHhPHT60xWBDb92EuAZhT1ih4uIlCjRSsO76xvzdaAtRu/x4OPn09TULC3t5mT3DioFbnVK4Pr16xfb+aSmpnb8BmnlypVYLJZEIkVGRhKJRHd3d27ZF//z588TJ04UFhMx2zSt+djzvyc79Vxhjz8ZqGCk5Fse14HBc/UtNUcjAQGBK1eu9NLAR6fmy2oPoLBZTZRN8bWnsKur/6OwYzZ2I31Q2N2ABkHYTaCpqenDhw8FBQW0vXKvXr1qZ2d3+/btFmunOs7Gjx8/lJSUwsLCioqKXrx4YWBg4OzszPaXkvV1qK9b81QQX7d/fwzTM5r8JyIi0Kyw23nj1NDQcP/+fQ8PD1mSgslvdp6FzUPX9H6UNxS2/ZWwAUoDSaO1pj1axlg6ejG7fTHp0lwRaTEJCYmvX7/SkcMFVxC4cOGCgoLCkSNHampqDh8+rKioGBcX16urJrqOqbi4+ODBgxYWFvJ6xHGHfRmnXPdcYRuGjdPxMg9o4ql9+hib9uBF47FYbHR0NLf8lOqqgYDC7iqxPvLfnsKuqUZ0GMawIyO6kT9Q2N2ABkHYTWDJkiUKCgoEAsHAwMDU1HTkyJFM7oTdImPnz5+nj5xlZGTQRHZ+fj4bR00O7kEkxRCjQeiH7JYD2CiKxm2mvXRqXvXY6vPmzZvp06fLyMqo2Bo4PV7W+ixlHlDYk1LnSpIHGi2b6F3C+rMznN9ESKvJY7FY3t6joJXh8IJDeXl5Wloabe41hUKhi2zOlF9UKjU1NdXY2FiKOHDQvLHun6Na/FbsocL2Lt4qo42bkDybUZLy2PXoPR5YPuzkyZN59Y0TKGwueTCBwuaSioJssorAihUrXP/5bN68+fv378xPv+4gDzSRra2tffHiRbaI7G9fEUPt5iHqHXEoldpGTmb7/lLYZ08x3q2trU1MTFRSVlJzNLK/Pt+3ou21jFytsH3K4oavnyJJkjFZNcmvtut7AzMxG9W3Il7BWBmLxZ44cYIRL1xzHQG6yHZ3d29zj7++KhGFQsnMzAwJCZEjKhgtm+jybl2bx8H0RGEHIruHrpokrSHvWcgjG963+dtg0uW5AiKCRCLx27dvfVWbbE0XFDZb8bIuclDYrGMJMfVzAhkZGba2tkQikS0iO3odIiSAKOHRz21N+K6sRAx1finsjF+HcdTV1V2/ft3BwWGgGm70Xg/GF82tuyXuVdjepbFq04yFpUSHrZ3sV7ejddFY4hKI7FadNIiPny8+Pr6f2zkPFJ8mskkkkpmZGYeI7MLCwjlz5uBwOIKlxpS/FgU07WrPbnuisN1yN8rqEbRchrep3dtLkevcpz/7TVhKlI+P7/379zxgrq2LAAq7NROOdAGFzZHVApniUgJfv361tbVl/cLHkmLUdEizgHacjNbXtwEnMwMh4JpHuI310MLmYRsqlbpx40YcDieBl550aV4Qpd0Om9Z9cq/CNl5hKyIlarF5Ogt3DmlTUugHjBAQFly/fn0b/MGJ2wg0NjZeuHCBRCJxwsLHsrIyJycnEQlRw5AxzafAdHj4eU8U9sSzIUISIlYJs9q0cJ5xdHm/XlRWAovFMnn2J7cZLwoKm0uqDBQ2l1QUZJNbCNDnZLNs4SOCoIlxiMLAZgG9Z0cbM7BRFD11vHmrPj4sumYZWlVVXl6+fPlyeSJOdbLh5GvzmRmv4kqFjSRZH/WTIEibRU3zq9zWYroqy+WCyQpbQTGhFStWcIspQj47JtDY2Eifk92HCx+zs7OnTJkyUB039qC3T1lcp2bcE4VttHSCoJjQ9Kfd30ub5c2KHRF6fN0kpiCJxWLv37/fsQ1w6V1Q2FxScYz7YRNx/25Q0GIvkQ1rulEeWOnYDWgQhAcI0EU2axY+vs9GLU1+zQCZPB71dG7jb+igZg8EBfTF0/THj0eMGKEwmDzp0lz/2h1MHirBdQo7ENk99ncfCYK0xZbpgQ2J7OinW8RpuXWGkKTIkiVLeMBEoQg0AvQ52XFxcb2/8PHTp0+rVq1SVVNVm2o06+1aJk8e7bbCDqjbIatP0A8Y0d5ijBYGz71ffcrixPHNx+7eunWLJ00dFDaXVGvCVlrP3fyvtCT6/Z9lAWUliIYK/Ra6dCGKIl0tEijsrhID/zxDgJULH3clIKKCzY3Rdjz65CH64knLvx2xCF4O4cN+GmkR6u1FIBP1/Kw8Pkd3OhjG2INyl8L2LIgZFDJaAi9lGe9M39KbsTjsuB65y014gGh4eDjPWCkUBEVRusjuzYWPVCr13LlzOjo6A7UVLeOd/Sq7cDRStxW2490lA1Rkpz1e3qUnAzuaErvj9KtKkCBIY7HYO3fu8KSRg8Lmhmot/oG6OtFldPMr5jMn0abG5omeF1MQOel/b40bhX772vbr6fYLmpWVRVBUfPPmTfte4A4Q4FkCrFn4iCCosyOtJaJJbU0RKStDZ0xGhASofNiZ0hIKQ5TGHPQOqO3ygj8uUtgeX6JJo7XEcQNGJrowMwGGVd05TWGvW7eOZ022vxaslxc+VlRULF++XI6oMCxisseX6E7XSLQw4G4rbJPf7NSmGXVJzbdImlu+0hX206dPedKoQWFzfLUiCOrvjkiJ/Suj/6+wDbXQh/fQwwfQ4YaM7oikKOrtglZW/Fuqujr0Sip64cy/f4/uoRTKvx5QNCsry0dVKfftW0ZHuAYC/YcACxY+Vleh+pq/FHb6ozbQ3bmFapARPuwXAb4RM0yc30R0tcOm9Zpco7Apu3S9LcQVpayP+gWwbeeQNpWE1TZnYUmRLVu2tFEL4MTlBHpt4WNDQ8OSJUtExUXNop0C6rozu6nbCps4UtNsk1Obts1jjr4/4yX+niXylkflByhsbnjefMlH83Jb/lVXoaUl6Ke8lu5f8v8joF88Q62tULuxv/5GDGsW3Mh/ZpJ8un71oyq58lk6N7CAPAIBthCgz8nu5sLHjx8QJXyzwiYo0DYJaZnLdSsRIT6ED3tl2hCfT5Hdfv/LFQo7kLrbMt5ZHC81ep+nf3131ElPlITpBkchceGkpKSWVQDfeYJALyx8fPDggYODgxxRwSxqare3vumewvYo2CRBknG8t7QnTYBbwnr/2CKOGyAkJJSf39beptxvrqCwub8OOy5B2kX0zWu06Hvz4si0i39PL2n6T4iyUuqsqVRRIWTZIrTpv7f+4w++AAEeJ0AX2d1Z+Jj+EMHJNivssaPQ6qoWpPLu3m5Qbx7ArlGTjcrd2JP+j/MVdkDjTovN0yXwUmMPeQd0tvlgT1C0F3ZQ6BgBEcEzZ860qAX4yjME6HOyWb7wsampac+ePQQykTRGe9LleR1sd92e+dHdu6ewrY/5yxuRfcri6PHw8IVr7kZROQl1dfXCwkKeMU7GgoDCZqTBi9f1dc0j1nW16IWz6KXzaGNjy0LuT0JlpBA+PoSoiObw5q7vLYsM34FAOwS6v/DxWhoiJdGssIP8GY9ypFAohw4d2qeqROHDUmRELh73C6Hu7kmXyeEK2+Xdeg0nYwmCtPVRv+5Ng+kJnOawyG6Vv0+cgVPT27FxHnGmi2wWLnysqKgICwsbSJYftcfdt6Kn20p2T2FrzBpmOH8ck9uV9LSxMHFIKluToJ04M2nSJDg1nUeaZT8txuUL6JkTaE1Ny+I3NaG21s3y+u8/dFdC13ciaRklfAcCXE0gJSUFh8N1+TCam9cQGcnmVcjrVzEW//z58zqKuHd/zw95tc5heTtnoTPfjXGywvav36HmOIRPgN/kN7veXNrISM+vdrvicFUsFsshRwAyGgNcs5ZAY2PjokWLBAUFWXIYDYVCWbZsmai46KjdbgFNOxmNqnvX3VDY3qWx0mryNqdndy9Frgs1+foCQTGh0NDQyspK1toGh8QGY9gcUhHszMbb1+j55OY31/+dft2c5NPHf58w90thI9ajUR41dHbyhbh5ikB9fX1KSoqBgYGzs3MX5mQ/f4IoNu/Eh8ZspOEoLy/fvn27hqbmcrJMgyD2vZ9l5LeYYKRHA9hBaBLHKuyAxp3DIiZLEKWHrZnsVbSlrzp7j8/Rsnp4SUnJgoICnrJLKExbBAoLCxctWqSoqBgXF9eTw2iysrLc3NzkiQpm0dP8qhNYYr3dUNijktwlSTKuH3s0kYwlme+dSMafCOAT4I+Pj6+rq2urerneDRQ211dhJwX4kI2mnELr/zZfKhXNePavzqZS0UAf+gB284WIEHouGYaxO0EKt/sBgS7Pya6qREyaT5NBg/3Rpqb8/HxbW1sJuQHB43UriJIfvMxXlsb2sNMKpexa82PrYGNlfT9L35/xPYyNtcH9GxJNVtpJEGUmng1myfhft7M39UG4BF5KV1e3C7+O+oE983ARe77w8fr165qamgpDlGxOBbHQeruqsL1+bFUcpqI80aD5/Km+nr/ROxkwjZoqICBw8+ZNKpXKkyYKCpsnq/WfQn380Lx5X+ym5ukfifHo8kXo5Qv/3Gs1gE2bK2I9Gv1WACL7X0pw1V8JdHlO9p5ERE4Kwcl+ObR/jImJrS7+3NQh5UbE9HWTV3RREIdSdq0u3pqQufrw5Xk3d7u9WG2f62dZaqlepYffJyVqzGEK26cs1ih8oiR5oN3F0D6fP2p9zF9ARNDGxqb3T/7rrw2l78tNn5Pd1YWPCIL88ccfeBLBeLmtZ2EMa623qwrbJjlISELEKsE5CEnqHYHb56noeJorKSnx8FkcoLD7/unAxhzs3Yn4eiHenr/+gvzR4h+/kmtqajmATVPYIkLoyqUwV4SNlQJRcw+Brh1GU1+HXkzJNxuaKy2WpS6X4zTk2Wq7fY+Xz2tkak7nqpKt++4t/Wu7yycv8zILtSp9Qj15IFVM6D9vmfj4ngoJOgSN5JwxbKf05QN1FAcoDbRPm8dagdK97n/oqklYLHb27NlI60lx3GN4kNOuEqCLbOYXPtbV1W3evFmOqDBihws79pTsqsLW8TIXU5B0eb++e5bPdaECkd0KJsojR4788eMfWdLVWud4/6CwOb6K2JTBu3+hzcet/zMDm+ECxcujT9o6MoNNOYFogQAHE+jSYTQ3b94caaDvZmuw59HyyMKYUCa2DQlGdh968tvLjY7fZw6t11Jos0kyOr4TE3INHsUhCtu3LI44QoNPgH9komvf7BzS6mW6ppspFouNiYnhYJuCrLGFQJcWPlZVVYWHh8vIyBj/ZuffwJYt27uksAMbdspoK+r7W3FI0+4Fvd58oCNJxsXFpaGhgS0GwQGRgsLmgEro/SyUlaLuMxExEcaem/EaXbEU9sbu/WqBFDmTAH1OdgdTexEEOXbsmJaWloKR8oyMVcwcKDOvcefBO0vezRldrYdvkhVDBFr+3G1QlCwdpvppypBXIaMexDidT56999lvZibKRv4cMQ/bv2b7oNAxA1TkJp6bwymyANmNG66CxWJhM2zObErszlVhYeHiBQsUcbiOFz7W1tYuXLhwgNQAHU9zrx9b2aQmu6SwZ7xcLUGQnnRpHof8UmUTE8ZoZ71dKzJQfMWKFTz8ugkUNrubPEfGT98Dm2HomlFhw97YHFltkKk+I0AX2W0eRoMgyN69exWIOF1vc5f36zuV1wtrdxy8uyTH36pRQZKx3dWqyn6eZPgwyvHCqaADj5ZFfoleWRa3oD6RcQcSDtlLxK86QT9opJSa/JQ7ixl7zb699vq+WRw3QEJC4sOHD31mK5BwnxJoqqx4Pm7kKmmpa3GxFNoS///mp6qqKigoSFZDcewBL7b+MuySwrbYMp00Rtv7R59twtP7LXfCmWB+IYHk5OT/1g9PfQOFzVPVyWxhXmeid279+rMcTu/j0d+W/Ov+nTfPWGIWEfgDAv8l0N7CRwRBdu7cKUdQGL3HI6Cu800A1hVsatbWOEnaoDVFTKhwnM7TtQ4nL8/bULBpUe2OoA539OMEhe1ZGKPrZyWtoTD1QXinPyd6s+d2uLFQUEx45syZHbxt+G+twjdeJBC5lsrHVyUpQR0/Bl23Er2YghZ+o22iVVlZ6ePjI6dLcEpfzu5lA8wr7EDqbvwITbPoaRzVmtjdck1WThIREfn48SMvmuCvMoHC5uHKZa5oHs7/KuxTx5kLA76AQH8k0HrhI5VKbZbXRIXmE8KbdnXaJyVmrCoZo0UV/DUhpGDSoMN/LQ6v3MY4St1xJH2usO2vzJMfQpbRxk17vJzTBIH5ZicBgeZRsaampv5ooFBmGoEnjxCcLL1fQyTFEF0NNNAb3Z+029tDRZ80/fnKXjBd5hW2c1aEBF5q5qs1Hbd9HrtLGq1tZGT08+dPHjZbUNg8XLnMFQ0UNnOcwBcQQFGUceEjgiAHDhwgEAiD51szs1jqQMbqYlsDesf/xWXYps/RXe01+1Zhu3+OljMgCkuK2JwOYvcQYFfJBKFJOh5mRCIxKysLbLVfE6iuQg106Q2N8aJQSOCRlcaJvxaHUjr/PdwNC2QMwrzCtj7iJ2dI8imLYwzO29d+VQmS5IEzZszg7R/DoLB58EFEpVJramp+/vz548ePL1++5Obmfvjw4d27d2/evHn9+nVGRsazZ8+ePHny+PHjBw8elE8aT38A5UStf/jw4ePHj588efL8+fPMzMzXr1+/ffv23bt3OTk5eXl53759Ky4urqioqK+v5+HVCd22ie/fv0dHRzs5OdnY2MTHx9OXSJeUlOzdu3fGjBmjRo2aNm1aSkoKbz9Wug2QKwLS52Tv2LGDTCaTx+p6fN3UaXd4Ii2sbJQmVbR59716nNSL1ZNiciOZH7qmx9+HCtunPE5r1jBZPcLEs8H+NdvpWeKQi4CmXfKDyWPGjCkuLuYKQ4JMsosAgqBB/z1MjWHFEVVUsGScTnTXf9x21c6ZV9gGwaO0PMxYeNhNV7Pa+/5nZKwSlhZbt24dbwsJUNjsauMsjBdBkMrKyi9fvrx9+/bp06c3btw4c+bM/v37Y2Nj165du3DhQn9//5kzZ06aNGn06NHGxsZaWlpqamoqKipkMplAIOCbPwQ8gUggkggkMoGsTCCrEJXUiMrqRBWNWwr/vk1brKRMVNYgKqsRlVQJZJVmn0QynkjCE4jNMeDxRCJRSUlJRUVFXV1dV1fX1NR0zJgx9vb2bm5uwcHBy5YtW7duXXx8/OHDhy9cuHDr1q309PR37/u8jYQAACAASURBVN59//69rq6OtxsSiqJfvnwJCgpyc3OTkpLCYDBSUlLfvn2jUCjnzp0zMTFRVFTk5+fH/P0ZMGBARkYGCy0EouplAhkZGWpqaiKiIhozTdzyIjvtn06mzq1T/9XQqnRwh28vntfE1CbZrWPuK4XtUxqr4WQsN4g48+XqXnjD3rrgnbo4Z0WIyIivXLmS5x81vWztXJnc+bPNk0MYhDX9upYs+/u9pcFM7KTZqcl17IFJhe1XuU1aXcHmVFDHsfHY3VFJ7vwC/Pfv3+dK62I606CwmUbFTo/19fVfv37NyMi4du3a6dOn9+zZs3bt2tmzZ0+ZMmXEiBEGBgaqqqoEAkFREY8nKRFVtZW0B6sbWuiaWg8ePcXUzn3U9Nk2nksmBayeGho1K3yHV8ShoJjTcxMuLUy6ufzwk7XJ2etSPqxPyVl/LmfD+Y8bL+RuvJAXefFTZGp+1KXP+RMd6Y+eq2t2RqV+jkzNj7z4aeOFvA3nczec+7j+XM76lA/rzr5fc/J1+MGHC5NuhG676B91wmPVvhmL4hxDI+38V41znW/l6D/UxnnwSAed4eNU9IeRNQ2IKpoEsoqiIp5MJqurqxsaGo4ePXrWrFkLFiyIiYnZt29fcnLynTt33r59W1JS0tTUxNX9IoVCiYiIyMnJaWhoGDFiBAaDweFw58+f9/T0DAkJuXv37ufPn9PS0jQ0NGgi+88//2SnQUHc7CKAIEhVVVVqaioOjxPHDZDRVOj0IMPfby+u1fi10XW5idLOl6u7MXRN71/7RGHPyl6rNmWI/BCy8+s1nCmvg9Ck0fs8+AX47969y666h3i5iEBJMaKnSe/aGC9OXZoXwn55HYQmMamw7a+ESanKeX6Lobfx/nChMd1EQ0OD5183gcLu1WdGQ0NDfn7+s2fP0tLS9uzZs3TpUicnJ1NTU01NTSKRqEggEVW1yFqG6oMtB49ysJziZ+u7Yvr8LZ6r94duu7jiyJN1Z99tvJAXnVaw5UZx/O2KhPs1iY8bdz1Fdj9Du/33bcos+tPn/tbj3Y5n9zN01xNq4qOGhPs1sX+Vb75WFH3568aLn9Ymv12y/25QzGn3lXunzdtk7bZguK2bnvkEtUFmZE1DgrK6Ip6gpKSkpaVlZWXl7e29fv36Y8eOXb9+PSMjo7i4mEql9moNdTexvLy869evIwjy/v17moyWlpZetGhRZmZmfX09Ldb/33V1dRUUFMRgMOnp6d1NCsL1EoHq6up3797dv38/JSUlPj4+NDR04sSJhoaGampqA6QGDF5o7fR4uYqdgSRRugORnfBqTeVgIsLHRxUR/Dxr6LY3ET2R10FoUm8rbCTJ+oivlJoczkR51tu1He9z0rfKQGO6saamZklJSS/ZByTDMQQQBCkpKXn58uWlS5cOHTq0ceNGHx+fVCUCvWtjvMgKGxteua0XbJVJhW04b5zGrGEBzJ382gvZ7oUkZr1bJ0mS8fb25vnZkqCw2f6QoFKpBQUFV69ejYiImDx5somJiZqamoyMDB8fHz+/AE5Jy8DSdoxzqMeqvfN3Xltx5OnaM9nRl78m3Kve3TPpzKRWZqHCZjLFnemU2FtlUZc+R5x+s/Tgg9D4C05hMSOdZuuaWksOlMdisYKCgnJychoaGpaWlh4eHomJibdv3+bwg1WRvz8oip4+fVpMTAyDwTg5OZWWljKaV0NDw+jRo7FYrIyMTEFBAeMtuOYQArW1tQ8ePNi7d+/8+fOtra0NDAxIJJKYmBgWixUSEVXWHTrUxlmOqCqrT/AoaJ577fl1k4qdwUBtRff8qNY9U3j19nxvc9qufN8mGWzNjw7pcCe+1jG0dullhT0zc/UAFdkB5IFTbi3iZHntUxYnpSbv5OTU2NjIIbYE2WA3gZKSktTU1JiYGG9vbysrK01NTSkpKT4+PiwWKyEt95uuIUVQkFFb064pkiK39njMYf8wNjMKO5C6W8FYyTLeuXVL52EX042OQhLCSUlJ7LaQPo8fFDaLq4BCoXz58uXJkyfnz5/fvHmzl5fXsGHDVFVVm+dCK6mp6A8bMnrKyOmzp4RsCNx0auWxF5Gp+ZuvfY+7/TPxUUPvSOoWOrj3FXaLDOx6imx/UBv7V3nM1cIN5z8u3nfXc/X+yUERVo7+umbjyZqDFAnNs8nV1dWtra3DwsLi4+OTk5NfvHhRXl7OgRNL5s+fT5sHkpqa2iJ7WVlZqqqqGAzGysqqurqaxZYH0XWdQH19/fv3769cuXLgwIHVq1c7OTnp6+sTCEQcnkhQ1dYYYjlswqzx7otmLo6fm3ApIvlt9OWvW24Uh+644HhmGX0njZkvV8kZELWch/qU/2crgDXfN7+bP65JTgLh46slSe9/tJwl76Z7U2F7fotRstbFm6s73lkS2NDNieO9IxRG7/EQlhLdsmVLi0bXdaOAEBxK4OfPnxkZGWfPnk1ISFiwYIGNjY2GhoYiHq9IUiFpGOgOt7ac4jd1bpTvhiOL9t5efy7nyO/3G/D4fxU2w5mptRpyR24sZPd2IswobPur88UVpZzSl/dOM+GEVHx/xuNHaAoLC798+ZJDTY112QKF3VOWNTU1L1++PHnyZFRUlI+Pj7Gx8a/5Hmq6usOtR0wLmrl4W0jsud+OPY+69Dn2Vlni48Y+UdItdC39a58rbHpOWlzseook3K/dcv3HhvO5yw8/CYo57TB77bCJLlpDR5M0DHB4ooqKytixY4OCgrZs2ZKWlpaXl0ehUHpanT0LX1VVRZsi0uYMs8TERNoUkbVr14IO6Bnp7oRGEKS4uPjBgwf79u1btmzZtGnTdHR0FPEEgoqmqsFww5GTx7sv8ly9P/zQww3ncjZd+RZ/p3LnE0oLs2yeDfUUiX9TsqjmDL27oots9/womvIOr4jP8zSjijUPoTUOlDh9MZQl8rrXZokEIrunPVlBGqNNsNJwy90YhCTRC8uBF97FWxWHq4qJi2dnZ3fHMiAM5xGgUCj5+fnXrl2Li4sLCQmxtrZWVVVVxBNI6vqaxiOH2TjbB64JiD656sTLv0epfiTcr2kxYTLpCeWHtT3Cx9ckJXX5cPC1fZ71av8u669Tlb2fMOs3dm6Q16nC9q/ZrmJrgBuqwtajJTmtwdpdDBWRFrO0tKyqquI8u2NxjkBhdxloQ0PDmzdvTp48uXbt2hkzZmhpaeHwBJLmID2z8VaOfrPCdyzZf2/DuY8xV7+3bvOte+s+d+FYhd0mmZ3plG33qjZfL1p39v2cuAuTZ68zt/fUHjoGr6RBIBBMTEzc3d2jo6OvXr1aUFBApSJdrt2eBUhLSxMREcFgMCEhIS3kPpVKHTt2LAaDERISgo1Eeoa5C6ErKioeP35Mn/WhrKysSCQ3v0oa42jtttBn3R8rj2dsSiuI/at8B9MvkYJjU2Ysio17WrKs/EowspfWgdFE9kBtRbuLoQtqtr9eaE0VaZbXFHGhqwe8WDha1gtj2IHU3SN2uIjjpYmjtd0+db5TSp934TYnA4UkhG1sbGpra7tgHOCVkwggCFJYWHj9+vWYmBhPT89hw4YRiES8krqWySgzO4/JQRHBsSlrz2Rvvla07W7VzvQ2fvq27jLu/pZQLCR40nNe/Ov8JdXHk16uKnAYTB/VpooJfvQyW1USyyYD7lRhO9xaJCYvaRQ+kWNXD7ODjH6AFRaLjY6O7g/DTKCwmX3G0Nr/iRMnZsycqaurKyoqisViB+LIo2eEzIk9v+Z0VuzN0l3MNfvWD4I+dOEuhd0a1K4nlM3Xi5YfTndfuddw5GQJqYFYPj5ZWdnhw4cvWLDg/Pnzvbnyac2aNe1tFVJYWIjD4TAYjK6uLhzpzGyr666/xsbGjIyM2NjY8ePHKysrCwgI8PMLKOkYOwSvW5h0c+OFvO0PaluMeLU2rfZcXJftFJOUdgnfsT2jYmXprRBkH60fsk0JEccNGKit+MdO1yb55skhCB/fJ9dh4dUJLOyoekFhT723VBw3QGEwafqz31iYc/ZFNSh0DBaL5fm9dbvbGjg9XHl5+aVLlxYvXmxmZiYvL8/Hxyc+QMbA0tbtt93Lfn8cc/X733q6Owv69+664o4nkIkqy35/tPX91wUNJ3a9jqjVxf0rskUE0jc5dXvrzI5NulOFbR7jxMfPZ3cxtON4eOmuf33iQO3mjWufPXvG6XbJivyBwu6EYnl5+e3btzdt2jRx4kR19b83vtAePHyii/OShIVJt9afy4n7q3zXE2p7nTHnu3O7wqYTTnzUsPla0fqUD3O3X7bzX6lvMRGvrIFTVNTR0fH29j548OCrV69qamrY97uZSqWOGjUKg8EQicScnJwWhpWamkob3vbw8OD5BdQtyt47XxEE+fLly/nz55cuXWpmZkYikXAEsvpgi1HTg33WH/57mtaXhHvV3RbWdEuLu/3TxnOJDI7ssXJP/OOytd+eBlObRbZ/faJtSsjIIeRPxIG0LrzIRm/Xy9WsXSDIboXt+nGjopmqko3ejBcrmTkHvs+7/4C6HXKGJGFh4YcPH/aOpUEqPSdQUlLy+PHjP/74w8/PT09PT1FRUVFJXc/MxtZ3eWhC6rqz7zZf+77jUX0PZ1TuelC7bN9tffMJSjrGSw7di8v6sbL08vlTsxvwUnSR3UCQOnsmeA4bjnjsVGGrTjaUVpNvc5F0nzcrNmXA6ekKYSnRadOmdWnkq6mpKS8vjxsXMYPCbuNZUVZWdv369VWrVtFUNY6orDNs7ESfZf5RJ1b9mbnlRvHO9CZ6d8vtFzyjsFtUxPYHtdFpBb8de+G99nfLKb7KusaKeIKGhoajo+POnTszMjLoBy62YQHdcsrKyqJtEZOQkFBXV9cijsDAQNrwdkpKSotb8LXbBBAEyc/PP336dHBw8LBhw0gkEkFFa8hoR6ewzfN3Xmv+AXy7gh0/gHc8avCKODgQr6Rrar1wz42o3OzQpt9pfdLZfZ5NkiIIH99bP6uN3zb3cG++1v0cWxW2y/v1uKEqKnaDPAu4ZnfeydcXCIoLL126tD9M6+x2S+GEgLW1tZmZmUlJSU5OTioqKgp4opL2EPPJ3p5rDvx25Fn05S8JD2p7KKlb9AK0r7G3ysa6hA1UVJroHb7h8vu1hffOng2tJzGIbJzk+VOBYazeL69jhe2eHyWOlxq509W/PrF1M+dVF+MVtgo4hcePHzO/D29lZaWTk5OiomJ8fDwnmHGX8gAK+xeu+vr69PT0PXv2+Pj4NI9Vk1QMLG0neIcHxpzeeCF3GyuGvtps/H3uyKsKmxHszieUrTdLV5146bvhyDjX+WqDzHB44tChQ4ODg3///ffc3FzmW3sHrWvr1q1YLFZfX//jx48tRsrLysqUlZUxGMyIESOKioo6iARuMUOgvLw8LS1twYIFpqamJBKJqK5raus2ff6WhXtubUorYH5GNaORdPV61xPqkv33DEdOllEgua3YFfMmb3798SA0Kawh8V7cjFs4KatpxvSFjyzsL9mksAOadtpfnidvRFadMsSzcDMLM8zuqHR9LXV0dd+/f9+i0TFjSOCH3QRov4GPHj3q6ur698JioqrBsDHOc0Pizq9P+bD1Zkmbi4m72hg79b/jYb37b3vkyepkbaPFB29HfspIPr+gyoRMFRKgDWY3yktm/ma34e8tOFllsR0r7LG/+8gZklw/bmRVcpwfj29FvIwWzt/fn35GBDPml5ycLCQkhMFg1q9fz4x/jvLT3xV2fX398+fP169fP3ToUByeqKxrYj7ZKyD6ZOTFT9vZ83u602dBL3voDwqbEemup0jcX+Wr/8ycsTB22ARnspYhgUhycHCIjY29d+9+l1o+Y0umUCgWFhYYDGbRokUt1jiiKJqSkiIkJCQqKnrx4kWYIsLIjflr2mk+J0+eDAkJ0dTUVCSrGo2d5hgatTDpVszVwp2P++a1UsK9ap91f8jiVcbMmhv9KPe30lsh1ANhDYmz05fLGRBpCx/p+/qxpAtkh8IOaNw5dM1kEWkxNSdjr6ItLMln70RCGwiMiIhgyY9k5q0RfHZMoKGh4dGjRwkJCVOnTiWRySQNgxHTAj3XHFh5PCP2Vhk7XisxPuTbvN71hBp16bO128KBOLJnxP5N2e92vN3zwc+KLrIRPr5v9oMiP0ezynQ7Vthq04wHzRvLFROxWAVk/J8BIuIiXZ3NtWzZMgwGIyEhkZWV1bHVceDd/quwKRRKcnKyk5OTuro6v4CAgYVtSOy5Dec+Ns/96sERiVwXtr8pbMYK2vGwbm3yW+fF2+RJ6nx8fCQSycfH5+3bt91oqPn5+XJychgM5sKFC62DL1myBIPBDBky5PPnz63vgkunBCoqKqKjowcPHiwqKioiJjF65pwlB+5vu1u5+1l31j8x2kDPr3c9oXiuOSAqIWXjuSTuQWlE4eNgZE8QmkRf+MjaeZbsUNgTzwYLS4mq2hu6fljPqt60d+KxPuYvKAKb83TagHrVQ05OTlBQkJKSEj8//0BFpekLtqw59bp5m1oO6Fjj71ZaTfWXlJYL2pK8Lat0x9vDPy3U6HOymyd3LbReyKJpGx0obL+qhAEqcjYnA3unmXBIKrreFoaGhuXl5V0yR09PTwwGM3bs2Jqami4F5ATP/U5hUyiU3Nzc48ePT548GU8gEtX1zew8QuLONw+DceFOID1/ZvVnhU2jt/1B3bqUDwHRf450mk1Q1VbX0Jg3b965c+e+fv3K/Htn2pusgQMHttbQTU1NpqamGAwmMDCQ5ZO/OeEhwr48VFdXp6enx8bGDh8+XAFPHjxy8rSwmPBDD5uXF/fKiadMtq/tD2pnLoqTViCajJ8Rfvz+yuLbwche2sLHNg+j6UmHx3KFPf3FyoG6eC3X4a4fN7J2uL0nxWQqLJKk5TpcUVHxyZMnrV8csc8sIeY2CRQWFqampi5atEhTU5OgomXl6Oe74cja5OyE+2yZXc1k22ztLeZqobm9lwJZY+q8TRvvvE2+EFOj9e/uIk3SYjf2eMxtYsH5Sh0o7KkPw8Xx0q45G5iyc5Sjd6NnsgjeJVul1OQmTJhQWFjIfMeKouiECRMwGExCQkKXQrVpor3v2I8Udmlp6dH/sXcd4HA1X5+NEIJVt+u99x4tCRIJKUoQhOidiJqI6L2XJU2aJJJIr6RI0UmX3pskgiDq2vV93n3fzf4Xa7HYFZ59HnPnzsy9d+acOb+ZOaW42MjICAaDwQUllln7BRdVplz7QSFr65ETwczkzCNsXD/n1w0mXf3qklCioL8OjBDk4+P38PC4ffs2KSbM7e3tL168GDXqTWNjIysrKw0NzdWrV2eew6nxiRgM5tWrV8nJyQoKCtxgqJCsxnrfpKjSZzlVvdNhCIUjgKkk8usGfXIuiSjqcMH4nRKLoz42eKL3ug0V4oLREER8JFEsjSxGXoRtVh/OLgYW36Th2DpdXoFHfgK5cjY83ckMZucVV4DC4Nra2nFxcc+fP59XF5lhlkehUFVVVT4+PgICAmAEv5yOyebYw4mXP1OyP4Dsyu71vknsILiwvFbYyapT5/K7Jf5Ef0QBmSrybLb25E6RUIkgbJWdJjyGkk49OVN8BBVV19tlywaCwgTEhYSErK2t9+/f/+PHD1JoVVpaWkBAoLm5mZTClFZm7iPs379/V1VV7dy5U0xMDCEkaWgftKXwZtLVr8jRorVNRcRSad15hD1y4HKrexMvf/bMOKdkYAGG8err66empt67d29y+2SxsbG0tLQiIiItLS2Uxv+U9j5fv34tLS11dHRE8PAKy2ttCMqKPP6E0nasRxLMvzn/qPhbBWezg+CrXLfHPH0Y0HvcDbMLB7LJYvhILoTt3JO77IAjmwhI0mkJudD/DMt7+SBDcdVlSVe/bt17Z5XLDlElXRgcYWdnd+zYsU+fPlHjjhel8SOR98FgMI8ePcrKyjIwMADDeBSWrnNPPRV/8QO12C/l16GiT73QNHXkRgi5pR87depQi6EcmokeqzGCAjK+c1qS9iJ6KiQ9FsJ2GcgHKfJqZVpSeKjUqXw7QV3H1nSwCr+pR3RyWbNL4nGtNZsRwtIiIqLh4eFNTU1EBOvPnz/hcHh0dDSVrpznMsL++fNnYWGhsrIyNxgqrrLUIerAP8Cain1Xjynap6DfNo+wifRqbnVf5Mmnxs7bBWXUITCEhYVFeXn5hDQ9ent7FRUVaWho3N3dicwjRCTZX3Lr+fPn4eHhgkJCEF4htZUbA5DXMm79oihVECJ0gn8rv37QN/cqVFBCcbl56PHKiK93PTC7sSCbLIaPZEHYzt050l569MwMUu66VBqxeX11CCsPp2vScdyxRubtjsDdFZomDlB+UX5+ga1btzY1NVGpYKZkrkehULdu3bKxsYH9Ex7VaFNwRMmjnOpefC6glnR2ZY95QCobN9zUKyrvav1T382D/4FsDADQqiWc+TSKACySfjkWwjarD18MAVo/nxJ8J/01Zr2kc1+etLsuBwwRd/4dljDy6wdTyr87xRVLahhC4Yhly5bl5OSM6mXr7t270tLS79+/p2SOIPJucxZhNzU1rVq1ipGRUVpr2IQx+epX3ERMLcw/M+85j7DH7Wdk/WDCxQ8OUfs5IbwQCCQkJOTbt28k7pDduXMHawF56NAhInz4N9/CYDAnT56Ul5dnWMRoYBcYdrA2+07XuINC0QUaMH55ZSzsIKiAuFfe2W2tN8ho+EgWhK1TaEu/mEHaU8/+K9X4vcYHCk69uYLrFLgRAslXmwkoIaeye/uR+ys3hy9iWiwlJXXkyJEJLYn/Zk4k5dtbW1t37twJh8PZuGG223bFnX87W258CMZ90pe5Nf1rPGOYmIHKBpYZJ6q/Gy/BN3z8ZKMa2pWFT3ukp8dC2LqFtiBFXipd2ZL++biSZvXhrAgOZcMNeTX9BMOUWv7dJjQfwi/OyMhkYGBw7949AiIsLi52c3MjRVGToCKFXM41hI1Go+/evRsQECAuLs4vqWQdmpd05cukY64SUMOcvJxH2COHNXhfpVvyyYhjD4c9K/93PpBb0x9x7OFSK18Igl9KSioiIuLjx4/EcTYGgwkICFi0aBEdHd3jx48phOcp5zW6u7uLi4tXr14NR/DKLFnlnXmBSvetcUSCS+TVDrgkliBE5SD84h6FJ0PaLrn25a884zl1w8epI2zTG1tY+Tll/ZbZf0txxRTgBCEVJVZf82cCsWqvdxvLiibzdqdv3lV5vbVQOMLIyKioqKizs5NyKJ8a3+Tr16+xsbFycnJgOJ+Omfu24sbc6jnidyvzdsdKxzAWdpCUptHujAMdchI4kD3Isqgudk1A72SCwoyFsEVt1SWdtNymIYokZbKwUvhKOgZ61+QT+LucOVU9UadehB9uyLrTFX/hve32XYIyqiIiorGxsWfPnn3w4AH2yPfnz59fvnwhLmcpmZvmFMJ+9OiRnZ0dBM4jqWFkv2Nv6vUf1HjKjBPSM5OYR9gj+9l+xx76RYzMQE4eUfmlVr5uKSd3lDzK+mdjFau9t2FrpqiSrqCQUFJSEpHory0tLfLy8jQ0NLy8vPNK2PjzIAqFOn/+vLa2NpRfVHu9qz/yWnblb/z5d+SgUF0OsgGTeu2HiXs0GwhuFpwY/vmGJ3rv1HWyp4iwV1/1Y+XlkA80cOrKpkx5PO5buaDy+VfJcIB5Io49JE4VOZU9gbtv6W/whgtKqKurl5aWzu9n47MhKWlsyJisrCxRUVFhOc31vkmU43qPyOgX3e06dvXTPpJnlbya/m3FjQpL18GEpJJCkn7Jyv4B2YvpG3aabGvPdJvgcnRUhG39PIqFh2PlOa9x6XxuFLB9H8/Kw7nMxj/j1i/seHmkn9E19xCWX8LCDloM5PTNuzo88zdg0m+26pi5AxYsWLhwIQcHx+nTp+eAitdcQNhoNPrFixfbt2+H8/AqGViGHqzNruyex9ZEZh/8W/MIG783sOngoiogF4z2vz+6hfTMbFxgPlEjh5Dsu7+xZTJu/doce5hfQkleQSElJeXdu3cj19kvXrzQ19cXERExNzf//fs3KfJszpfp7u6+evWqpaUlGMG3wjEs7sK7uX3ElFc74Jp0ghshqLnOMfTGrcCOM5YPd0wlGM2kEfbmX5kaSWYsPBwKoSucf1MrvHYbKhxeJIBB7qmnxtrAJuDo4VAjlz+ZuO2E8AiYmpqePXt2fj+bxHnm8+fPfn5+fHx8vKKymyL3DQeLoRwvmQ2Yh9syPti4fLB2xv7eOvoeuNV+4sKbx4HxnTLyPQKCHXJKzz3DTpx/RUASY11m3u40dt7GDoL7W7m/M1o9uJgJi7MHmei/mcjuqg+fEMgeBWEPIqWclrAJgzZ9o6awqVPB+gqhK4QVliRe+oSjnMw7XanXW+IvftBas5mWFiAoo5546VNB45BffrmgjIbC0vX80qowQSkQGBoUFPTkyROqjtFG9Qi7ubnZ29sbBoMJyap7ZV7IqewZi3nm80ftgXmEjeuWrDud248+cE06rmfpxcgM/A9g//ufX0o17FD9/0Qja8CkXPu+1jseJigpIiJaVFREEBJyYGCgpaXl+/fvbW1tI/E3iUJuLhWrr683NDRk5wKprrCOOPbwL/FAj2zAbCtuFJTV4ADzrA2KCf52acODSH5jaRY4m/EF74m6oJ4cwnZsyxC2VGZgXaQUsYqqfYQ59+fxGEjoWXhOdKpH1qN3nnyqYeLAwQ3R1dWtrKycAztk0zc5oFCoo0ePiotLiKvoO8YcGnYSQDnY+j/NvcM3fnwx3YAB0GJ//WDw460JXfIKHXKKA9xcuPwW7eX7b/+7gYqb7cdK5NUOOMUVc8H4pSUVjy1bjVrMjNvM7pKG7a0J9SB5J3skwrZ8GAHk5xS3V3chh7/tqQBfMtZ1/p1tcj3A+mWMcx+hf0PrlzEscA73lFOjEk/CxY8s9fBgXwAAIABJREFUHCDAggWb44pjzryS11u780RTXu1Axq1fqddb/PLKRBS0wRCoi4vLhw8fpo/Up7Vl6kbY7e3t69evZ2IGLrPxjzr1fNRRHIuR5vOxPTCPsJPLmh1jDulb+UioLQfxCNMzLCLA1rS0tNKaK7cffTCqGkN+HSryxBPVFdbs7BzZ2dnzDkPGmrAaGxulpaXBfKJOccXpN1v/NgaMOPZITEWfiYXdKjIzqOOs/eckfmNpDjHIRCM+Tg5hK0eaMLAuUotfS+32VWZ1YYzsLCFF1ZOjn8zbHR5pZ+DCMsLCwpWVlWPR6nz+7t27ubi45PXXDft/oDxsjRv9R0GJOCSNZlrUIyV5L6bwzOmn97dnoZkYsbfQTPQXj9bhqoybQNajHWMOsrBzw7mhdSqaOISNAQB+GohH/UglEZ6ORNhLixzoGOh0CzaS2AJVFHPqyuaUgHLJwIUtlFae83Tt/6OzrpFsBhOWTrv+c/Q+b8AIymj8fyBkJQOL5Ru3OMUfJYBwceffrXAMW8zKbmxsPKqnEcrnUypG2J8+fbKwsIDyiTjFFf/jMXfeDd/Q6HT834p/1Lt/G8JG1qMTr3wO3F1hE45cbrtFRns1N48wKyeYCy4gIKWqZrzR3D91S+FNU/foRUzMtLS0C+kZDO2D4i+8zyfqQD25rHnZxgAIDJGamtrR0TG/Y00w9926dUteXl5cRT/0QO2wRTkFy+xR2WTqmcO6Cpc+Lt8YwAHhsUpMC/56yep+9CQMHyeBsA2OuzLD2FRj1mz+lUmlpo04qCHnv0xUWS/zdsekRyS/DrX96H0pDSNpaemysjKqPoMm4DKyXL58+dLLywvOw6tr7o5/uD/pDp/WivXbc/4gbDpA4/bsfVXdBQ2Y4xff9iHguFuVqUcm9Bo5Vb1bCm9IqC1Xh/E0QSE4kI1mXNjkvyykkyTvIiMRtqTzEnpmBosHETh6ngMJV0wBWJmPlpYWQAdgArFANQSVIlYbnXI3qw8HKfCudo0kIjp1LTxoaGgWs7BLaRilXm8hHKMGTObtDreUUrigpImJyevXr8lC4TPZCFUi7O7u7uPHjysoKEhrGu08+RTZMI+tJ4OtsdQ85xF2TmVP5Ikmj7Qzpu5Rais3CkipsoHg7GAEv5SKvO6aZRsDNscc3lHyKPHy5/SKdtxcEH/hPRs3jJUD5BC1n0ST+byafrfkExBeYVVV1UuXLs2fQWMnso8fPwYEBMARPIb2QWnXW/5CbI0vNnJr+uwi9nBAeCSXGLiWHrCpj8eCbNKD0UwMYWMKlxc7McPY1BPWO/f92VuiUrlu+TiSBcrunXVx6lSUcevXKpcIMBTu4eHx6tWrmRS6lPysGzduiIuL84jKOsYcyqUGF9d1kUgcjB4Ag4+Wf8Wy2/7bv3oEBHG37oel47Mhiem0G616ll4ybBz1QJY/IHvRwmdeenFfkj3Q4/jhIUDYm9szWPm5ZH2WOpEG0KmFSV0G8oUtlAgOfhfQ0y3iWMzNI5h4eVjHeqyfc/xRwAI6Ghoaq+Acgg3sP1UaMDFnX8vprpGWltm3bx91GVFQH8Jua2uzs7NjZWPX3+AzfPrw922G/aG8sQmX9DJzDGEj69HJZd+C9t6127FH18JTQm05mE+UlRMC5hOVUDPQWrt5vW+iP/Ja3Pm36RVtebUDRLh6qZVvyP7q/1G8Hq/DhzVuj9xXWWENhiJ27949vz328OFDJSUlCL+Y/Y49JC5USCddKi2JrEcH7r4lrbWSHYwwT4qzrUyekOEj6Qjb/luKrN+yxVCgZqo5/tEttUhuwvccRIraq8vpmmZXdpNl6PNqB5zjj8AEJWVkZWtqav7ycycMBnP48GE4gnel07akK18mNO+RZTgm1wg+wu6HQoqvf8e2s6/yd4+gEA5hP9oSP7n2c6p7rUPzZThBRSxMv+npsDgbTU/3S0PgSLm/J1GQTYCwjS94s/Jxmjduo+pzJFdMwabvqeuqQpYecFDesVrUWoVTGk7PzICPsOmZGcDK/PTMiyy3ZhInpIiSR4zMQBoaGr0N3sS3SjNvdxjZBwPZuczNzb99+0bJy1T8d6MyhI3BYEJDQ1nYOM39U9Nvtk2OZ+Zr4ffA3EDYyAb0juOPzf1TVQw3CMlqsIHgw05/6BkQIjJL1jo5JxzbduRe2o2fxLkdv1sKGocmHaw7o6J9+cYAbhDo5s2b+Mz2t6Xb29v19PR4xRWD9t4h0e0DwRDM4cvksmYdMzdmNi7b/GyTk1sWg1lJ1MkmEWG7YgpkvPToGBaK26k7d+cQotWhQqrLWX3FdzGY1S2ltKARQy7CQNajI44+EJLVVFVVpSKxPR0zSW1tLQKB0F7ngnVLSq4enu52SETYj/2iJv0mebUDFoEZUFa23UyL0AAAbjO7U4Uv+X0CET4iQNjKO1bxGEg4tqYTqUK5twaR5ve26e6yk3LVgWkIsSDYAXQLaGlpGTkXC5spSrnq0DP/Z78EACiGruBfIcUOgcdfeE+82z0zztHRM9DQ0EiqG+ZUjeOmIutOl+22QlYOkJ+fH7W43aQmhI3BYA4dOgSF81iH5Gbd6Rpz93G8jUbiQ/633aVShJ1b3Rd16oV31kXr0LylVr7C8ks4wDzsIDhMUFJcdZn+Bh+HnUXbjtxPuPQp/WZbfh1qhoc19doPpeUWyioq165do954VFMR5G1tbT4+PjAB8aC9d/4SnyETpbGU8m+apo7cPAIbkAmmh7dySSNENyg7tmcQl7KkIGxXTIFuoS0zFCixWcvmTZwbhvrwNEEn2H1OhOuI8IjLpV77MdF+Hqd8AybsUP2wXoSjI3UdQE+FPfHrotHoqqoqLS0tOR2T4TN9qjoWJhVh+04eYRc0DmXd/e2eekpHTuMmAz0OZKPpAW82qUf8HBMx4yNsV3QBQk9MMXzlRH0HETDCjF1u7si0uL991UUfnfyNUi7aYFV+FgT7YjArmwgIoS8m5aGrW2hrcmOL9csYh5Y0s7owVj5OWlpaOkZ6xfCVS/c7MHIy65p7EN9YyasdWLLOBcwnRkNDw40QHNMgEg/R5VT1btpZxA1FFBYWUsURMTUh7BMnTkDhPHYRe6g9TOs4Mz4ePc1ASepA2A2YtBs/Qw/UOkYfXOWyQ8VwA1RQEsgFBfGICMpqKC23WOMZ65NzOfbcm5RrPyjEG3pGRbvqShsOTq7MzEyqmAvwhe4U0/fu3dPW1oYJSoQfqp9fCRPh4uzKbnP/FDYQTHH12nW527ileMYF2eMibFd0gU6e9WIoUKdgo0svof+sGZPQ5H2Q3BaDhYsWOY/wNkCkbyd0a8fxx7xi8q6urq2trX+VuggGg9m1axcEAlFYui6l/F8Viwl13ewWnhmEjf3GpKtf1622u8bE9AdkLwS826ia+TLGa7QAjfgI2+p5NBOI1aw2jLx8Qa7WXPvzbV7FrLriq7fbTiHEiNdAEijItRgCZBPiBqsJiGxUU08yW13ub/0y2v5rsvPvbAJFF6ff2VANQWYEu8ExF4ef6WBVfl5xxZgz47ghd044ZuaXbOy0nYaGhhYA2H7kPim0lF8/6JxwlBuCOHDgAOXvXlEHwu7r68vPz0fw8lmF5M7Da1KokPQylImwc6p6Ys++8c29Yh6QprrShk9SmRPKxwaC84jJS2ut1LXwtIvYHX64IenKl4xbHXm1KDIeHJPedeOWzKhoX+22kxuKKCkp+XsMHz98+CAvL88vpTqsxU5V+2HjDuh0FMivG/TKuiAkp8nFw7c0wI1LfHgnm4jhI3GE7YLK18qwXAwF6u2xd0EhySWAZ7cds/pwFgjHGq+4aVVg2H70AUxA3MDA4Pnz51NcYVJR9fPnz0PhPAZ2W5PLvk0HeU93m9OBsIvLv544/6pwNA8K2Xd/u/smXmPjQOHURegA3VLQM6XuI0E2PsLWzrMBKfJRiK9MV3SBfXPK2rvB+vs2KW0zFrZU5pSELYYCgYLcYGV+AVM5pfCVhifcrJ7utP+SNPzOo60fCOYEo1J3y8eRrugCrQxLiIBoeHEjkqj3rfgLH1RXbky93uKVeX7RYlYaGhrrkLyCxqH0iva13vEJlz4SoRxkPdph534IDJGcnNzV1UXJ7EYdCDs1NZWFhWWFQ+i8sRQRspvcLUpA2Pl1qOSyb+GHG53jjxptChZXXQbiFQFywbh5hESVdHXM3C22pHllno858yrtxs/c6l4qwm35dSib0DxePv779+9T8kRArnfr7u5es2aNvO6a+AvvJ6T1PjnqnSO1hiMGt1lsSWcDwWSMDTkE4RxikLGC0RBB2DavY0WtVJihwKUHHFxIEIr4MjL3YURBfTjul9+4Legf7e2Ed/GX9zs0xK6pSjMruhXoO5CPX2sG0s79eQKrZVVXbsy89Wu6FRgCCq5zI4SWL1/e3t5OLo6g5HZevHghJCy83jcpt6p3uvt2mliV7Ah7V+1As/H6dxab941hUJtXh4pIP31IWauNkRGnk90PYrlwzMX7f5kOh7BdMQW8BpLyQYYzqSIS2ZLmjV1jDyIdfqRZPIgwOumuEmkiulENoibAgmBn4WEHKfHxr5aV9tLT221nVh9m9znJsT3DGc+h9UQZ3OZtHCsfl/2OvaPC66hTL/yR13Jr+hMvf9Y0ddy65zayAZN4+TNUUJKGhkZhmVnW3S4Du60bgrKz7nYRJ5j8OpSpRzQzK3Dnzp2UfERMBQj7y5cvgoKCUhpGiUSXNcTHY/7uWD0wuwg74dIn+x17VIysBGU1uOACdAsZFiyg45NU1rP0tN9ZFHawNrmseVReHetzKDA/6+5vYfklTk5OlH+kNXU0cP78eSA7Z8j+SQYEocDhm7FXyqvpX+sdz8QCFNHWWMzBNpbh41gI27U/T9hcaQHdAoVgI9f+CePg+/FrO7UEeuRh2F/HEsG8FzHpr2J/rJFFMwGwPhl6RTmPX/GdqNCdYvl1VSGM7MyBu2/NwEDk1w+6Jh0HcoCKi4unzguU34Kfnx+/pNIofohnVlNxKiNLdoR95FpzLx/f/bD0Ufewsa86jAtPvyhdafZnJxsA6BEGFT7cgU/tOITt0JLGDGNbedYL/+60pn0HkS+3LC8ptF2+207UWhWmKcwuDFrISE9LS8vExcJnKKmZYm56M9DmTaxTF6HKx1ReTC1+LVRQYix1I8Wl65mBnPpWvpLqhvpWPlgtbWT9oLKRFWAB3WJWDrWVtjrmHsNraRIoMP1mq5yuKRQGf/PmDcXyGhUg7ISEBISITHhxI85XMSm9P1+GxB6YSYSdXz+YcPFjQMF1q+AcfSsfKQ0jLrggGzccISIrqWG4ZJ3LxnBk6MHaxMufMyrah9lvrugYuKeUQmCIe/fuUexEQJYX6+3tNTIy0jJ1zKnqJZH85ovh90Dm7U5jp20sHFwQUdHF7Oyj6mSPirBdUPmqsWuZYWxK4Svtm5MnISO3tWXcRW7sh7JgwfQAhOXaQcfPGxRbtYV6edlwXs9+6ItsaxvHFnMSTx+zyiBSwkFTUsMo83YnfkdNXzq3um+plY+2ts6vX7/IwhQU28jz5895ePkcow9Q9VlTQ8SfiDMD3FzF1/7Vddl/p6NH8I8/7CaPbSTSzKnTT3vExc6UPhq3fN7ZVw90Vwzi1EUAgK+rZeI/JuKIGYewTa8HMMPYNr6Px92ajoRzX571i+hVl3310yyOOmj2gFg6YcCt/JwgGTjPcgkJB80lmRvW3Npq8zp207cU555cN5LDv5P4tpu+p3JKQtd6x49u2t6AEVbQpqGhYWbn1lyzOfbsG5x8988vZwfz0NDQiCrpxpx9hcsfZwgaMNGnX/JLqYSHh1PsNjalI+zXr1/z8PC6Jh2n6llgHEIhYbk2fS1MK8LOutsVceyhW/LJVc4RyoYb+CSU2EFwbriQsMISFSMrY+ftHmmno0+9SL3eklPVM4eHOK8Wpbpyo4WF5dwW28XFxWAewdizr6ePXOd8y3m1A5tji+FC0kysbAsZGEaC7JEI26knR2WnCTOczfCkm8sUtDgy3sZ1i4KwYBpND+iRAl/d7xDRmnH4xpYeWci/IJuOtuSqH4kSd+rFjC96s4K5Q/ZXkSp0yTGXJl35CuEXKygomMMmj2g02tHRUU53Tfbd31TNU00+kbjlH5p+4cnz/1rXlVx634dA4G69MXMsJKoWjOuEywfuvHHw2V3Tj8shkth7o6VpjQ1qODz7v178vq2Q2lcb5oMaPkTCIWy5QAP+1TJkNjseRNp/SVp7O0hvj72Mtz6fkRSHBIQZCmQXBfsIcHUsGHbdjWaiLznm4vgjzbk7Z7oVVFwxBfJbDQWkVYfDio3BhpHHn1gFZYceqB1W98XbPkM2YEL2V9lH7k0p+4afP1Y7+Pne2RfBUPjjx48pcylL6Qg7LCxMXGXptBq44I/WX5gmI8LOruyOOfs6cPetjeEF2utdRZX0QDzCbNwwuLCMrI7JUitf65Cc4KKqhEsfM293Dut+4PHYnO/5bUfucXBD9u3b19fXR5lzwRTf6tevX2pqaibuUXN4pTQzVIpswKSUf1vlsmMREwtgAYDA8JEAYVs83MG3QooFzr7ijIcrekqmjdEtab/FwVhQMgikv3DW0+8fbZPQzqwWUxkcWLmZazV16ExKCzavY0GKfEYOIXkz7m3TcmumnLx8W1vbFJmCYqsfOnQIDIEG7b1LmTbiJDFaA6Y+urBXgB9HmRgA7RcTy8uHKo9ffPvJzBZNvxB3qw8KbdyRe+B2+7gtl+0qO3+0YdxiuAL77nRUReb/FhTGgew+Xo4byI0+A/lYhL36qh+HBFQHaUMKzY9VxgWVv+l7ivm9bYbHXZUiVgmskuWQhLLA2YH8nBA1QVEbVaWIVUsPOlo8iAhpCG+TgWFf5oWT1pYZ8SbkgspfkrmBBcLpm3N5hq2k8mpRstqrPT09KXMbm6IR9ocPH4SEhDbHHv6roBiOdWcmMWmEjWzAJJc1hx9u8Eg/Y+oRLae7BjxsngjlggsKyWlqmjqs9YpzSz4RVfos5dqP3Jr/WbPOzKdR1FOQ9Wh5/XVwOHxOhmjGYDA7duzghiJiz72hqG6n3pf5J+LgUTZuGAAAwDd8xEfY5ve2cUhAOaXgY5lFjiWwR82P+pn+W+JfhN0PAxY+3YktFtCX+2OdPA6sVMWvGbU6eTNt3sRBNYV4xOSSrzbP/CAmlzVzQHjOnTtHsRB5Ki/26dMneXl5SXVDckXHnPkBGn5iA+bY5Q/HL74l+B262VJU2XX84juC/JLLH3bX/tmZvp196pVLIO73zCfi9NnnhfXovVU9JO52//nqBszFg5W/xSVxIBsFZLyVY73pcSQznE3QVG4xBGjzOpZ0BnHFFDi0pFk+2rHqsq9muoWorTqXHIKFh50Fzs4lh8D6+tDft2ntnSDbDwn4vj68BpGPtxqg6Yc31LuFuNIm8lDSX29kSYMSF0aOxdpmbrPii8Ij7Qwvn8DXr1+nwhTTVJeiEXZGRgYXCBJ37u0fUh7j9GG+wKR7YBIIO72izS2lVGe9q6CMOjdccBHjYlpaAExQcvnGAOf4I0H7KhMuf5r5IC+T7oHpqJhb3Zdw6RNBy1bBOYAFC0pKSqaJmWex2dbWVmVlZTFlfWo/dCYYstm9RNajnWKLGZiYaWlpcYaPOIS9uSMToSfGLYtYXxNKFsd8YyFs//68H2YKOIRdE7lqpIgle45KpMmChXQbtmYRj6VMlgFKLvuWded/9bwbMNJaK4OCguakosjFixfZ2NhM3KP+5q2rbybmv3T1WoxNW1at/bVE56Vb8P67nZPvkAZMVeqRQTY2HMjuhwGRSBtmKJCemQGiJuDUmTUuj7iiC+w+J6044ynjpQdbIswuCl7ExkRLS8sMBYrbqi/J3LD6iq/V8yin39ljNZX+PLpXiAv7Do07VhP4Nhmr1hTzXfvzYUuEWTnB24+S5NB6ijwbf+E9QSCb5KtfWTnBlBlBmXIR9sDAgLGxMZ+EYkbF+Cc7Uxyzv7n6uAh7+Mz62vfgoqpNkfv0N3hLqhtC+MXYQHCYkJS0lrGuhadlYMbWPbfjL37IuPVrGFj/TbofY1FORkW7qKKuxZb0mDMvcWYfWwpvsrCDQkNDiYjttra2x48fExx4YTCYp0+f1tbW9vT0zCKMJvLo2tpaOByuv8FnXkVkLJKYXH5Oda91aD4nlH8B3QKsTjYWYW/6liLnv4yVj3N1mT8p3mpJEaIkIuy67StJaW0qZWw/JLAJg+R0TEcuUyfXjcRr+eWXS2oYuqeewrfQXe0auWrVKiKGE319fS9fvhwZa72zs7Ompqa9vZ0ImxNhpRm4lZycDAAAfLIvEe+WOXz3YEVbZdqxo2Wfi69/O3Hp3aPw9GNXphrMcm9VzzPPbYNMTDiQ/VUGpgZkAiwASHvojsqkTl3ZNq9i1lQE6hbaSnvoQjWEgAJczHA2Tgkor6GkhNMStYR1q6742byJdfyZ7tKbSxDnhYDFPNEF97Ybo+mHNbDbNQSznkURFJimS6NSd1YIaNPOInz2mT7iWe0aqWGyKexQHc71RX79IL+0WkZGxli8g0KhXr58+fz581EF6+vXr6cvWgXlIuy3b9+KiYmpGFn95buh00ep2JYJEXYDJuvu7+jTL72zL673TVIysOQRk+eA8HLBBARl1NVX2Zm4RznHH4088SSl/FtuNbV6UZ3uXk2/2QbkggIW0LFygpWWW2zdMxw5PLnsG1xYxtTUtL+/n2AuOHv2rK+vr66uLj8/PxQKJYh50dTUJCAgAAQCg4ODCeYIgnZm6/Lw4cP09PSbdhZNd8f+he3n1w/GX/igb+WzkIFB2FyJUxImaq0iuUmDlZ/L9MYWMhowUQjCdkHli9upS6gtT7j4cWZ0Or2zLi6kX0TPwCiqpGcdmhdz9jWyAeOeckpCUnqkTtfHjx/T0tJMTU1FRUVBIJCPjw8BS/r5+bGysiooKLx8+XK2+JH4c21tbZmBnAkXP/yF3IT95F11qF11AwWNQ3ure2uSDx278pEsG0N7q3uafHeiODlxIPsF/UIbRoYNZf5uQ4UuqHybt3Fr7wYZHHNRCjfmWyHNJgRihrKxCYGgWsLiDppamZbGF7w3PNk5OV8fRbe39sOAw/BagafwcaQXumCaIDV+s/ZfkjgkoKbu0TOmH7LcJoCWlnYxK4eGySavrPPpN9sKGod0zN0dHR0JOHFoaAgrWBUVFUEgkKCg4KiClZ+fv7y8fGRd4kxE4l3KRdj19fUIBGL5xgCykP5fO5WM++H4CDtV31hUUZcbIQTkgrBygDhhfKLKetrrXc0CUtxSTvoXXAs9WBt2uH7+N24P+OeXMwM5af/7Y2QGKi23CNxVwS+tqqWlNTIMVW1t7bVr1xISEqBQKA0NTVJSEj4DP3z4kJOTk4aGRlFRsaOjA/8WhaTT0tJoaWn9keXj0tt8gcn1QG51n00YkpEFuGDhAh0O5iMsjGGHnNzIKkQpBGEvL3ZiYmO1i9gddmiGphrzgFQ6uoVYZgUAFrCB4EYOIY4xB6Fw3gcPHhCwWHNz8+3bt/ft2ycjIwMAAHh5eVtaWvDLODk50fzzd+jQIfx8ykkvW7ZMSFYj9dqPyZHinKm1/05ndUrx8UvvyIgx9tT03URe/KWgigXZ3QBAPpTNMGylqI0qpwycGc4OFOQGKfEJmimq7DRZedZzw+NIu0+JmzuzprhUTn4X/8NAAgMADC6mP3HRx5OsMwM+pMZPu/bnSzovgfCL+eVdHVcmkquAgv66/+QqLf0iRoSI7MbwAiP74NWrV48UjljBamNjAwAAiAhWZ2fnkXXJwrCUi7CrqqpgMNgKx9A5w8+U+SGXs06lKaptZWEJWMSgxgVi5YKwckGAXFAOKC+IVwTCLw4RmP9NuAc4YfwAwALcRIBNDFuCckJUVVU7OzvH4l5fX18aGhp7e3v8c6vBwcGrV6+qqKgYGhp2d3ePVXcW8xMTE2lpaYP23KZMIp8bb4WsR1uH5FoyMX6kX4gGADrlEMXXArym5j8EX15OHWF7YAoiWtOnEvfR5k0cUJCbhQME5hebsZkHyAUlYFVaAAAuIsvBydXY2DgWW12+fJmDgwMAABDsVX///t3NzY2BgeHKlStj1Z3dfG1tbUm15WnXf84NvpjcV5SeeXZ/Z96wd78GzJ7q3t21w1va5PqdOv2sXVmzDwDYsoieaQGAXQws679s6UFH8wfbbT8mOramT8WrJj7PYtMJ7+J/mMqhGRdiAIBn7roBfXkjy5A9x6kzS9Z36SLWxRwQnhljVYiAOB09AwG30i9iggpIrFixYqxQrK9eveLg4BhLsPLy8sbFxU2TYKVchI3V7DS020ouop9vZ9QecE85xcTKDuYTY2BkFlXSDdxVEbK/Zv43xR7wybm8GMiBPxEgRGT9cq8KSKtqaGgQQdj5+fk0NDQmJiYEmiQYDMbOzi4oKAgfec+unMZ/ekpKCi0t7ZbCm6PS2HwmuXrAzMrrISMD7gz6txxi1/3t5JKdU0fY+6tCTl/x3dKX5zWIPFQbmvjpT/QNEl9SKWwlREDcL79sigw4oepm/ql0C4fD3eH+lI2s/l/lCQJD3L9/H5/O8dNdXV08PMNhMqqrq/Hzh4aGSktLxcTE3r17R5BPIZf6+vqiijpUHcpxigy1t7rn/s68Y2WfsYEbLx+8c+gmmdcbF5AXj4FBArzCi5hYOCXgNq/jSGSBSRSrS1yPZqEf3sBmZyq8H4HfwuHqkMZU8/tJZgdqQj3+N8SM9yAy5Hd2QH++B6YQv0pQd86F814PEtadu+C9dWxnfwYlLotYGZUNLYOLqibEblMsrLB0PY5PaWlpGRiZ1njGGtptNTY2Hmsfur+/H8uqowrWpUuX3rlzZ5oEK+Ui7KamJkFBQa01TvO2U1OcTYhUT7vxU0hWkxPK55t7ZWOxpQbbAAAgAElEQVR4ATsYscIxNKX8+8yoPxJ5MWq/hdXDxk4ErJxgA9vA6FMvMira+SSVDAwMiBgsHj9+nI6OTkdH5/fv3/jy+P79+9LS0teuXcPPpJz0rl27AACAW0optQ8cJb9/cFGVEhTxiZcPh7AxAECLnuipc15bu3PwZeTk0vj+sPuhLIVN/3rrG/Ylsv6Pt7668BVjtX8/cX3yp8S9lcHPfPV/rpDM/s/f31jl8fNd0QUrz3kB+bisgnNwNkwzMxxYPexhac3EIqaibx2Wn1L+3TfnioCQyNOnT8fiMgwGIycnR0NDc/78efwyGAzGzc0tJSWFCJvjl5/59Nq1a0EIoVlxgzgzA0r8KbvqBu+Hpr519L23Lbtxe879sPQ3m/2LCJzJTHk/e4NPgiiUJ2jPHdek4/xSKjxLJaymx/Qw6U1clywcOyc8d1lC4AC79JLPbwUYioupQxGR/jIGn+OOXvJu0xE8djcI53LEA1OQ/TjyuZdurwDnFzO5U+e9tvTl4lfBpR3bMqCaQhB+sbBD9WTUsSE+cNi7WD1sWlpadjCPhskmn+xLWXe6jDYFW1pa9vb2jspNOFYdVbBu3LixtbV11IpTz6RchN3R0aGqqiquop9dSd1Bp0ghmlkpk183qGfpCReWCT1Qk183iKxHBxRchwlJQwXEHaIO5NWiZuWt5sZD02+2sYMQooq6G7ZmRZ96gXUnEnHsISeM38XFhchy+caNG4yMjFJSUvjRLgYGBuzt7ZFIJMXK7KtXr3JwcJi6R8/wbDs3qIWUr0gp/84nqaxp6nj05ONXLlv7wWAczkZxML101Y76loKTf5NLZLyL7xb9L+LM4oX7HkS4/bO5RRBx5r6XDsFmGO5x5UWbmsJXVqeaXS52SvyYOCFl0JXnvJhhbIrLzAgd500Z64zbvd5ZF5nZuNRW2YYerM26+xu7v2AdkqulpdXc3ExEyq5YsYKGhmb37t34ZW7evOni4oLPv/h3KSEdEhICACwYxkbT37cU+IiT516+svN+Y2qP+1XGHyioR5PxVbfsugnkgmyK3IfdH0y8/FnZcAOnGGzVZV+yONbEcVxAb+5bBw003bAD7E5xSPK7EYHZMQWfLRWxrjYvHd6Mq+g2VPjaWfObrkgc3rxx4GZglyIcTQ/4oS0U8zUZvzB+2hVdIB9ogBCT23bk/gwvhgsah5bbBLCDeVa5RMSdf4vzXSajvSo8PJyI9x4sq44qWO/cuTN9XEm5CBuDwURFR3NDEfF/sckzGXl+ZFOO0QeAnBB/5LU/HmcbMDFnXi2z9mMH8xhtCs68/b8+Yv/K6Xhkv5GSk1PVE4C8lnmrAx9x2m3fRbeQfv/+/UT4+f79+6ysrDAY7Pv377hixcXFYWFhFAuvh4aGmpub5eTkpDRX5FT1kNI/82Um1AM5VT1L1jrzSigmXv5c0Di0u3agbO/1LkkZHMjG0AG+G0hmP94xFvbFF5CjpiNa0moyLAbAzDi/1w+iTaKbk70Hkceu+vVI/4u8MQDabzoi+U8i/UfoegZ3Zd3ZZRvRmj5q+8QzbT8kcIhDxZT1Y06/nFDPkKVw7Lk34cWNBM4QFJeuH+knBMeS2IS9vT0NDU1sbCwuv7Ozc/369U1NTbgcCkycOnWKhYXFzC8Zf3YiS0/ON1LQOBR+uAEhKqdr7oHvvS7rTpeJezQrhFvKWXtD007s2pU4U5By93qh7eA/+iEobpZTZzxHsr8HpuDnMlEsU58tdcO1GfMluUeU63a6OW4ZHNyZ1bJcDAOgRTMtPHLN3+1/VUpwFd2GClec8WQFc/vnl/9BDjOIDUL2V8edfzscE/q/h6Zeb2EHwS9dukSE17CsOqpgHRgYIFJxircoF2EPDQ39+PFDQkJiY3jB/ESAIyayJPLrB10SSzggvGZ+ySOdIebXobYU3oSLyMjpmsadf0eWJ843kl8/KKFuICoq+v79eyJM++HDBy4urkWLFn3+/Blb7MOHD1ZWViPd7hJpZOZvYTCYjIwMbjB058mn82NN3h5Ivd6ivtoeyA3buuf2H/WtBkzpmWc/9Fag6Ybd32J/XVLQ27nWO36k4YtDEtO3kBsf+ek/cdTE/R5761wr2pT+KrYhchUu84mj5mPXJQ0xpvsrgwla3lUdcvqclye6ILIlLevxjtSX0TjhTVCS4NKlN1fYQklSwzD+wvtZkdkjxyvu/Ds2btj169eJs1JQUBANDY2Pjw+uWFxcXFFREZFDKlzJWUx8//5dTU1NVFE7607XyG+fz5lKD/w/k4L5RAVl1JPLvhG0k1c74Jp0gldMgV0UanzRx3XKNsqF9duw8WV6YWwXTnuOauC4oyWtWxSERdjIh39UtE+dcEWBmLKe/vGZfb548+Di4Tjzn0xliGidbXwbxy4CNvWIHokcCL53xi6d4o4Ii4rh70mNZC4sq868YKVohD00NOTl5SWnY4K/FpyxYZvDDwo/3ADiEUaIyqaUfx/rMwN33wJyQeX11iZeIo+v0LEe9JfkR595ycLOnZmZOZauGHZSaGtrg0AgNDQ0OEe8O3fuPHr0KJHzr5GzyazktLW1SUhIWG7N+ksGdMY+03JrJj0Do46ZG0Eks4LGodKzLzoV//ULhgXZaCD90yCjwLHtkwjQLRkvY78kv/Zf9jjK9Lu5Yqcm//0dxj6DSFLaX3XJdxGQedjVI8UEq3KI2i8sIvrjxw/irBQfH4/voODjx4/m5uaUrB+C+5yMjAwOLu4dJY9njIz/hgfl1w3Kaq9eQEfnlnJyVGJGNqCjSp9Jaxmz8nKurw4lhTvGKuM/kP9usyaW6x+GrxyL5bMf7eiHAzEA2n4EMOp7Kq61psDlbSp84R2Z2ByPYWWSf+O2lu3fRGSLXX6rIURAPOnKF8oZUJUV1ra2tsQdWmNZdeYFK6Uj7PLycm4IfEfJI8oZTmp/k5zqPhVDK0ZmVsfoA0SsSPPrUO6pp0A8wgJSqp7pZ2de3Yra+5ng/c38kuUVFF69ekUcKw8MDCAQCBoamvr6+qGhoadPn9rb2//8+RMnGik5ERoaKqqok3m7g+Db5y8n3QNx59+B+cUEZTQijz8ZKbMLG9AXD1U1r7IYZGHB7WSj2JjqYkyDu8YMrYyTsmRM+A7kH7mxpTbF7HauVVWK2YXjLokfE4gcNOMevflXJo++mOoK66y7lGJvk1vTL6W5wsvLi7jMHhoaQiKRNDQ069at6+/vHxwc3LZt2/Hjxyl8Axs7gbS2tqqrqxs7R+Aizk6aROcr4nrALaUUyAkx9YjOuPULl0mY+EcVU1prJUied21l8OTcYAd1ZTfGr+uHDseX+S0MSn8RjWMogsThSz7/qJHQtmgJhf4XuX1LT267Jv8TDx0f1L9r4JRXMb2CnBgAbaciPOXt6G5PXFD5yw9tZkVwbgxHUg4eiDn7mgPCc/r0aeKCFcuqWMGKRqPPnj07M4KV0hE2CoWysLBQMrDERu4hJNb/FHHm80nvAYst6RxgHpeEEgK9w5EtIBsw248+UDe2ZQPB1vskzp8kjOwiEnOiT7/kgvEdPnyYFOkrIyNDQ0Nz4cKFz58/Ozg4PH78mPjcQTmY+9OnT8LCIjZhSCIrNxJ7bL5YQeNQdmWPvP46cdVlsWffEFGfKLrbVZ14sA8Gw4FsNCP9m00asZ+T8MVtUFd24ocE7/9kKv6tKaYjWtPLD2/edW+7Dyp/Qk25DOTLBSyHi8okXKCg+IKbYw7x8PG/ePFiXM4qKSlZsGCBrq5uc3Pzli1boqKiCJxsjtvCLBY4c+YMN5Rn+5H787xGlh6IPv2SGyG02nXHP7YoGOJtple0Ld8YwIrgVgg22jjSPHHof9znEfCU1yCyLsZ0kH04PDuKhbH0rCcRdayq5PVYFZGH3npe/50p7a4KHuBmOlo+HGkS+6tOWIteSNvPxXyqzG8sLtbfa7+IY7GW6ebsym7iXzdjd/Nq+rVMHY2NjUcGcSPgrJKSEgYGBqxgPXHixJo1a2ZGsFI6wh4aGmpqauLj59c0dRyp2DRjAzlnHrR1z20gF3RT5D7Slahyq/s808+AeEXUV9vPD8EkKAGLk8zMzAkc8BFMAbjL5cuX09DQ+Pv7r1ix4syZM6SAclzdWU8UFRWB4fzbjz6YREfNV/mfHmjArPWO54TxR5Q8Grl7/T8lG4cK69FX9t/ulJbHgex/Hfmd/deRn/cgsj7KtF1HOOn9CG8D/0lZnLidUCLyW8ob36XIRxM2snRsy5D20ANCQFsKb/zRL5/VTRNkA9ov9wqIRzgnJ4cUvisvL1+0aJGkpKSnp2dUVNT0+fyaDr7GeiiSVDfIqGgnIKf5y4n2QNbd3zJLjGWWGJPembk1fXYRe0C8wtxyvGvvBLmObVlIwI9nj7sOcDNjOb02xtRvgNiy9r29GhZhXzjmjGunIWp1pxR0x89/jZJ3fkvpkoViALQPA5aN5QB7fV0YK4JTfZU95eiHZNz6pbfBGwrnwZ73EueR8vJydnZ2rGB1dnZ+9+4dKQxOvE1S7lIBwsZgMKGhoQvp6c0DUols5EyUJf7C8vl1KBntVaJKehM9x0c2YDzSTi9m5dBa45R+s/Uv7LqpfLJ7SimQjaOqqooUhvz/JaWFhQUNDQ0YDEYikcSVtklscCaLdXV1aWhoaKzeNO+IZio0U9A4FHfuLQeUd7VrJKnn+A2Y8qKbv5VVMAv/2D72C3PdRm70GUQWNG7r4+fEAACXip1wgpYsibMlLkX3tvv1ExPzoz5IJ8+GnolBe71rXk3/FPuKXNV3lDyGC0vLKygQBEIfi4NqampYWFgYGRmtra3Hiic3Vl1KyH/w4AEXF/f/x9YZdwlHrh6eq+24JB5nZAYG7r41oZ7Mr0OFH2oQlNXgEIcMOxghYa0b9T31l5YgFl53yCLiv4zpUw/bWpu2IBZh760Lx+b4opA/l4m+2qCMg+alpz3QLAvRTHR7Gv4tQ/AmrugCwXUKwvJaCRc/UshiuKBxyHb7rkVMzJ6enqQ4A6mpqYHBYFjBOq3u+Qj4mgoQ9tDQ0Lt370xNTSG8wuHFjROi4LnKz5P7LreUk0AuiHf2xUkwSW5N/6bIfRwQXkl1w8BdFfNLHVKGANmACdlfxSeh5OXlRTpWdnV1paGh8fLyam9vpxb9EPxp5fz58yAo3NhpW/qN+cXYJOMw59X2L7XyhQvLxF94TwqlYcvsqh04W/r443p79KLhAG/YXx8PW0WO9UdLJfTC4Zx3G5QJYlIQSNOJXjaFrRiOWEHyDhy2fZs3cRziUBEF7cgTTRQypWfd6VJabsHNDTp69CiJ+1tNTU1sbGxQKLSuro4aWRWFQgUHB/OIyPgjr420oyWd8P7yklGlzwSk1TRNHCehPoFswEQceyCssAS2RMTiYQRxPvJGIeujTdFMw9yN4ma5WOzkSdQhiV9/fpfU8OY0ipMp4b8AqyeuB/QKcF7bZYt9VmBP7ntbFQyA9oO5QvDv0Y03jE66sYK5vbMuUI76387SZ1AB8aXLlj179gxf+oyVbmpqEhAQwArWmfR7Sx0Ie2hoqKOjw8PDg1dMLvJk01/Oz5P4fGQD2jfnMjdCyNQ9Kr92YBItFDQOIevRW/fckdFezQFG2G7fNT8jE+9GZAPGfsdeNhB87dq1Ezo+DgsLMzExmVCVsaaVWclHo9G5ubkcHJxqxhszbs1bPU4YZGdUtOtZegK5oP/4qh9HoXMkERbd7XriH4PCs33E/BOQAgu4UUDGwntkC7TuNlTYskKiMdp0/62tuQ8iCurCdlWHJL5PwGl8jorXN3dm8a2UltUxib/4gULW6tmV3dpmbrJy8hUVFaRsiWE56/Pnz4KCglSnyoU/LXR1dVlZWbFycFuH5JKuOjiS6v7anPDDDXARGV7xf33VT64fUsq/aZo6sgmC1RPWbWoePXSUB6bw8kFHFOew+nWXMPjUZb+RPukJ2M13IL9DAYEB0LYtF8fqhAR3ZX2xURmAMGPNGQO7cx7tWIXiYOwS5cL33IffjuXjHUB+7vW+SZRDHnHn3/JLqTg4ODQ3N5O4sv38+bOkpOTMC1aqQdhDQ0OdnZ329vZ8EgqkKCZOjtDnai2PtDNs3DBZndXEbJxJ04DMutvlELWfE8K31NqPdJ2zudqxY30XsgFtt303GMYTEBDw9etXfJFGPP3p0ycHB4ePHz8SL0bhdwcGBsrLyxUUFdWMbedtlMciklHzkfXo5bZb6BcxjeqrftQqIzN31/bfTT3ah+DB7WTjJ5746PsS1d3El6/jpivTzDEA2gEQUx8COABhGQAxd4uC9taGjVXRZSBfPsgQKiQRe/Z1QeOE1w8jP3bqOVl3unTWu0lKSj148IBEgT00NITBYLKysgoKCgYHBymcH4m/3s+fPyMiIiAwxIag7Pl9kwmRU9qNn0KymtwIof/xVU+aJCV4UHZlt1lACjsYDtUQsri/nWAze+vv7Kpsq16BYUWvfk7mo2X+XuiCsVgMP/+VuzYGQNulxhfZMuwmf//NLf1CHB9MZLb05nqiC6qS1g9yMnYJc+2vDB4ZrcZtqND6VQxUW0TNeCPluE6PPv1SQFrN0tKSdBdbWFZ1dXWdecFKTQgbu5Pt7OwMF5T8/93BeUVPAhYd6/LI/juGgmK60srJxQ1kOZBF1qNDdt9SFJHeqGdSnHnq0LXmsR79d+Zn3f293jcRAuc9dOjQhHwLPH361MXF5eHDh6SLeeKyc3bvPnv2TFVNTVbXdNuRe5Sz/0HhNOmSWALkgpoHpE5xfitsQJftu9EjJY2PrbHpfigw9XUsvhieSnpLb27uk8jjV3zPn3Q7cdm37KBjjzT4cEXgqG06/EyXctMBQkCT254n+9ghGzA7Tz5VNtwgKyc/IXj948ePgICAuLg40rW/ZpcZiT99cHDw1KlTcB7eYVcYlfNhWUk6d8qvG9Sz9OQRUwgvbiTVWIIo+M6vG4w580prrRObANjopLtrfx6WiXxQyPook0GO4d3rQSb68j32w3pZJChtuw0V7q4J7YezoBkBh/5hyYehhhgA7ZUDDgG9udcLNvZIgF66Lckfw0x5XXUIlwycT0oZG0qW7Nw30QazK3tcEo8jRGQ3brQl0VICS/aHDx+Oi4vr6OiYecFKZQj7/2PQtLS06OnpMS5mXeMZk1+Lmugg/YXlX+savl5E/0lO4fuqdR8cvB5GZFUUXLpw4kHx9e+FDWjSO+RQReuV4urqjONPQpM/W29+ISn1koG+DQw6HZI+CcVu0p9LXSVTr7foWngwsQDj4+NJP24eGhp6/vy5jo7Ovn37SNQBJS4yKeRudXU1BAKBCkpSVDwRiqWorDtdfBLKwztGtzun/pI3kBcHBPhHImwMAFC2bxOJEnqixWK/JH1wXhL/5X8cBeIa0UyzWMhIr2PukVdLEdaNwfvu8kuqcHJxX79+fULSNzQ01MPDo7m5mUIYbeqvgUajMzMzWYDs1qF5k9YknDrRUlELoQdqFwM5HKOIhZWYxOek32xTWm7ODGXTyrB07s5xGyrMv7e9n48Dy8if18iF/efWGsdWRBI+KOSDHavQ7PTf1spmvo5t1xJAA+nOXfJ5EWTYIw+7fmhzWFe2B2YU54AuA/n8xjJ0C+ndU0opRL5bbMlgBnKqqalNaCv6+fPnZmZms8Wq1Iewh4aGHj58aGNjwwWGWwZmjOvUeRIkPpeqbDtU//V/HOUyDnCDenn5uoVEusSl2tWWNK+2+GTh8M7e64V72OPAuMbt2TWxe2tj99zblv14S/wLj7A3m/0/mW9q1V7WJSndIyDUB0egODnR9AtxkjuOh8816QRZFvHU3vNJV74oG25gBbL7+vqOG9oNg8FUVVUFBwfX1NS8f//e1tY2JyeHGj0SEJHuKBSqpKRESkoKLiwVUHCdcgxlKJPSNgRlcUB4ww+T4azp8PXvrUuWYvBiquMYFgMAfFwnH9gzLLzJ9fMaRPqg8v368y4fcTpz2df/v+03/PYtH+0ACnJLaRhGnXpOlsO0KQ5i8L5KhKicqJhYUVHRuGdNHz9+jImJiY+P7+rq2r17t5+f36dPn+bSYnhoaKirqyskJIQLymO0KSju/Nspdu/crp5e0a603FxcdVnajZ9k/9L4C+8Vlq5bzAWU8dZ3bM/Y1pr+2lFzELioF8a2tyZ0VHUOfEYjSG9vy7hw3OWF+5Jv5gqDQPpeca637jr1USb7K4OJGD3r77UHQsCWW9In6nmM7L1R0DiUV4vauK2QG8pjampaV1c3Lt8dPnw4Pj6+ra0NK1jLy8vHrUJEik3lFlUi7KGhod7e3pKSEn4BQfVVdgkXKShawXSQ16TbTLvxU0Fe6zkcjmJnw5ev5Eqj2IC9/IJF2gZsILiJe9QkLKkn/WmUVhHZgPFHXuMRk1+2fPmNGzdIsVZ+8uSJmJgYLS2tuLi4vr5+WVnZuDHkpsLqs1UXg8E0NzeHhYVxQeBmfsmUE7qP0kgoeF8lGzdsU+S+qa9DdtcOvNvojr8MJmD5wcWLiKhKE0hoUi5v5Vu3aQq88dI7dHsrLlAcfkX7r8kQVX6sT/1Z3xLLqerdEJzNBeUNCAh4//49KdK3qKgIAADQ0dHp6+v7+PhQryEy8Xmgv79/9+7dIqKicGFp76yL8/smo84SCZc+ymqvJtFX/agtjJuZebvTOe4In6Qir6Gk9cvo4K6sCyfcjpb5Ewkug89uI9N+A/nVyev7YSwlFYGhnVnEYbrJtQBWGOfGbQWU4EkzuaxZe70rgpdv//79v3//JuWsSUBAgI6ObsWKFVjBSgqDE+eLSd+lVoSNNTR58OCBgYEBXEhqnU9i3Pl3lLAvMi7nzFiB3Jo+XQsPfgmlglNPSy6/P1P6uGzfzeqkQ48CE95Yun4yNP+mbdQur9YtLNYPg+NHXSYUxmxsvXz8v2SVvy8x/LDS6qVDwMPglLvpxy8W1x6/9O5I+de9t3/55FyCCIirGG6IKHn4t2ncIuvR0adfrHAIAUERoaGhpJtftLa2BgUF2djY+Pj4PHnyZBZngUlPH6RXHBgYOHnypJi4hLTmCo/0M5l3yKAFMWOsNAMP2lHymE9CScfcgyyRUwvr0aXnXt7JOPE4IPbDapsOGcWRDP7QRjWwNd1ttAPikeJ53JyI1vTE9wkRremjSu7NHZmCa+TElPWSy2bZZiO7stsv76q83hpBIeHDhw/39fWRSMM3b960+edv3759JIaOIrFlSiuGRqO/fv0aFRUFgsKX2fgnXf06A/RPRY/Iqe5TMbRiYmF3ij8y9cUw8Q9PuPhBcbkZpwTMpMzfDTVhn5j4bOuDQn5fKfFmg9K4SiaWj3ewCYNWbA6bdQWBxMufN2zNQojK6urqkrJ1jWMlb29vGxubyMjIWResVIywsb3569ev5ORkCQlJCJ+oTVg+5Vi8Euec6b6bfrNVe50LGwg+uo1zA2Z37cC+qu6Dt9qKr307evVzyaX3p848P3f8/qXDVWVFFVeLKi4W15498fDkuZcll98fKf96sKJ1X+XvXXWo0ZcxwwZDTeIqS4FckNWukdl3f0/3B1JI+7Fn3+iYubNxw9TU1cvKyiakeI2bDv6SBAaDefPmjaOjIxcIIqKo45df9rctxsYi2pADNVBBSUEZ9ekAoLtqBw5V/Cw9++J25snHW+I/mNr+klEaBLJ0M9EH6ImtueDtRrLVFL7AJj29+VemlJsOXEQ6+vSL0WcPouZfY3XaRPOR9ejAXRUSqsvZObltbGxevHgxt9e0U5xVUCjUrVu3tLW14cLSazxjokqfzfrJw0RHfJrKW2xJ54Tyu6eeyq3pm6ZH4DebdadzlUsEK5RLykPX6nkU6XxHUDLzcWQ/HHi+xIUgH//SFVOwrjoUrMynvtpudpVDsiu7N0XugwpIiIiKxsTE/Pz5k5St6ynS/HRUp3qEPTQ0hEKhnjx5Ymdnx7iYRXudy7x3sILGoY1hSAZGJh0zt5n0vhRz5pWC/jpGZuB6v+S/ATyFHawTlFEHsrFt3br1+fPnVDoFTMe0QqTNjo6OM2fOyCsosHHDrEPyZpI+8eUW5aSR9WiFZWYL6Ba6pZycAQC6t7qn9Pyrm7uuPnbwOQwF8fFxrq0Mxpey5E07d+fI+i1jYGVySTo+i66vkQ0Yu4jdHFA+CUnJI0eOjGsjQYSA/6pb7969W7NmzcKFC/nEFbfuuTMD9Ek5jDnqmyRc/sSFEDR23j6T6hPZld0GdgELGRh4lopv+jHsdG8Sv3PFmwe5GVPfxBGpa/loB0iehxPOH33qxaifPzOZSVe/LrXyYVzMYmlpWV9fP66NBCWz5FxA2Nj+/fHjR2JiooCQsJjKUtvtu+IuvP9r19wJlz7ChKQEZTQijz+ZyTkR2YBJKf+2ymUHGwhuFZw9fJ7QQBH+bsk7L+TXD0affmEekArmFdHW1rlw4cKsuAGi5GmF+LuhUKhnz545OzuDoAitNU5+uVdnd7+EvOQx0da8Ms8DuWGmHtFT91VP+qML6weLKtoyDlTJa6/kluNdeyfIdYJBGYnI6T+3BpFqsWsZgIxL1jrPll5Q1t2uwF0VOubu3FAeOzu7R48ezR80EWdP/LsYDObLly/79u1bunQZiEdorVdc5Immv9bTCLIebbQpGCYkNaySOiMHL7inpN34aRWWDRESFzZXsv0vOuMfRiMBc7/w0m3RFAwd2w+JY3uGgIkcCzuX3Y49s6V/n3j5s6l7NExImpdfMCoqqrm5mdoPmuYOwh4aGkKj0W/evAkKChKXkAAhBIydtsWcef234eyc6l5lA0tx1WWxZ9/MyqZRXu2AU/xRLpiAiIK2b+7V6dZUw81BM5DIqx3YUnhDcZkZGzdUSVl5//79VBrYHF+Izla6v7+/qqrK3NwcBIHxSSjZRez5C0+f4s69BfOJrXLZkVPVMyvhVzIq2pfb+1h+rl4AACAASURBVLMiuPT22jv35E5IZhMv7Iop0M6xAkLAazxjpsPfwrj8nnHrl2P0AQEZNS4Q1NTUtKKignSt69liCop9bkdHx5EjR9TU1dm5oXK6Jr65V3NrKMLf4rhkQMYCbikn2bhhfnlXZwdUNGCiTj2X0FwGVuJbXxPqSlrEGSyTFjyJ7JYAVyWsHdVMwm2o0KkrW9xWjUdcPnBXxax40oy78M7UPRrEI6SlpZWWljZnlLjmFMLGTk+Dg4Pfv38vLS1dunQZF5RXf4O3b87ltButZOQ0Sm7KPCCVCyZAxrCXh2/8OH2q6WDFBHwSIRswoQdrFZebs4HgG4KyZkZfbfoG5Z+9+e/uKaWSGkZQBK+Li0t5eXlLS8u8WsjUAUFvb+/Lly9TUlKkpKXhQtJm/inbjz6YdQub6aMl/JazK7vl9dbKaBnPbmzU3Jo++5172OAQPkOptbe2TkhyEwHZ+kWbWCHcjtEHZ1hg59UORJ54siEoCyEiJy4hGRcX19TU1N3dPXVanW+hra2toqLC09MTzsMvprLUOeFYclnzXNpDwWdP/DSyAe2bcxmEEFrnHT+7CpDpN1t1bTyAPFxK4ca2HxKIMCD+rb33tl05vDnx4+jlnXpypNx0IIJiEccezvDiIaOi3SmuWNnAkhvOr62tc/To0Tm2aTUHETZuHuzs7Lx8+fLateugcB6ogISJe9TOk0/n9nSwdfctNm44GW2cd9f0fbB37xUSOF/SiD/jkJLOqepxSTzGBRfQXu+adn0CAJ2UxmemTE51rz+yXG2VHRdcQFBIJDAwsKmpaf6UGcdi5EpgMJhv374VFhaqa2hwcENFFLTtI/ellH+fk1pG/5JuA2aNVxyIR3hn6bNZ/8xhK8B9N6X0DFnhnLq77FymHFPd4IgzK5TLJhw5k0HBUq+3OMYcElPRZ+OCKKuo5ObmfvnyhdpPmcnFYmRsB4VCPX/+PCwsTFhUjBPKq2Jo5ZNzOXtOR4L0SDvDxg1T0F9HCfpsOdW9NttzOXl5QAq866pCpqjftbkjU9ZvGTevYOjB2pmD1w2Y6NMv13knwISkxcQlNm/efO7cuV+/fs29Tau5jLCxc0p7e/utW7c2b97MwLAIJiRlGZiZfrN11kXadADE3Oo+mSXGkhpGWXe7yNV+6dnnv5WUegSFDt/4MYk2kfVop7gjTCxs+lY+mbd+TaKFWawSe+6N1lonVg4wCAwODAysqqqax9ZklNOjNvXu3buDBw9qamoyLGISU9bzybkyV00h/ZHXOCC8630SkfWDs0jk+I9OvvZF29qJkZPZ8JiL2xTUso0v+rAJg9RX289Y/O30m632EXsk1Q0YGBcrKyvv2bPn9evXc09aj8oys5WJQqHq6+vDw8PhcDgzO5faKruoU7PpKwafksmbzq7sEZTVZGHnCtlfTd6WJ91aXt1AyMG7vHKyXFIw6+fR+NvVE0o7dWbJeOkxsDA67Nw/YxNR5IkmA9tAHlG5hfT0tra2jY2NVG3LSJwB5z7CxnrObm1tPXv27Lp168AwHpiglN4Gr8BdFblVvZMmcUqrmHm708A2kI0b7o+8RsaV6O3UY4McwE8rzfdM1jPR8II7LJ8djJDTNQ3ZX03Gd5umIUgp/+4UV6xp6gjmFxMREw8ICLh3715HR8f8ZhjxqYRcdwcGBj5+/JiTk6OlpcUJRogp66/zSYg80TSXTp8ijj3kFVfklVBMvPx5msh4cs0mX29WN7dhE+Q2OunuOlpcxnHlt+EJNzZhEL+0SsyZV9O9kYFs+L/2zjouqq3r4wwSApLTzDB0d3d3d3cbmBggKogKKoLSYHcHqNe4ttgg6rUwQUBFRQSkY+Z9kPvy+HjVizgDM8ziwx8zZ85Ze+/vXuvs39lnB3npoSqvWWtE5bUE0ThdXb2srKyampru7m6Q19SKx5/YIZPJra2tf/3114IFC+TkFXAkGV2HoLCl21adfkP/9/nhB0hQUrEQjhS5fBdV1qoffro/P7Owoj9x700xdU2CiYzP/eQRLGwf1ZWvNteGk5fL1GvyKPTN593onrf5imXgbAxRkigi6uzsfPDgwXE/2JIpFPbQPaKzs/PBgweFhYWenp44AklMQds6eO7UrNKBKVaMvOpFYUW/XXgCJxePx4xV1BwlVkGudwsgsyKurtn9O3wKyvtmFZ6V17ESwpG+jMvs/fm9Y/R/Lawgrzn7flbBGVPvKWiihLy8YkBAwLZt216/ft3X1zfkP/BhNAk0NzdfuHAhMTHR2MQEiSUoGzuGp25POfiI0Udpr734SUbDFC0i+f216kd3jYJ/xlrOtTb3Bct5hZEyvtpet5N+6R20zf4YXmGktq0fTZe+zr/ZnbD9pt+8HFUzVySWaGBgkJmZee/evXE2gnM0Y+030+rv729oaNi1a1doaKiCotLAyED36Om5JzPONDD6g3HijnIhrEjw4g0Ft3r+GSxjfmTlmTotNy9BKax+hmfo+zX/+gA8dEJUV57aXGskkRSUVEzTVYzWXmqOy/nDLjxRQkUPK0x0dXXdt29fdXX1cLY9/k23pIfLmUthDxHv6up68uRJRkaGk5OTmLgkVlTGwm/GjPzTK0+9Hqt1an4nVidnHhHAELxmr1l3mZpb5e099apTlPRZQ3PP6d/uaasgr7vcEriwSBArYhe2IJs+tvQrrOhffvRl2NKtqqauSGExgoiot7f3wYMH3759Oy43MB/yf8b60NLSkpKSwoPhQ8oK86GxYoo6bnFpiTtuMeIM2oLyPsvAWSKyagt3VdDtraagvHdy4UExXTUBcbTN/pjo4WxJQy623BXJJ4zymp2Zc+UzLbowc662J+2q9Ji5WkJFH40jaGvrxMXFlZWVjcvhm4wVoUO5HVxmwNTUlF8CLUDCCuFEVIydQpZsWlb6nBGldub5RkkVfWP36C9L/VB+p42m3bXZ11qd5ibx4VDCRlI+95YMZ3xXVEeeyixLFFE0fv0FWtyFCsv7V//5dlbhWaugOTgxOZKYhJ2dXVpa2qNHjzo7O4e8hRk+MKnCHqra5ubmGzduxMTEcHNzTxJAiivpWAbMXEoHc4+GH5A5V9slVPR1HQKzqSqvi25Tzhb80cc76X5S1qZr7cPPz0/OLLjV6zsvh3sSv8vk1K/HaObf7BkYbjuKrxEKbvVOW3vMyDWSJKfBzjFRXFx8/vz558+f//z585BvwAf6IeDl5SUTou9zb4nF5hARS/kJbGwoYTE9x6CYlfuyzjPSJNqk3Xd4BdFhS7fRueAovN2feuqRqqstD57f+cysoa6vWEpxTHfBP7eB9Lm3hE8MqecYQov9XNde/OQ3P1fZyBFNlGSdMMHExOTw4cPV1dUwL4J+InQoJ+/fvyeRSOabQ90uz9VMchSUxrBzcBKlVe3CExK33xzNjVp+0hIN8ye/Bbn8aOGUg4+Gef5YnZZzs23ypt0oaRJeXyK4ftXX0RrVlf/118HP5htDOCZxhSZvLqDBJJBlJc9sgudKqujzCqK5uLgiIiKuXr3KtO+XmF1hD47Sbmpqun79emJiorW1tZiEJIogrm3rF5qyJWHbzYGVXEdR+Y0gRAMXFiHxogt3VlA9n4/iFncSicf3VxZV9I8gY9+9JOdKm9u0FQJogoFL+JL99wfzHJqyxT5i4bpLLd+9hFoHC8v7M/5smLupzC0uTUbTVAgjLCUt4+TkVFBQ8PTp09bWVhhpPdRM0tWHuro6ogjRrmTqoLwLebva/ug0hUgjlAKRD4UlSCpZ+M2YmlWy9NBjeu5qKrpNyb7cqmMXIKdjOSbrQ/96HJGX/flY2cEaqYA3yQ8Ib1obSymO6s5Xm2czsA3k/3dsx/QXOf85W8RCTlrDeMXRF9S6C+Vd70w98nTaumNWgXOI0ioYPFFDQzM0NPTw4cOvX7+GV0x0FaFfZ+bgwYNIcWxw3coYclHk55yAF8tN1weLu6oJiGIFsQQpdSPXKcvi118cGJlAzw1rBXnupjK8uLxj9BKGmGydX9E9c8cfOCUpMUflgP/fuDG4bqXaXJvIjtwhkR3Zmm2U588vjrYMmEXFLrmsC02JO8rDU7frOgShiBIkMQkLC4t58+ZduXLl48ePzDwpAhT2f28OZDK5vb29vr6+pKRk8uTJ6uoaKKwwiiCuYenln5A/oLbPNdJDz9OCbTdCkjcNviIfHCUWmryZmhmrIO/+8/XJbWVtCgoftQxPb7u84/wHKt4N82/2xmYcEpXXxJCkp609Om/TFX4Ujo2dY0pmya+LgH95c1dYQV51+vWMvFOO0Uuk1I2EsCJ4AsnCwmLp0qU3btx4+/Yts720+q+7M86nrKwsnJZY+KcBhfff/77C0HdrvO8uNtsQLOWtJSQtzI/GCUsqmnjGRqbtTjn0OPd6Jy3GKvyqi4ambI3fcLGwvH/V6Tcalp4ogsTivX9RMZp+NT+/en7WtUbLWZMnYfhJVvJ+VUsNMr3YONlxOuLBXzaWi+4tMMjw4uDhVNC3Tf+j9jfLlXe9a+nhJ9Er95l5TyVIK/OjcJJS0h4eHoWFhY8fP25qagJhTedR29vba29vrzLTcugBbDBgo7ryg16lO5+brbvCTcRaQUAEhxGRUjSwc4hMmp7zx8qT9aO2kMVP/L+wot85JjnteE3RbcrM/D9RwmJKhg5ZFz/95BI6+4mccvqenK0JSplgtiEk5M1qCQ91tonsbmXzBmsh/GOWjJ82Fx+vfcTC7Cttv5P5wgpy+ona+PUXAxcWaVn7oIgSSKywqqpaVFTUoUOHamtr29ramFlYD8UpKOwhFP/zob+//+PHj8+fPy8tLZ0+fbqevj4GTxTCkaTUjezCE6dklSwrfT7wwmssnsIDFxaxc3IZuIRPXnNETFHHxGsyteY4bylrubZy+1sn7yZzq0YLWzIH6ztLhzZNzc9KKhVL8ke8nMg/I7mwgpx5vtE9Lp0fhZ8kgEJ8+VPQs8m5SoXhKNlXPi/cWRGSvNnQNUJUQVsIKyImIWlvb5+Wlnb69OkXL15A8P+Pr9P3l0+fPqmrqxtkev1kyl10T0HIm9VelYvMN4VIB+milUX4MTgsSUbFxMVzZsbsonOr/xyzGVeqpq6T+JEeM1drWfvw8AlGrthNzYfhUZkWmVfeEX/8tJKr5SSCIDs3x2C06q3yiOzM00xyEMDj/RPyV59+O5KbYQU548y7Oesves/JVDNzw4vJCWKEFRSV/P39169fX1FR8fr163G8khd9R95IcrdhwwYkDu1Vuei/T8JfPxV/+RzVnhtYnWZzIFYjwU7MSUVIEi+IJYrKa+o7hwYv3pi4/dbALJ2xaFhTDj7iR+GFJZVCU7bgJeSlNYzpYa36f7aePz+y5vpbk7gwLiTvJKIgKxsrAoGQ8deJ/Jwd/Hq1mIOyqKLWjLxTI3vXt+5yy5L996etO+YQuUhGw0QQQxQmiurq6k6bNu3w4cNPnjxpbGyEhQG+CRtQ2N8A+c5XMpnc3Nz89OnTEydOpKWlubi4yMgOtAQ4MVkVE2e36WnTc08sL32Rd71rdPrMzHymDTRyrKxsHJx8QpjUkqc/D7lh/nrg6NO3Du6tSirlqev3nax5FjWnQ1xs7+m6w6VVzVp6fdzc19O2UvfGt/ZSs6iC1mCDjUAg2Ng55hRfGGZuvz4tu+xz0p47UWl7rILmKOrbYkkyKCxBQ1MzLCwsMzPz7Nmz9fX1nZ2d8Ej9Heem70P9/f0LFiwQEkEHVqf9pM3++qfovsKwD5nelYusdkSozbUhmssKkHBCOBFRBS19p9CAxIK5Gy9njJbgzr3agRGRRiAQE9jYEKys7tNXUuUZ8mvnH7XP8/df5uLjG4pWAWmsTKAukig6I+/U8POQd70r7XjNvM1XApOKDVzCxRV1hHAkgoiYiYnJ7Nmzt27dWlFR8f79e+irpu+4/H7uqqurlZWVxeyVojryvg7Jn3yO6soPeb3K5UK80TpfhUgjrLY4Pw6LEZGS17Wy9J8VuWLXwl23B6bvj4rg9olfO5GH90u0smNI0ov23GG4h+HBSFx5vlZMQ5OVdUBeIxAI9kmcusvd8PqSstrmy0tfDF+lrL3UnHzg4Yy80x4zVqmZuaGJkgIonJS0rKOj47Jlyy5dulRTU/Pp0ycYXfn9ePhyFBT2T+B8/6fW1ta7d+9u3rw5MjJSWlqalZWVm1dAREZVycDONnT+rMIztG5ElQzthto5NnYOu/DEvBvdw2/kvnvm1iut7xzc+nm4LueWrL/Vu/5Wb7O23msLl8F+68fTFpFZEW8tHDdd7/ju5SM7GJW2h51z4lBZEAiEhd/04d/UVp16HZ663cJvhryeNUZEip2Dk4ODQ0VFJS4u7o8//njx4gVMhPq+BzPO0VevXikpKYnaKUV3DrfN/ro5jyEXhb5b4351vv5KDzEHZS7kJFbWCfwovISyvratn+fM1Yv33KXFXJ+hcEjaVcknhBnycJyY7JSskuG3cEN2xv5DBdnQNXKozR4oESuCnYMzYtnO4QAsLO9fsu8vrzmZqqYuJHkNAQyBdcIEAQEBGxub5cuXl5WVvX37Fh6AGScuv5/TvXv3cnNz66/2/DoGh/85urcwsDrN6eQMlVlWGA1RNk52dg5ONFFCTsfSzGdaaMqWlSfqaCq1dewD2NjYB6OVk4tHw8JjeenzsQ+9X39P5bcgl3Mi99BtZ6D3ipMdRRBbvG9Y49PyrnfOWX/BPjxRVtsCLy7PwyeIQCAkJCTi4+MPHz48uDvE9z0Ajv6DACjsfyAZ3oGenp6mpqaamprTp08vW7bMw8NDR0dHXEJKAC0sLKmkbORg7js9KGn97MKzy0qerbvcWkilyYL/WVsHJy73dfBM5OZ1jk35nUWCi8v77iRm9fFy13iHb/6yH+TB0iddBOE7CZmDd7RbyQVkVkS7lMz2i1Rbt2HhzgqSnPrXBUEgEDhR2TVnv7d5ZAU560LToj13p2aVBiTkWwfFy+tao4kSg7MVDQwMIyIiCgsLy8vL6+rq4Kl6eC7MAGft37+fl5dXb6XHT4aIDKcJj2rPDX23xv9Jqs3+GNV4a5KtIlpFRICIFcQSxZV0jVwj3eJWRCzfNX/L1ZUn66m4fFXgwiKuSf/t90UgEEhhsWlrj1HrbjA6zX/utQ73uDQefqFvolVG0/S7K+nm3+xZder1gq3Xo9L2OEYt1rEPkFDWE8SJ4AgiWlpaLi4us2bN2r179+PHjxsaGtrb20FbM0AoDiOL0dHRnLwTvSqShhOSPzonpr8oomVdcP0q78oks+IghSgjYSNppIwwPxaLIojL6VhaBs72m587JbMkaXdl5vmP1HpeXXe5VUxJ52sPn8DGLqNpOrBx0q9r3DG8ZFnJMyxJ5uuCDH62j1j4zztbYQU5u+zz8tLns4vPBy/eaOE/U8XYmSCtLIAWFhWXNDYx8ff3T0lJOXnyZHV1NWy7Nowg+PYUUNjfEhnZ956enubm5vr6+vLy8k2bNi1cuNDf319f30BsQHPjUcLiogpaOg6BLlOXRaXvnV18fvG+v0Z2d0j74xWvIHooftjYORQN7GYWnPln8AwzyDdfbauakdyDQXWQSAeO//3IfiulqFeQ//CRv1cpqkjKIbMiejCoXWcbhmn2X0/LOPNuRv4pl8mp6ubuwhKKX4TIwFutgMSC9BN1i3bfmVXwZ8jijTYh81RMnIkyqki8KBIrLCevYGRk7OXllZycfOTIkcePH7958wYif2ROS/9XeXt78+D4/J+MfFvg7zbkUR15YR8yA2vSXC7EG67zUYgwFLVVxKiLChBxAhgCQUpZydDexDPWO37t1LWl87dcSz3ydGARul98VV1Y3q9h6TkwPuTvP1YkXtTEM3bp4SfUkgX/GmVUOaHgVm/y/gdR6Xusg+Yo6Fkj8aKDXX3cvAJJu24vK3k2b/OVaWuP+c7NNvWaIqtljhWVFcQQcASSmpq6i4vL1KlTMzMzz5079/Lly6amJthwkf7jbgQ5/PDhA4lE0kiwi/yc892gG9nBmP6iyNbskLer/Z+k2pdO1U51kfLRwptIIxVE+LFYITxJXFlX08rbOjg+eNH6mfmnkw88yDjTkH/zl1/qLtpzF4kX/f9QRbBzcokr63nMWD2wGx1DKey1l5qnrTvmOWu1oVuUpKrB0DQnaQ2T9BO1S/bfn7P+QszK/W7TVug5Bosp6qAI4gJovKi4pJ6enp+fX0JCwoYNG27evFlXVwfra40gEL65BBT2N0Co9rWvr6+lpaW+vv7OnTtHjx7Nzc2dOnWqvb29qpqaqISUEAYvhCeR5DU1rbwt/Wd6zFgVlbZndtG5xXvvrThes/bipx8NlphdfJ6Ta+AFkBCOZOASPj335MCk4F9s+7++ZVzO2t+LRZFZEQ+nLir+sjrmhpvdHyxs3xlYbr7693TjZxGzBvuwd1ygTh92/s2ezPMflx99mbD91pSsEo+Zq409oqXUDLl5Bbh4BQQwBCRGWEJSWk9Pz8vLKzExsaio6OTJk0+ePGloaGhtbYVhmlRzUzo2VFdXhxfGG6zx+nq1qZG10z+/Kqa/KLozL/xjVmBNmtvV+WYbQzQXO8qF6hPMZVEKRAEijh+NQxMlpdSN9J1C7cIT/ebnTl5zeO7GspRDj1edfpNzpe27innV6TcESaUvbTarmIJ2WOq29BN1DLHy19f3h6LblJyr7atPv116qGreprLItN0OUYs0rb0JkkocnFz8SJwAGk8QEZOTVzA1MwsODl6xYsXOnTvLysqqq6sbGxtBT9NxhFEza/v370fJ4H0fpvzm66afh+rAr32FkZ9zBl5JPVvmdHqm4Tof1dlWUt6aeH1JIamBHakEsSI4MTkFPVtT7yles9ZELN8Zl308YdvNZaXPM883/mhB7tjVBzm5eAZGLXNyqZu7z/myniBjvWsquk0prCCvvdS8rPT5wl23ZxWeHeiW9psurqTDK4hm55woiCEKYfAkcUkVVTU7O7vJkydnZ2eXlJTcvn27rq6uubkZ5ilSMyS+2AKFTXWkPzRIJpM7OzsbGxvr6+ufPHly+vTpvLy8mTNn+vr62tjYaGhqikvJCGHw/Cg8Ei9KkFSS07HUtQ80953uFJMckFgYs+rA9JwTNqHzufkEDVzCk3ZV5lxt/27T/k0D+ZOvm651fDQyJ7Mi+ngnlRx6MHjm1XX7u/G424tzB4X7lrLWFnVNMivitZXrxuudP7E28FMFOfdaR8aZhtQjT5J2V87dVBaXfTxi+S7v+LUOUYvMvKdqWHhKqhpiRWWQeBI/Co8VFpGTV9DX17e3tw8ICFi8ePG2bduuXbv27Nmz169fNzc3g5j+oT+N9x927NiBUSIGPFsWS/5qkb5/LE3w703yiC4Z6Dxrywl9lxFUk+59b4nt4Sn6qzwVo40l3NQIZrJoFZKgqDAfCiuIIaIIEqLyGspGDoauEdYhc93j0kKSN0/OPOI3P3eSIFoIR3KLS1txvJoe1iP7JngLy/vWlbWuPFmXfODh/C3XZhWemZJVEpqy2X16uqX/TD3HEGUjJ1F5TTRRUhA7sPQ4Nx8/N88kQ0NDV1fXyMjI9PT0gwcP3r1799WrVw0NDZ8/f4Y5T+M9KH9YvqCgIIVIo6ju7+xvQqMI/R+zfYUDY0ter/Z7vNTlQrzlzgitZCeZIF0Ra3msjjhKQUSAgONH4YRwJAxJWlJFX93c3dR7ikNkktfszIhlO6atO27sEcPOySWmoB2dvm9kr5e/CS4qf60g593ozrrQtOJY9aK99+ZuvDw992Ts6oOBC4ucY1NMvCZrWfvI61oRpJSRwmL8KBwfCs3JPQmNwVhZWQUHB/9nvnhOTs7Jkyerqqrq6uo+fPgAU/9/6MpU/QEUNlVxjshYb29vU1PT8+fPb926derUqe3bt6enp0dGRpqZmREIBHb2v+desLFzcPPyc3JNmsjDS5RRlVY3VtC30bD0NPaIsQtP9Jq1JnjR+uj0vbMKziTtqkz/49Xai58KbvX+PM5L99/pwWLJrIgWJbVtlwcW/tx4o6vBw7+fm+PY/srBay+uP9VFECazIioT1xZVkAtu9mad/5h65OmCrdfjso9Hpe0JXFjkNm2FddAcfedQNXN3eV1rCWV9gpQSRkRSAC3MxcPHyjph8O3bxIkT5eTknJycZs2alZGRsXv37gsXLty7d2/wARrE9IjcZ9xeNG3aNClfrZHNcfyf1ndECvv7FsgDvd2h79b4PV7qfnWBXclU06IgrcWOMv7aOG2xiQLciL+n7yM4JnIPeP6ECfxInKiCpqyWmaqpq75jsLlvnFPMEt952WEpWyZnHI7fcHHJ/vurT78deFoup9q+ToORW/jlcXf1n2+TDzyYu+HSlMwjYanb/ObnOsckm/tN17bzVzZ2lNUyF1PQxovLC2FFJgmgOP5/gtQEtgmTcPxYTVEZXy3NJAfTggDVmZZsnGwzZsyor6/v6OiAwdPjNvB+vWDd3d0yMjLmm0K/HzVUDMBfMtVXGP4xK6gmzeevJa4X4633RhtmeqvNsZZwUUUq4Nm5/m5YWVknTOTh5ZjI/WVipaSEsp68jpWmlZeRW6RV4GzXqcsDEgujV+6fkXfqy4CxJ5nnG0c8JvMnzXHBrb7Mc43Lj74YGCFZeDZ65b7gxRu8ZmfaRyw08YzVsPRS1LeVVjchyapjSNL8KDw3rwA7B+dgw8rOzSkggSYYS8tHGOqmuemnu/MSBLm4uXbt2gUr6P26O1PzClDY1KT5+7bIZHJvb297e3tTU9ObN2+qq6urqqpu3Lhx9OjRjRs3ZmZmLlq0KCYmxsvLy9ra2tDQUENTU0FRSVxSGk8kITF4PiEMPxIniCEihcXQREmsqAxRRlVcSUdSzVBG00RWy0JBz0bJ0EHV1EXd3F3Tyjvd0KqPg53MirhAIJk4Buk6BEVYe34g0VCfhQAAIABJREFU4l9N4jbVt1Y0tNfSs7mmqNQ3kaNlAquVhIywpBKWJI0mSAjhSAJoYT4hDJ8gGokRJpLEpGRklVVUNTU1jYyMHBwc/P39J0+enJCQkJWVtXPnzj///LO8vLyqqqq2tvbdu3fNzc0dHR0gqX/fYcarhd7eXi0tLcMs7zHpwB6mUIjpL4rpzo/8nBPWmBlcvyrgxXLfv5LdLs+zPRhrUhigneKsOstSLsxA3E2NaC6L1RLDqJJQ8kRBcTw/HsuHQvMKovlReEGsCEpYHCMihROTI8lpSCjrSakZyWiayulYKurbKhs5qpm5alh4alr76NgF6DuFGLpGGLpG6DuF6NgFaln7qFt4qJq6Khs7KurbyulYymiaSasbSyjrkeQ08OLyGBEpFEFcCCvCj8LzCqF5UWh+PFZQXBgpR8SokbC64kQzWXFXVblQfbW5NrrL3UzyA2wOxLpemuv3KCXw5Yrg+lVhHzLDP2bZHoxFqxLd3d3fvn07Xl0OyjViAg8ePEBhUT73lwwzcMbmtL7C6M68iJZ1oe/XBNWu9H+S6lWR5Hx2ttXuKMN1vpoL7ZWmmskE6Ig5KuONpTEaomglEaQMUVAUz4/F8Aqi+ZBYAbSwEI6EJkhgRWWJ0ipiCloSKvrSGsayWubyulaKBnYqJk5q5u4aVl5aNr669oEGzqGGrhEGLmF6jsE6dv6aVt7q5m6qps5KRg4K+jay2hbS6saSqgbiyroiMmo4UVkUQQKJFxXEEPmRuIEUMRgBAlZIUhilKILREMMbSIpYyUt4aihEG2ssdNDP8DLbEGxfOtXjRoL/02VBr9JD3qwOb8oKrF4h7qgsgBRcsWJFR0fHiOsULqQKAVDYVME42kb6+vo6OjpaWlqamprevXv3+vXrmpqaFy9eVFVVVVZWlpWVnTp1qqSkZM+ePZs2bSooKMjOzs7KysrIyEhPT09NTV2yZElSUtKCBQsuG+uRWRFkVsQpG4u4uLjZs2cfNtHvY0U8srVMTUlevnz5jiD/z7wTyayIei/XjYWFW7du3bdvX2lp6dmzZ69fv/7XX389ffr0xYsXtbW1b968+fDhQ1NTU2tra1dXF7wvHm2fGF/p/d1mP0gem8b4l7rKfnpyDLkouqcgqi0n/NPasA+ZoQ0ZwXUrA6vTAp4v93uU4lm+0PVivOMf0+0OTbbaFWm2Idg4z99wna9Bprf+ak/dFW7aS120FjtqLLRXn2+rOsdaeYaF4hQzpalmytMtVOdYqc+31Vxor7XESXupi+4KN/3VngaZXobrfIzz/M3WB1nujLA5GOtwPM7lQrznrUS/hykBz5YHVq8IrlsZ0pAR1pgZ0bwusi0nuqcgllz0I85R7bmqc6wm8nOHhIR8+PBhfHkZlIY6BAoLC/E64hEt2T/yIkY5HkMuihp4Zs4O/5gV9n5NyNvVQbXpAS9X+FUt9b672P1GgvO52fZHp1nviTLfEmpSFGSU62e41scgw0tvpYfuclftFGfNJAeNBDu1eTYqs62Up5srTTFTjjNXmWmhGm+tvsBOc5GDdrKTdqqLXpq7/mpPw7U+Rjl+JgUBZptCrPdE2x+d5nxmltvleV6VSX5VqQEvlgfVpAXXrwp9tyb8Y1ZkS3ZkR250X+FPYAbWpBPNZY2MjcrKymCrJuo49+9ZAYX9e/wY/eo5cYMKm7Jnx0BRenoo1iZkDlZK2cWBr+1tFGfbgRP0tCj1tYxeVsg/AxHYuHEjTkssonndT5oT+InWBMI/rZUPM5CUkdq8eXNzczMD+Q9kdTQJeHp6qsy0jOn/4XMarR0V7MdSin0fJGO0RB0cHGpra2EQ12j6/0/SAoX9EzhM8NPa1X8r7OK8gdLerSTjUZSIAMqnj5T+fkrWSjIvF1lfk3L7FoVMZgIcUER6IRAYGKg42RTa7LGSDjHkIu87i8SdVVTVVCsrK0fwSurDlz9o6eklomiWj5aWFhKJZH902lj5KqQb+TnHfEuokCwuKCjo3bt3NKtqMPzLBEBh/zKycXXBxXNkJD+ZFUGZMYXS10fZtpHCO5Fy6hilt5dy4ypFSoTiYEm5f3fgJ/gDAqNFgEwmKysrmxYGQts5VgRcL81FqxDRGPSlS5dGoJIfPXpkaWnp5eXV2to6Wl4D6YwNgbt37wqhkQEvlo+Vr0K6+qs8OPm5DAwM6uvrx8YJINUfEACF/QMwTHK47TPFx5XMxU6Wl6I8uEeJDiWrq1BuXqOcOEox1aO42VMePRjozB6tvzt37uTl5T169GgoQTKZDJufD9Fgkg9v3rzB4XDuV+ZD2zkmBLxuJ6HVRCSlJLdu3fpN9LW0tOzduzc3N/fnQTp58mQEAsHLy/v69WsmcVqmLeahQ4fQCsSwxqwx8VUmTzSmv8h8S6gAEens7FxeXj6Ch2Gm9dvRKTgo7NHhTMepfGyk7NhCDvSlOFiShXjJSrKUAE9KdMiAyG5pHs3BIceOHXN0dLx7925XVxeFQmlsbMzLyzM2Nra0tKypqaFjgpA1KhM4c+YMShwX2pDB5M3nmBTf4XicgAQ6Kirq+fPn3+xA0d7e7u3tnZeXV1tbOzib+cqVK1FRUXJycpaWlp8+fRr0gzdv3oiIiLCwsOjr63/+/JnKzgHm6IxAYmKihLv6mK2E/dN5xmMSQaOWaFRXvnaqC4qAKSgo+Pz5M8hrOouMgeyAwqbDShmLLHV3UzYWkXm5KBfOUpo+Urq6RlNbDxbYwcGhqKiITCa/fPly2bJlSkpKEyZM4ODgSE5Obm9vHwsokObYEMjKyhKxkItqzx21tgoSiqUUR3XlmeT7CxKQS5cu/a4yvnjxopaW1sePHykUysuXL8PCwvj5+VlYWAQFBZOTk4d6uw8cOCAgIMDCwrJhwwZo9ccmhEYxVSsrK51UF4igUSYQ+GKFYpQRSVy0tLT0myfhUax8SOpfCIDC/hdAo/wzmUx+9+7dmTNntm3bNtiVO5SBR48epaWlHTx4cKglG/qJOh/mzSArSFM+NlLH2q9bCQwM9Pb2vnTpkomJCRsbGwsLCxaLzcnJ+W5j/+vm4QqGITBlyhS5UAP6n+YYQy4Kfb/G6cwsi23hUV3/s5ud36OlBhleHjcSB9bCY4RutojmdepzbbiEeOLi4n70QFtRUSEiInLgwIETJ06YmJiwsg7sr+Pq6nrp0qWvgzQ9PZ2HhweJRMKrJ4YJuZFmtKurS1JS0npfDP07eWRbjmf5QtMNwb4PUv4nt72F5ptDbQ9OjurI+5/jdBy23pWLCMbSPLyT9uzZA/J6pM47GteBwh4NysNMo7S0dGAJBUVFLBaLRqPPnTs3dOGZM2dUVVUnTZqERqNv3bo1dJxqHzo7KQZa5AAfSvfACI0x+btz546ZmZmioqKPj8+cOXNyc3P/+usvWDN/TOpibBO1sbGh/14x+9KpMkG6SEVhbiwfF5rX5fycoebZ6cwslCqRg3ciD0HQ81bi0HG6/RDWmCkfbsjFzxMSEtLQ0PCj2u/u7l6xYoWoqKiBgYGPj8+iRYtKS0sbGhq+6aiOjo7m4ODw8vL6po/gR2bhOOMSuHXrFgaD8apYSLe+HUspDn23Rmuxo7CR1CSCAKcAt5SPVmTH3+/Hwj+tVZ5hMRHJw4XmtdwezhBjXbzvLsLpiBNFiGvXroX2kc5jBxQ2HVVQa2trQ0NDVVVVSEgIAoEwMjIanIl/5swZPT09FxcXDQ0NHR2d+/fvUz/T16+Q0UKUg3upb3nYFisrKx0cHM6fP0+rTvph5wROHEMCnz9/FhcXtzs8hZ7b7FhKcWRrdmhDhl/VUrkQPRYEQthIKrJ1YMcN5zOzcHoS4i6qSBUi0ULO5z69b5rj92gpwVRGS1v7yJEjP1/6o6ura+HChfHx8TU1NT8K0r6+PjMzMw4OjgsXLoyhF0HSo0MgPT0dRcKGvF1Nz9Ea3VsQ9iEzsDrNOM+fG8OLmMBqczB2UHkrRBiSbBXwxtJYHTH7Y9Niuun6jVMMucju8GQBcXRYWNjjx49hU+TRcfLfSQUU9u/Qo9W11dXVaDSajY3t7t27ly9fdnV1ffjwYU9PT1NTU3Nz8zc9RtTJROpishiB8nbMJv6/fPnSzMzsypUrNCkddRiBldEgcO7cOTQa7fvof9/k0vEb28DqNC70JFa2Cd53F7tenivhqub7MCW6pyCsMSuqPTfmx9sljrkoiSEXORyPE5TG+vj41NXV/Wvord+wITIysq2t7Sd+0NjYqKqqamtr+6OhJj+5Fn5iLAL9/f2Ojo44bXFG2RkqhlykNs+GhYVFKkAn4PlyUTtF/dWeUe25kZ+zI5rX0fmwtIhPa3VXuAkR0GlpaV8PymIsn2G23ILCpscaJ5PJNjYDNwJfX9//LKZRVlb2r43fbxXjw3uyjho5LIjS0/1bdkZ6cWdnp5OTU3h4ODyUjxTh+LkuLS0NJYYLYZyFRGLIRSQbhYFm21cLbyztVjafnlX1kKz3uZ8sF6wnSEAlJye3tLT8qwN1dnaqqqo+ePDg52c+fvxYVlb26NGjPz8Nfh0HBN6/f6+qqiruosoQgysGPd/5zCw2LnZeUaSUj5bZhmCGmE4d019ksz8GqyEqKiF2+PBhaCUZKHZAYdNpZS1YsICFhYWHh2fjxo00H8544yplWiTlj9KxYvHp0yd1dfXY2NihBwkymfzs2bPdu3efP38eZnKMVb2MSbphYWFYFVJ4EyMtr6ueYMfCwsLOw2G2MfibKY9DipauPgTVrsTrS05gm5CQkDDMoZyfPn0ikUjV1dVDXtHW1nbu3LmtW7c2NDQMBenHjx//+OMP6GMbojSOPzx+/FhKSko+0pAhHikHAzC4biUXahKCFSHlozk4rIuuAvO7mXE6OWOSsACBQDhy5MhQoI1jvxpPRQOFTae1uXPnzgkTJsjLyz979mxId9Iqrx0dA0uIdHbQyv6/2e3r60tMTJSXlz9x4sTx48fj4uL09PRERUWRSKSxsXFzc/O/GYDfxwmBvr4+c3NzYUOpyM85321s6POg5a5IxARWQXlcwLNlsXQ8LGSQnv+TVJKNgqKS4qZNmxobh7t2UF9fn62t7fTp02/evLlz5864uDhlZeX/rPYjJCSUkpIyFKRkMrmvr4/mt6xx4u+MXYxr167h8XiNRHv6jMrv5iq6txCpTGBhYTEpDKD/UI0hF9kfixOUwbq7u9+8eZPmfW2M7Y/0mHtQ2PRYKxQK5e7du/z8/Ly8vNevXx/3zRWZTH7y5Im5ubmEhISwsDA7O/vEiRPRaLSpqenBgwfhqZ1OfZQG2RocxSvuykjvnWMpxd53F3Pyc7HzcrpfX0DX/Xl9hXZHpghKYz08PF68ePFLNxYymbxz504kEqmgoCAgIMDOzj5p0iRpaenJkye/e/cOgpQG0UDvJo8ePcrLy2uc5/9dLUu3B+XCDFhYWFRmWdL5wOvQ95naqS5CBPTXT7D07hOQv/8lAAr7f3nQzbfc3FweHh4WFpakpKSfTy2imyyPMCMNDQ3x8fFeXl6ZmZkvX7589erVs2fPXrx4UVtbC/tUjZApw1729OlTaWlp+XBGeu8cSyk2yvVj5+FkYWHRTHKIbKPT3nf3awsk3NSQBPSyZcuGupyH4ylkMvmvv/6Kj4+PjIy8ePFifX19dXX1s2fPXr58Cdp6OADH6zlbt25lY2OzOTCwLgej/Ic1ZqHVRFgQCLyxdOi7NfSZ7eieArONIUhFYUlpqZKSkh+t2zNe/Wo8lQsUNj3WZnVNTUREhLu7OwsLi5iYWH19PT3mkhp5evbsmZub24YNG5qamn6pR40aiYMNuiMwuKeJWrwNfbZ8381VYE2afIShhIc6CwsLvxgquH7Vd08bw4NRXfnGuX4CRKSZmdkff/zxSzOlent7s7KyzM3NN2zYAMuD0F3AjGmG1q5di0Agvl4JfgydfJhJa6e66Cxz5eCbyCnA7Vm+kA7fOIW+W6MYbYwTwc+YMePx48fQLI6pj/9u4qCwf5cgLa5PS0vbv3//6tWrWVhYEAjE9evXaZHKmNvs7u52cXHJycn5pSZ/zLMNGaAdgbKyMhwOp53iPMz2kh5O001zs9kfo7/ak2UgXFk8rifQQ66+zoPhWh9OPq4pU6bU19f39/f/UvWdOnXK1NT02rVrEKS/xI0ZTl62bBkCgfAsp+vtZr4OBO87i6R8NYPrVvLg+VlYWMw3htDbKiihbzNk/HV4eCdt3bq1s7OTGbxofJcRFDZ91S+ZTL58+XJgYOCHDx9KS0s5ODhYWFiKi4spFMrHjx/T09Nfvx6zJaupTmrbtm0BAQEfP36kumUwyKAEzp49i0Qi9VZ5fN0u0vNnt8tzZYJ0wz5k2pVOncDBxsLCYlocFEspDm/KsjkQO+Zbpod9yNRb6SFAQM2cOfPdu3e/2h/W1NTk6OhYWloKw6wZNKBomu2FCxciEAjfB/S+p9LgDSSoJk3MXslyZ0RsXyFOX2JgeU1vzfCmtbGUYvuj04Jfj/Wrp75C673RWB0xgihx48aNw1zhh6b1C8Z/nwAo7N9nSAULT548OXv2bHd39/Hjx83MzAYXwK6trUWhUIOrYre1tc2ZMyc/P3/cvKg9duyYrq7uixcvqIAPTIwXAidPnhQUFDTM8qZnVe3/JNX57OyY7nz743FEMxm3snmx5OLg2oFVwAZXxY5sy1GdY+V6KX4MFyuI6s43KQpEKgpLSEns3bt3ZKsQxMfHL1myBOT1eAkvKpdj7ty5CATC/0kq3Uar/5NUuyNTAqvTIlqy5cMNTIuDBhfAVl8wsLzmhInsXpVJHjcTlaebj+3C2KHv1yhNM8cQsWFhYbdv3/7VF01UrlcwRz0CoLCpx3KklshkspmZGRcXl6mpqbOz8507dwabtP7+fnNzcxYWFm5ubkNDw6KiopE1kyPNFw2ve/r0qaKi4qJFi+BWQkPKDGj69OnTgoKC+hledNtmx1KKiWYybNwcBFMZcWcV7zuLYvsKYynFMf1FRHNZFhYWNm4OvKGUSVFgdO/A8TH5D6xJkwnQIYgS58yZU1VV9atd14OOc+LECVVV1VevXjGgH0GWR4PA/PnzEQiE36OlY+Lkw0mUaCbDysbKJ4YkWsiZrg8aeqfkeHIG20R2FhYWIXmchLt6YE3acKzR5BxyscvFeKyWmLaO9qVLl7q7x2bTt9FwF6ZMAxQ2XVT70qVL5eTkgoODq6urv24Oz549a2pqqqamtmXLlvE0oXjVqlWsrKznzp2jC/qQCbohcOnSJQwGo73UhSaNGZX0rvZSZ0E5nEyIXmB1Wiz5vxra+exsvKk0Sk3EfEvoUFs+ygWJ7imwPTRZSBZnbWNdWVk54sHTHz9+1NXVtbW1hbfVdBMcdJeRlJQUBALhVUG/47AHQlUWi9EWtdge/nVIRnXkKUQZCchipfy0BqKYSneGX7XjcSNBxl9HkICaMWPG27dvv2766a6yIUMjIgAKe0TYqH1RW1vbw4cPW1tbvzHc19dXV1f3/PnzcfaiNjg4mIWFBRT2N9UNX2/dukUgENTm0vVaIpFtOb6PUiI/Z3/ToMb0FwbXrQx4sTymf2x6r8MbszTm2vDg+K2trb/efHEEflVZWSkiImJjYwMKewT0mOSSNWvWIBAI14vx3wQC/XwdCNWHKUE1af9c+jr801rfhykRzQPjsMfk3/NmIlIez8bOlpSUBHugjteQAYU9XmuWrstla2vLwsIyZcoUaL/pup5GPXOPHj2SlJRUiDKiw1W0xqQZHn6iPveXiDsq8wrxBQQE/OpuMv+s53PnziGRSDQaXV5eDl1r/+QDRygUyoYNG1hZWW0PTx6+l8KZAwT6Cm2PTEEqCpuamh4+fPjTp0/gTuOVACjs8VqzdF2ukJAQFhYWdnZ2PT29sLCwiIiIoKAgLy8vW1tbY2PjkJCQkpISWKuIrquQNpkb3NNRzEklqisfGuNhEgj7kGmU7StAQnn7eJeVlVFlMvSdO3dERET+s5ARHo/39PSMioqKiIjw9/d3cXExMzMbDNK7d++C+KZNHDCG1aNHj/Lx8Rmt8x2mo8Jp0b2F3pWLFGOM0QRsSkpKY2MjRBBj+PpIcwkKe6Tk4LrfIHDixAk0Gj2wfvAP/ri5ufft2/cbKcClDEmgv7/f1dUVqyEW0bwO2uN/JRDRmq2/2lNIDicuJbF582Yqbv7a09OzYMGCwW1lfxCjLEZGRi0tLQzpZ5BpahCorKwkkUhKcebwxulfQzWWUhz4coV8mAE3mtfE1KSsrGzEcySoUXVgY5QIgMIeJdCQzNcEent7y8vLo6Oj5eXlUSgUDw+PgIAADoeTk5NTUFBgYxtYV3jRokVfXwKfmYTAunXrkAQ0He6MOJxGdNTOiSEXuVyYQzCWlpGTTUlJefr0KdWX5ens7NyxY4eZmRmBQBAUFOTh4RESEhIVFVVRUZGSkmJjY0OhUA0NDUzillDMfxL49OmThoYGyVYxqiNv1DyfEROK7Mg1XR8kIImxsrY6dOgQdF3/05fG6xFQ2OO1ZhmgXN3d3Y8ePbp69er58+cvXbp048aNhw8fPn782MnJiYWFJT8/nwHKAFmkNoGbN29iMBgG2ihuTJp8m73RfKJIeXl5Wu+22NDQUF5eXlZWdv78+bKyssrKyqdPn/71119OTk6ysrKwXRS13Z+R7JHJZF9fX4yyyOC+LWMSCPSfaGRrjsYCOw7eiT4+PrW1tYxUwZDX3yYACvu3EYIBahPIzMzk5OS8fPkytQ2DPQYg0NHRIS8vb7EljP7bztHPYQy5yPXSXPlQfX4RpLuH+9Da+aNfr5mZmS4uLjBZYvTJ01WKBYWFSDx6DBe8G/0YHH6KUR15FptD8fqSaCI2ISHhzZs3MOqarrx3FDIDCnsUIEMSv0CATCZHRESkpqZScVDpLyQPp9IBgcjISIUIw8GdXIbfno37MwNfrlCcYiYojLKystq7d+8YBshgkJ44cYIOnAWyMJYEPnz4ICEhYbM/dtxH3y8VMKa/yPXyXJKNAklcdMqUKTdv3oRR12PppmOXNijssWMPKf+DAJlMPnz4cHh4+Pv37//xIxxgFgK7du2CV89DLXoMuSioJs0g01tAHG1uYXHu3Lm2trYx7AxrampKTk4ODw8fQ4nPLJHACOUMCQlRjDaG5+HBgI3uzHO/Ol8xxkSIgIqMjKyqqgJtzQheTKs8gsKmFVmwOxwCZDL56NGj27dvf/r0aXt7+/79+3V1de/duzeca+Gc8Urg3r17SDTS7zH97sY8JH9H4YPV7ii8ngT7RI6IiIja2trR19Zv3rzJz8/fvn17Q0PDfzbACgoK0tPTgyAdr9H3q+XKz8/H60pEtn67AdMohAa9JRHdmae+wI6XKMjLx5udnQ37yPyqL42/80Fhj786ZaQSXblyhUgkCgkJkUgkKSkpJSWlzZs3w0M/I1UhDfLa0dGhoKBgWhxEby3oKOcn6FW62jxbfiJSU1MzMzPz/fv3oy+vKRSKv78/Pz+/kJCQxJc/T0/PiooKCFIaOD5Dmrxx4wYSj/KrYurn4RhykceNBAkPdQwR5+HhUVpaSpVl6RnSISDTXxEAhf0VDPg46gQqKytDQkICvvzNmTOnqqqK6ouOjXqZIEEqEEhJSSGYyER+zhllUUsPycX0F/k/W66f4SkgiTE0NCwpKWlqahrDuPjPaoBfAjQgMDBwz549ra2tVKhgMDFeCPT09BgaGmoucfrnzuT0EE20zkNUe67rxbmKMcaCwqiAgIDKysqurq4xeRIeLw41rsoBCntcVScUBgiMDwJPnz7FCeMdjsXRuoGkL/vkIq/bSTJBupPwAsqqyps2bWpqaoLWeny49DguxdatW5FSuOC6lfQVTZRimuYnqivfrmQq3liaDyVgZ2937tw5WFpnHDv5yIoGCntk3OAqIAAEaEiATCbPnj2bYCIzsPUMmbYtJU2b4eEb97mfrBhrIkAYWIbv0KFDDQ0NoK1p6GFgmnoEWltbNTU1tRY5xnQXDN/hGffM4LqV5ltCSTYKeJJwfHz87du3Ycg19bxpXFkChT2uqhMKAwTGDYGKigohlJDuCreo9lzGbYyHk/PQd2u0U12QisK8fLwZGRmwjcu48WHmKUhWVpagBMb3fnIsuWg4Ps+453jcSiSYSLNNZJeWlj527FhXVxfz1DKU9FcJgML+VWJwPhAAAqNBoKenx8vLiwvF63RqJuO2xz/PeVR7rvXeaLyeBD9G0NbO9tSpUzBBajR8C9KgNoFXr15JSUuJu6iO47EiIW9X66a7C0hitHW0ly1bdv/+fZjvS20/Gm/2QGGPtxqF8gCBcUOgqqpKV1cXoyoSVDuuhnjGkItC3mZY747CG0qKiJOSkpLu3r0Ly0uPG79lzoLs3LlTQFBQPtwwujPv5w+WjPVrTHe+05+zlKaaCUhjNTQ1tmzZ0tjYCCO4mNPJf7XUoLB/lRicDwSAwOgRqK6uNjU1lfLVimobD+uKRPcWuJXNkw814BNDikmKJyYmPn/+fAzXCRm9ioSUxjuBnp6ebdu2EUhE4zz/8bEBTURLtvW+GBFLOQwRZ2dnt2HDhg8fPoC2Hu+OTM3ygcKmJk2wBQSAANUJPHjwQEpaSiPBLqo7n7F6v/6b275Cr9tJhmu9RazkkQS0t7f3zp07a2pqQFtT3VvA4BgSIJPJ27dvFxRG2h+dFsOwA7Kj2nMdT0xXnW2FUiGISYnPmTPn/v37HR0doK3H0LUYNGlQ2AxacZBtIMBEBHJzc3mEeO2PTfuvZqXxUlxUTCi8aa1mkoOABJqVbYKCgsL+/ftbWlqYqPKgqMxEoLOz08vLS0geH1SbTsUgGjVTvg9TZAJ0uZCTJkyY4Obmdu3atZ6eHmaqQCgrNQmAwqYmTbAFBIAALQg0NzcHBASglYiWOyMYZbhIRMs692sL9DP9SZFJAAALVElEQVQ8MZqiOJKwv7//tm3bnj17Bg02LTwEbNIPgQcPHqiqqUp5avg+SGaU4SJBtel2pVNVZlryS6Jl5WXnzp174cKFhoYGeMtEP37FiDkBhc2ItQZ5BgJMR6ClpWXq1Kl8QvxSXppBr+i3eyy6M8/tyjz1+bZC8nghPMrAwCAjI+PZs2fd3d1MV2dQYGYlUFVVZWRsxIsX1FnmGtVGv6tthjVm2R2ZIhOoy0dCikqIurq67t279+3btyCsmdVzqVxuUNhUBgrmgAAQoBGBjo6OM2fOWFpaopWJ9kenRfcWjtq7439NKLhupdXuKKVpZhh1EpqIdXR03LRpU1VVVUtLCwzfpJE/gFl6JtDQ0LBq1SopGWlxZ1XfB8l0NCy7r9DnfrLhOl8JD3UBSYyEtGR4ePjJkyfr6upgU0Z69ihGzBsobEasNcgzEGBeAk1NTYsWLUIJo+XDDJzOzIpszf5X+UujEyI/53jfWWS5LVzKU4OPJCSvqODl5ZWdnV1VVdXR0cG8NQQlBwJfCJDJ5KqqKg8PDwFRlO4KN7/HS8fwqTjk7WqX83P013gRTGQECEh9ff1p06bt37+/vr4elrUGh6URAVDYNAILZoEAEKAVgc7Ozo0bNwoICPBg+WQCdANr0mikoX9kNqa7wPbQZAlnVUEpDNtEdlFR0ZUrV96/f7+zsxN6rGlV62CXMQm8f/9+ypQpnNwTkYrCOqkuo79Fa/jHLINMb2EDKR4MH+sEVgMDg507d9bW1sJQEMZ0KEbKNShsRqotyCsQAAKDBDo7O8+cORMVFSUlK41SIuimublfWxDRQsP+7IhP6zxuJNjsjdZYaI/Xl+AnIDW1tUJDQ4uKip4+fdre3g7aGpwTCHyXQFNT0/r1621tbTFEHNFczmJbeGhDRiy5+EdPsL95PIZcFPx6lfPZ2Xrp7lLemkKKwhgRnKWl5bx580pKSurr62G28XerCQ5SnQAobKojBYNAAAiMEoG+vr76+vr8/HwjYyMBHFJIDqc42dR6X4zPg+TI1uzfGfoZ2ZXn/2yZ05+zLLaEaS50ELVV4hdHYUg4VTVVV1fXNWvWVFZWNjU1QTfYKNU0JMPgBMhkcnt7+4MHDxISEuQU5PjFUaJ2ilpLnBxPzgisSYvuKfgdVR3RvM773mK7kqm6K9zkQ/XxBpK8RCFRKTFra+vp06dv3br12bNnbW1t8AzM4E7EeNkHhc14dQY5BgJA4BsCLS0tVVVVO3bsCAwMVFFTESAg+cVRwoZSynHmpsVBtgcnOxyLczozy/3KfK/bSX6Plvo/Xeb7INmzfKHrpblOp2baH51mcyDWtChQPcFOyleLYCItKIvlExaUlJXS09Nzd3dPTk4+fvz4ixcvGhsbYVWQb+DDVyAwfAL9/f3v3r07evRoQkKCo6OjpKwUL0FQSB4vZq+kkWhvuT3C7sgUxxPTnc/Ncb+2wPvuYr+qVL+qVO97iz1uJLhcmONwYrrdkSnWe6INs3xUZliIO6tgNUX5xVGCBJSCsqK9vX1sbGxWVlZZWVldXR28WRp+vcCZtCAACpsWVMEmEAACY0Ogq6urqqqqpKQkOTnZwcGBm5sbgUCwcbJz8k7kQk7iFRYQkEAjFYRRygQhORy/GGoSnn+iIA8HD+cEDjbElz9eXl4jI6NZs2bt37//9u3br169am9vH5vCQKpAYFwTaG5urqys3Lx587Rp07S0tCZMmMDKysrOzTGRn5sbzcsrIiQohUEpElCKwoIyWD6SEA+Gj5Ofi52Lg3XChMFoJRKJHh4eqampJ0+efPjwYXNzM3RUj2uXYbDCgcJmsAqD7AIBIPCvBPr7+9va2t69e/f48eMrV64cO3Zs9+7dxcXF6enp8+fPj4qKCg4Ojo2NnT9/flpaWn5+/rZt2w4cOHDmzJlbt249ffr0zZs3zc3NfX19/5oQnAAEgMBvEujp6fn06VN9ff29e/cuXLhw+PDhbdu25eXlpaamzp49OywsLDw8PC4uLikpafXq1cXFxbt27SopKbl48eKdO3devnz5/v17GAHym1UAl9OIAChsGoEFs0AACAABIAAEgAAQAAJMSgAUNpNWPBQbCAABIAAEgAAQAAJAgEYEQGHTCCyYBQJAAAgAASAABIAAEGBSAqCwmbTiodhAAAgAASAABIAAEAACNCIACptGYMEsEAACQAAIAAEgAASAAJMSAIXNpBUPxQYCQAAIAAEgAASAABCgEQFQ2DQCC2aBABAAAkAACAABIAAEmJQAKGwmrXgoNhAAAkAACAABIAAEgACNCIDCphFYMAsEgAAQAAJAAAgAASDApARAYTNpxUOxgQAQAAJAAAgAASAABGhEABQ2jcCCWSAABIAAEAACQAAIAAEmJQAKm0krHooNBIAAEAACQAAIAAEgQCMCoLBpBBbMAgEgAASAABAAAkAACDApAVDYTFrxUGwgAASAABAAAkAACAABGhEAhU0jsGAWCAABIAAEgAAQAAJAgEkJgMJm0oqHYgMBIAAEgAAQAAJAAAjQiAAobBqBBbNAAAgAASAABIAAEAACTEoAFDaTVjwUGwgAASAABIAAEAACQIBGBEBh0wgsmAUCQAAIAAEgAASAABBgUgKgsJm04qHYQAAIAAEgAASAABAAAjQiAAqbRmDBLBAAAkAACAABIAAEgACTEgCFzaQVD8UGAkAACAABIAAEgAAQoBEBUNg0AgtmgQAQAAJAAAgAASAABJiUAChsJq14KDYQAAJAAAgAASAABIAAjQiAwqYRWDALBIAAEAACQAAIAAEgwKQEQGEzacVDsYEAEAACQAAIAAEgAARoRAAUNo3AglkgAASAABAAAkAACAABJiUACptJKx6KDQSAABAAAkAACAABIEAjAqCwaQQWzAIBIAAEgAAQAAJAAAgwKQFQ2Exa8VBsIAAEgAAQAAJAAAgAARoRAIVNI7BgFggAASAABIAAEAACQIBJCYDCZtKKh2IDASAABIAAEAACQAAI0IgAKGwagQWzQAAIAAEgAASAABAAAkxKABQ2k1Y8FBsIAAEgAASAABAAAkCARgRAYdMILJgFAkAACAABIAAEgAAQYFICoLCZtOKh2EAACAABIAAEgAAQAAI0IgAKm0ZgwSwQAAJAAAgAASAABIAAkxIAhc2kFQ/FBgJAAAgAASAABIAAEKARAVDYNAILZoEAEAACQAAIAAEgAASYlAAobCateCg2EAACQAAIAAEgAASAAI0IgMKmEVgwCwSAABAAAkAACAABIMCkBEBhM2nFQ7GBABAAAkAACAABIAAEaEQAFDaNwIJZIAAEgAAQAAJAAAgAASYlAAqbSSseig0EgAAQAAJAAAgAASBAIwKgsGkEFswCASAABIAAEAACQAAIMCkBUNhMWvFQbCAABIAAEAACQAAIAAEaEQCFTSOwYBYIAAEgAASAABAAAkCASQmAwmbSiodiAwEgAASAABAAAkAACNCIAChsGoEFs0AACAABIAAEgAAQAAJMSgAUNpNWPBQbCAABIAAEgAAQAAJAgEYEQGHTCCyYBQJAAAgAASAABIAAEGBSAqCwmbTiodhAAAgAASAABIAAEAACNCIACptGYMEsEAACQAAIAAEgAASAAJMSAIXNpBUPxQYCQAAIAAEgAASAABCgEQFQ2DQCC2aBABAAAkAACAABIAAEmJQAKGwmrXgoNhAAAkAACAABIAAEgACNCIDCphFYMAsEgAAQAAJAAAgAASDApARAYTNpxUOxgQAQAAJAAAgAASAABGhEABQ2jcCCWSAABIAAEAACQAAIAAEmJQAKm0krHooNBIAAEAACQAAIAAEgQCMCoLBpBBbMAgEgAASAABAAAkAACDApgf8DkhPnxcOQRlAAAAAASUVORK5CYII=;" parent="1" vertex="1">
          <mxGeometry x="34.5" y="1300" width="971" height="325" as="geometry" />
        </mxCell>
        <mxCell id="R4X6UFoqfHLG6ZeLgsRe-2" value="" style="ellipse;whiteSpace=wrap;html=1;movable=0;resizable=0;rotatable=0;deletable=0;editable=0;locked=1;connectable=0;" vertex="1" parent="1">
          <mxGeometry x="1020" y="350" width="380" height="150" as="geometry" />
        </mxCell>
        <mxCell id="R4X6UFoqfHLG6ZeLgsRe-7" value="" style="endArrow=classic;html=1;rounded=0;" edge="1" parent="1">
          <mxGeometry width="50" height="50" relative="1" as="geometry">
            <mxPoint x="1210" y="425" as="sourcePoint" />
            <mxPoint x="1070" y="570" as="targetPoint" />
          </mxGeometry>
        </mxCell>
        <mxCell id="R4X6UFoqfHLG6ZeLgsRe-8" value="" style="endArrow=none;dashed=1;html=1;dashPattern=1 3;strokeWidth=2;rounded=0;" edge="1" parent="1">
          <mxGeometry width="50" height="50" relative="1" as="geometry">
            <mxPoint x="1210" y="425" as="sourcePoint" />
            <mxPoint x="1380" y="515" as="targetPoint" />
            <Array as="points" />
          </mxGeometry>
        </mxCell>
        <mxCell id="R4X6UFoqfHLG6ZeLgsRe-11" value="" style="endArrow=none;dashed=1;html=1;dashPattern=1 3;strokeWidth=2;rounded=0;" edge="1" parent="1">
          <mxGeometry width="50" height="50" relative="1" as="geometry">
            <mxPoint x="1050" y="340" as="sourcePoint" />
            <mxPoint x="1220" y="430" as="targetPoint" />
            <Array as="points" />
          </mxGeometry>
        </mxCell>
        <mxCell id="R4X6UFoqfHLG6ZeLgsRe-14" value="" style="curved=1;endArrow=classic;html=1;rounded=0;edgeStyle=orthogonalEdgeStyle;" edge="1" parent="1">
          <mxGeometry width="50" height="50" relative="1" as="geometry">
            <mxPoint x="1410" y="280" as="sourcePoint" />
            <mxPoint x="1180" y="150" as="targetPoint" />
          </mxGeometry>
        </mxCell>
      </root>
    </mxGraphModel>
  </diagram>
</mxfile>
